<?xml version="1.0" encoding="UTF-8"?>
<svg version="1.1" xmlns="http://www.w3.org/2000/svg" width="1280" height="720">
<path d="M0 0 C422.4 0 844.8 0 1280 0 C1280 237.6 1280 475.2 1280 720 C857.6 720 435.2 720 0 720 C0 482.4 0 244.8 0 0 Z " fill="#1C2529" transform="translate(0,0)"/>
<path d="M0 0 C3.81248345 -0.02936502 7.62493726 -0.04692035 11.4375 -0.0625 C12.50677734 -0.07087891 13.57605469 -0.07925781 14.67773438 -0.08789062 C20.87624228 -0.10684631 26.8549481 0.17936741 33 1 C33 1.66 33 2.32 33 3 C33.83917969 3.02126953 33.83917969 3.02126953 34.6953125 3.04296875 C42.69019959 3.51854885 49.60525288 6.11242584 57 9 C57 9.66 57 10.32 57 11 C57.66 11.20625 58.32 11.4125 59 11.625 C62.4423565 13.20274673 65.11158977 15.24964506 68.09375 17.55859375 C70.04603513 19.08814128 70.04603513 19.08814128 72.5 20.5 C79.29751061 24.57850636 84.41705202 28.25115606 87 36 C87.66 36 88.32 36 89 36 C105.25467669 57.18735862 109.94598679 80.6828453 108 107 C107.14627884 112.86136915 105.67550953 118.48340348 103.875 124.125 C103.34519531 125.79949219 103.34519531 125.79949219 102.8046875 127.5078125 C102.53914062 128.33023438 102.27359375 129.15265625 102 130 C101.34 130 100.68 130 100 130 C100.08636719 130.8353125 100.17273438 131.670625 100.26171875 132.53125 C99.92012328 137.05866456 98.21339597 139.73314261 95.8125 143.5 C95.23145508 144.45712891 95.23145508 144.45712891 94.63867188 145.43359375 C92.69706399 148.57225906 90.66560995 151.47858447 88.26171875 154.28125 C85.84932785 156.84600142 85.84932785 156.84600142 85 160 C84.01 160.33 83.02 160.66 82 161 C80.78879275 162.45675011 79.58040588 163.91610601 78.39697266 165.39550781 C76.15163383 167.9743905 73.47010121 169.92379787 70.6875 171.875 C70.08719971 172.29918213 69.48689941 172.72336426 68.8684082 173.16040039 C55.05163903 182.64799809 38.82924839 190.77464776 21.6171875 188.71484375 C18.0601848 187.82931379 17.08362651 187.12543976 15 184 C14.07014623 179.05449452 14.10159056 174.68422449 16.49609375 170.1953125 C17.71008031 168.49421699 18.96726072 166.82278343 20.2734375 165.19140625 C21.85945358 163.17838585 22.88477057 161.28889882 24 159 C25.33333333 157.66666667 26.66666667 156.33333333 28 155 C29.0064275 153.33720673 30.00585407 151.67016516 31 150 C34.10817843 146.07387987 37.44675073 142.51346172 41 139 C43.91920405 136.10671244 46.83513628 133.21015964 49.75 130.3125 C50.52988281 129.54099609 51.30976563 128.76949219 52.11328125 127.97460938 C53.22509766 126.86762695 53.22509766 126.86762695 54.359375 125.73828125 C55.37209473 124.73341675 55.37209473 124.73341675 56.40527344 123.70825195 C58.08013047 122.07595037 58.08013047 122.07595037 59 120 C53.76718374 123.31837129 48.91788749 127.01815881 44.57421875 131.45703125 C42.65720001 133.33599503 40.6129357 134.96986703 38.5 136.625 C37.33984375 137.54152344 37.33984375 137.54152344 36.15625 138.4765625 C34 140 34 140 31 141 C30.67 141.99 30.34 142.98 30 144 C28.0533282 145.84399021 25.99199281 147.49469912 23.91015625 149.18359375 C21.951643 151.04598365 21.12517003 152.57769072 20 155 C18.33333333 156.66666667 16.66666667 158.33333333 15 160 C14.278125 161.093125 13.55625 162.18625 12.8125 163.3125 C12.214375 164.199375 11.61625 165.08625 11 166 C10.34 166 9.68 166 9 166 C8.896875 166.639375 8.79375 167.27875 8.6875 167.9375 C8.10896068 170.51462968 7.36177808 172.72857153 6.4375 175.1875 C4.71108011 180.16562336 4.70594203 184.78319376 5 190 C-3.15010393 189.80843773 -3.15010393 189.80843773 -6.5625 186.5625 C-8 184 -8 184 -8 182 C-8.66 182 -9.32 182 -10 182 C-10 178.04 -10 174.08 -10 170 C-9.34 170 -8.68 170 -8 170 C-7.773125 169.360625 -7.54625 168.72125 -7.3125 168.0625 C-4.25095328 160.918891 -0.32003336 153.7256664 5 148 C5.66 148 6.32 148 7 148 C7 147.34 7 146.68 7 146 C7.66 146 8.32 146 9 146 C9.20625 145.46375 9.4125 144.9275 9.625 144.375 C11.53250426 141.08021991 14.04819384 138.40636372 17 136 C17.66 136 18.32 136 19 136 C19 135.34 19 134.68 19 134 C19.66 134 20.32 134 21 134 C21.66 132.68 22.32 131.36 23 130 C23.66 130 24.32 130 25 130 C25 129.34 25 128.68 25 128 C25.66 128 26.32 128 27 128 C27 127.34 27 126.68 27 126 C27.721875 125.5875 28.44375 125.175 29.1875 124.75 C31.72840709 123.16899114 32.88738497 122.08943121 34.6875 119.8125 C35.450625 118.884375 36.21375 117.95625 37 117 C37.66 117 38.32 117 39 117 C39 116.34 39 115.68 39 115 C40.79296875 113.4140625 40.79296875 113.4140625 43.1875 111.625 C45.81784807 109.64396741 48.40230722 107.6661706 50.9375 105.5625 C53 104 53 104 55 104 C55 103.34 55 102.68 55 102 C55.66 102 56.32 102 57 102 C57 101.34 57 100.68 57 100 C58.32 99.67 59.64 99.34 61 99 C61 98.34 61 97.68 61 97 C66.23809524 92 66.23809524 92 71 92 C71.99 95.96 71.99 95.96 73 100 C73.99 98.02 73.99 98.02 75 96 C75.66 96 76.32 96 77 96 C77.37125 94.7625 77.37125 94.7625 77.75 93.5 C79.18704811 89.47626529 81.02354515 85.78020976 83 82 C83.66 82 84.32 82 85 82 C85.061875 81.35289062 85.12375 80.70578125 85.1875 80.0390625 C86.35254422 75.68134902 88.65145205 72.19791417 91 68.375 C91.91915994 66.86349254 92.83593077 65.35052895 93.75 63.8359375 C94.15734375 63.17126465 94.5646875 62.5065918 94.984375 61.82177734 C96.1467081 59.86944402 96.1467081 59.86944402 97 57 C96.27296875 57.12117188 95.5459375 57.24234375 94.796875 57.3671875 C92.67609712 57.72065048 90.55497628 58.07205927 88.43359375 58.421875 C86.23564315 58.79195087 84.03998128 59.17606291 81.84765625 59.578125 C75.78720804 60.67009765 70.15810833 61.20527028 64 61 C64 61.66 64 62.32 64 63 C58.29309366 63.99250545 52.78591511 64.10477512 47 64 C47 64.99 47 65.98 47 67 C48.423125 67.4640625 48.423125 67.4640625 49.875 67.9375 C53 69 53 69 55 70 C55 74 55 74 53.390625 75.8515625 C52.68421875 76.43679688 51.9778125 77.02203125 51.25 77.625 C50.55390625 78.21539062 49.8578125 78.80578125 49.140625 79.4140625 C47 81 47 81 44.796875 82.0234375 C42.64471046 82.92831291 42.64471046 82.92831291 42 86 C40.01739574 87.68732277 38.0167658 89.35366057 36 91 C35.34 91.99 34.68 92.98 34 94 C33.23429687 94.45761719 32.46859375 94.91523438 31.6796875 95.38671875 C28.66264064 97.20310411 26.56306239 99.2770709 24.125 101.8125 C21.27886704 104.72609685 18.46311822 107.54334218 15.3125 110.125 C12.07608613 112.80811595 9.46503364 115.86009449 6.75390625 119.0625 C5.08318908 120.90810294 3.37015505 122.43688558 1.4375 124 C-1.7502398 126.62811437 -4.01501042 129.51262832 -6.3984375 132.87109375 C-8.14768279 135.19631005 -10.06813807 137.25739098 -12.0625 139.375 C-15.54334549 143.21387531 -17.76862629 147.04423233 -19.91796875 151.73828125 C-21 154 -21 154 -23.0625 156.875 C-27.0160121 163.25163242 -28.91306421 170.62201159 -30 178 C-32.89951766 177.67783137 -34.72557388 177.19371255 -37.125 175.5 C-41.66087304 169.45216928 -42.77168464 162.4005822 -42 155 C-41.45911389 151.96271647 -40.78952456 148.98186509 -40 146 C-39.34 146 -38.68 146 -38 146 C-37.79375 145.34 -37.5875 144.68 -37.375 144 C-35.79861116 140.56060616 -33.75693951 137.89404893 -31.4453125 134.91796875 C-29.88936578 132.93224354 -29.88936578 132.93224354 -28.4375 130.3125 C-26.63977062 127.42050056 -24.43827887 125.3840949 -22 123 C-20.59130563 121.49107161 -19.19634198 119.96925262 -17.8125 118.4375 C-16.80123047 117.32181641 -16.80123047 117.32181641 -15.76953125 116.18359375 C-14.14601438 114.18018109 -13.03837688 112.34832925 -12 110 C-11.01 110 -10.02 110 -9 110 C-9 109.34 -9 108.68 -9 108 C-8.34 108 -7.68 108 -7 108 C-6.90847656 107.41863281 -6.81695312 106.83726562 -6.72265625 106.23828125 C-5.82127302 103.44642941 -4.54659373 102.21404603 -2.4375 100.1875 C-1.715625 99.49011719 -0.99375 98.79273438 -0.25 98.07421875 C1.81788852 96.16788402 3.92348672 94.32568125 6.0625 92.5 C9.39934356 89.62966661 12.22225595 86.53899303 15.07421875 83.1953125 C17.37278484 80.5750404 19.75684607 78.06077095 22.1875 75.5625 C23.00605469 74.71816406 23.82460938 73.87382812 24.66796875 73.00390625 C26.91328687 71.07451229 28.11218579 70.36512593 31 70 C32.76462683 73.08809695 33 74.23312136 33 78 C33.99 78 34.98 78 36 78 C36.268125 76.845 36.53625 75.69 36.8125 74.5 C37.88385122 70.18376486 39.37472237 66.13707033 41 62 C41.66 62 42.32 62 43 62 C43.33 59.69 43.66 57.38 44 55 C44.66 55 45.32 55 46 55 C46.0825 54.195625 46.165 53.39125 46.25 52.5625 C47.20196675 48.04065795 49.01580179 44.15297299 51 40 C51.66 40 52.32 40 53 40 C53 38.68 53 37.36 53 36 C42.75350721 38.34623712 32.52738979 40.72936592 22.4375 43.6875 C21.74277588 43.88947998 21.04805176 44.09145996 20.33227539 44.29956055 C17.05842016 45.27972012 13.99044741 46.33356747 11 48 C11 48.66 11 49.32 11 50 C12.98 50.495 12.98 50.495 15 51 C15 52.32 15 53.64 15 55 C12.8125 56.9375 12.8125 56.9375 10 59 C9.236875 59.763125 8.47375 60.52625 7.6875 61.3125 C5.64865828 63.35134172 3.61242135 65.2421652 1.4375 67.125 C-6.67516554 74.16618141 -14.59004414 81.41192348 -22.10546875 89.08984375 C-23.59881245 90.59550369 -25.16303027 92.03086774 -26.75 93.4375 C-28.93993808 95.93159614 -29.99769543 97.95185913 -31.375 100.9375 C-33.42441866 105.30140409 -35.58996446 107.72246163 -39.36328125 110.64453125 C-44.5530992 114.94254277 -46.92928838 121.78786515 -49 128 C-49.66 128 -50.32 128 -51 128 C-54.9390187 135.66795641 -57.67359898 143.71660244 -60 152 C-60.99 152 -61.98 152 -63 152 C-63.65357278 150.77493102 -64.29748233 149.54470484 -64.9375 148.3125 C-65.29714844 147.62800781 -65.65679687 146.94351563 -66.02734375 146.23828125 C-69.50857389 138.22725767 -69.44823199 126.74802397 -66.375 118.625 C-64.45591933 114.50583043 -62.02940849 110.78154073 -59.3671875 107.10546875 C-57.91074419 105.01334923 -57.91074419 105.01334923 -57.0078125 102.50390625 C-55.95841938 99.89669311 -54.70094645 97.97823984 -53 95.75 C-52.484375 95.06421875 -51.96875 94.3784375 -51.4375 93.671875 C-50 92 -50 92 -48 91 C-46.93489565 89.24063735 -46.02623787 87.4283566 -45.09765625 85.59375 C-44 84 -44 84 -41 83 C-39.89163577 81.11683841 -39.89163577 81.11683841 -39 79 C-38.01 77.515 -38.01 77.515 -37 76 C-36.34 76 -35.68 76 -35 76 C-35 75.34 -35 74.68 -35 74 C-34.01 73.67 -33.02 73.34 -32 73 C-31.505 71.515 -31.505 71.515 -31 70 C-30.34 70 -29.68 70 -29 70 C-29 69.34 -29 68.68 -29 68 C-27.4609375 66.484375 -27.4609375 66.484375 -25.375 64.75 C-22.70567144 62.4909746 -20.16928674 60.21224283 -17.75 57.6875 C-15.36168671 55.35346656 -13.86552331 54.43276166 -11 53 C-10.34 52.154375 -9.68 51.30875 -9 50.4375 C-7 48 -7 48 -4.875 47.125 C-3 47 -3 47 -1 48 C-1 49.32 -1 50.64 -1 52 C-0.34 52 0.32 52 1 52 C1.103125 51.319375 1.20625 50.63875 1.3125 49.9375 C2.14725019 46.37084011 3.49472754 43.33777806 5 40 C5.66 40 6.32 40 7 40 C7.0825 39.46375 7.165 38.9275 7.25 38.375 C8 36 8 36 10 33.0625 C11.92313716 30.11769623 12.45039276 28.38351957 13 25 C12.319375 25.19335938 11.63875 25.38671875 10.9375 25.5859375 C2.34786281 27.89326026 -6.18127157 29.04874122 -15 30 C-15 30.66 -15 31.32 -15 32 C-14.34 32.33 -13.68 32.66 -13 33 C-13.3125 34.9375 -13.3125 34.9375 -14 37 C-15.485 37.495 -15.485 37.495 -17 38 C-17 38.66 -17 39.32 -17 40 C-18.86328125 41.69140625 -18.86328125 41.69140625 -21.3125 43.5625 C-22.51326172 44.49255859 -22.51326172 44.49255859 -23.73828125 45.44140625 C-26 47 -26 47 -29 48 C-29 48.66 -29 49.32 -29 50 C-30.53554099 51.34813244 -32.13190909 52.62715023 -33.75 53.875 C-38.20996648 57.44643499 -42.38805166 61.15697431 -46.4375 65.1875 C-46.93282227 65.67395996 -47.42814453 66.16041992 -47.93847656 66.66162109 C-51.10981256 69.8578176 -53.56396189 73.2260066 -56 77 C-56.70125 77.680625 -57.4025 78.36125 -58.125 79.0625 C-60.25438368 81.26286314 -60.93360006 83.15626683 -62 86 C-63.5 88.3125 -63.5 88.3125 -65 90 C-65.66 90 -66.32 90 -67 90 C-67 90.66 -67 91.32 -67 92 C-67.66 92 -68.32 92 -69 92 C-69.19335938 92.58007812 -69.38671875 93.16015625 -69.5859375 93.7578125 C-71.79296875 100.37890625 -71.79296875 100.37890625 -74 107 C-74.66 107 -75.32 107 -76 107 C-76.33 108.65 -76.66 110.3 -77 112 C-78.485 112.495 -78.485 112.495 -80 113 C-80.02714434 110.2915983 -80.04690846 107.58347279 -80.0625 104.875 C-80.07087891 104.11445313 -80.07925781 103.35390625 -80.08789062 102.5703125 C-80.10646509 98.2610356 -79.86117265 94.24483526 -79 90 C-78.34 90 -77.68 90 -77 90 C-76.67 87.69 -76.34 85.38 -76 83 C-74.515 82.505 -74.515 82.505 -73 82 C-72.64270064 80.67288808 -72.31674575 79.33737094 -72 78 C-70.34546658 74.69093316 -68.63342508 71.63342508 -66 69 C-65.54983521 67.81748657 -65.54983521 67.81748657 -65.09057617 66.61108398 C-63.92048048 63.80961244 -62.70052091 62.33974306 -60.55078125 60.22265625 C-59.86693359 59.54396484 -59.18308594 58.86527344 -58.47851562 58.16601562 C-57.76373047 57.47185547 -57.04894531 56.77769531 -56.3125 56.0625 C-55.61705078 55.37220703 -54.92160156 54.68191406 -54.20507812 53.97070312 C-42.05282879 42 -42.05282879 42 -39 42 C-39 41.34 -39 40.68 -39 40 C-37.32534144 38.61862665 -35.58310868 37.31853284 -33.8125 36.0625 C-32.84957031 35.37285156 -31.88664062 34.68320312 -30.89453125 33.97265625 C-26.7230786 31.12976342 -22.73872048 28.76009618 -18 27 C-18 26.34 -18 25.68 -18 25 C-19.65 25.33 -21.3 25.66 -23 26 C-23 26.66 -23 27.32 -23 28 C-24.98 28 -26.96 28 -29 28 C-29 28.66 -29 29.32 -29 30 C-29.56847656 30.30292969 -30.13695312 30.60585938 -30.72265625 30.91796875 C-34.62196301 33.03361933 -38.36516109 35.17469701 -41.9375 37.8125 C-45 40 -45 40 -47 40 C-47 40.66 -47 41.32 -47 42 C-48.98 42.495 -48.98 42.495 -51 43 C-51 43.66 -51 44.32 -51 45 C-52.65234375 46.375 -52.65234375 46.375 -54.9375 48 C-63.06275985 54.14504715 -71.38993315 62.77986631 -76 72 C-76.66 72 -77.32 72 -78 72 C-76.8591078 59.67836424 -72.89621239 51.58084451 -65.33203125 41.85546875 C-63.88795438 40.02730403 -63.88795438 40.02730403 -63.1875 37.6875 C-60.62702504 31.89274088 -56.47862566 28.04368092 -51 25 C-50.34 24.01 -49.68 23.02 -49 22 C-48.34 22 -47.68 22 -47 22 C-47 21.34 -47 20.68 -47 20 C-46.34 20 -45.68 20 -45 20 C-45 19.34 -45 18.68 -45 18 C-39.25 15 -39.25 15 -37 15 C-37 14.34 -37 13.68 -37 13 C-25.19481343 6.39097933 -13.85089131 1.57626336 0 2 C0 1.34 0 0.68 0 0 Z " fill="#314EA2" transform="translate(395,226)"/>
<path d="M0 0 C3.81248345 -0.02936502 7.62493726 -0.04692035 11.4375 -0.0625 C12.50677734 -0.07087891 13.57605469 -0.07925781 14.67773438 -0.08789062 C20.87624228 -0.10684631 26.8549481 0.17936741 33 1 C33 1.66 33 2.32 33 3 C33.83917969 3.02126953 33.83917969 3.02126953 34.6953125 3.04296875 C42.69019959 3.51854885 49.60525288 6.11242584 57 9 C57 9.66 57 10.32 57 11 C57.66 11.20625 58.32 11.4125 59 11.625 C62.4423565 13.20274673 65.11158977 15.24964506 68.09375 17.55859375 C70.04603513 19.08814128 70.04603513 19.08814128 72.5 20.5 C74.79154213 21.87492528 76.95339144 23.3193386 79.125 24.875 C79.78757812 25.34679687 80.45015625 25.81859375 81.1328125 26.3046875 C83.36337437 28.32992569 84.54705651 30.36389033 86 33 C86.55558594 33.94617188 87.11117187 34.89234375 87.68359375 35.8671875 C88.88539535 37.92818356 90.08447969 39.99076582 91.28125 42.0546875 C92.28654219 43.77739274 93.30245519 45.49412737 94.34375 47.1953125 C96.36456732 50.52966108 97 51.96860073 97 56 C89.08 56.495 89.08 56.495 81 57 C81 57.66 81 58.32 81 59 C79.89785156 59.10957031 78.79570312 59.21914063 77.66015625 59.33203125 C69.58043443 60.16538992 61.56194914 61.14097686 53.5625 62.5625 C52.84779541 62.68923096 52.13309082 62.81596191 51.39672852 62.9465332 C48.51101579 63.47549325 45.78752556 64.07082481 43 65 C43.4125 63.80375 43.825 62.6075 44.25 61.375 C46.06694326 55.95012654 47.59913435 50.45194753 49.1328125 44.94140625 C50 42 50 42 51 40 C51.66 40 52.32 40 53 40 C53 38.68 53 37.36 53 36 C42.75350721 38.34623712 32.52738979 40.72936592 22.4375 43.6875 C21.74277588 43.88947998 21.04805176 44.09145996 20.33227539 44.29956055 C17.05842016 45.27972012 13.99044741 46.33356747 11 48 C11 48.66 11 49.32 11 50 C12.98 50.495 12.98 50.495 15 51 C15 52.32 15 53.64 15 55 C12.8125 56.9375 12.8125 56.9375 10 59 C9.236875 59.763125 8.47375 60.52625 7.6875 61.3125 C5.64865828 63.35134172 3.61242135 65.2421652 1.4375 67.125 C-6.67516554 74.16618141 -14.59004414 81.41192348 -22.10546875 89.08984375 C-23.59881245 90.59550369 -25.16303027 92.03086774 -26.75 93.4375 C-28.93993808 95.93159614 -29.99769543 97.95185913 -31.375 100.9375 C-33.42441866 105.30140409 -35.58996446 107.72246163 -39.36328125 110.64453125 C-44.5530992 114.94254277 -46.92928838 121.78786515 -49 128 C-49.66 128 -50.32 128 -51 128 C-54.9390187 135.66795641 -57.67359898 143.71660244 -60 152 C-60.99 152 -61.98 152 -63 152 C-63.65357278 150.77493102 -64.29748233 149.54470484 -64.9375 148.3125 C-65.29714844 147.62800781 -65.65679687 146.94351563 -66.02734375 146.23828125 C-69.50857389 138.22725767 -69.44823199 126.74802397 -66.375 118.625 C-64.45591933 114.50583043 -62.02940849 110.78154073 -59.3671875 107.10546875 C-57.91074419 105.01334923 -57.91074419 105.01334923 -57.0078125 102.50390625 C-55.95841938 99.89669311 -54.70094645 97.97823984 -53 95.75 C-52.484375 95.06421875 -51.96875 94.3784375 -51.4375 93.671875 C-50 92 -50 92 -48 91 C-46.93489565 89.24063735 -46.02623787 87.4283566 -45.09765625 85.59375 C-44 84 -44 84 -41 83 C-39.89163577 81.11683841 -39.89163577 81.11683841 -39 79 C-38.01 77.515 -38.01 77.515 -37 76 C-36.34 76 -35.68 76 -35 76 C-35 75.34 -35 74.68 -35 74 C-34.01 73.67 -33.02 73.34 -32 73 C-31.505 71.515 -31.505 71.515 -31 70 C-30.34 70 -29.68 70 -29 70 C-29 69.34 -29 68.68 -29 68 C-27.4609375 66.484375 -27.4609375 66.484375 -25.375 64.75 C-22.70567144 62.4909746 -20.16928674 60.21224283 -17.75 57.6875 C-15.36168671 55.35346656 -13.86552331 54.43276166 -11 53 C-10.34 52.154375 -9.68 51.30875 -9 50.4375 C-7 48 -7 48 -4.875 47.125 C-3 47 -3 47 -1 48 C-1 49.32 -1 50.64 -1 52 C-0.34 52 0.32 52 1 52 C1.103125 51.319375 1.20625 50.63875 1.3125 49.9375 C2.14725019 46.37084011 3.49472754 43.33777806 5 40 C5.66 40 6.32 40 7 40 C7.0825 39.46375 7.165 38.9275 7.25 38.375 C8 36 8 36 10 33.0625 C11.92313716 30.11769623 12.45039276 28.38351957 13 25 C12.319375 25.19335938 11.63875 25.38671875 10.9375 25.5859375 C2.34786281 27.89326026 -6.18127157 29.04874122 -15 30 C-15 30.66 -15 31.32 -15 32 C-14.34 32.33 -13.68 32.66 -13 33 C-13.3125 34.9375 -13.3125 34.9375 -14 37 C-15.485 37.495 -15.485 37.495 -17 38 C-17 38.66 -17 39.32 -17 40 C-18.86328125 41.69140625 -18.86328125 41.69140625 -21.3125 43.5625 C-22.51326172 44.49255859 -22.51326172 44.49255859 -23.73828125 45.44140625 C-26 47 -26 47 -29 48 C-29 48.66 -29 49.32 -29 50 C-30.53554099 51.34813244 -32.13190909 52.62715023 -33.75 53.875 C-38.20996648 57.44643499 -42.38805166 61.15697431 -46.4375 65.1875 C-46.93282227 65.67395996 -47.42814453 66.16041992 -47.93847656 66.66162109 C-51.10981256 69.8578176 -53.56396189 73.2260066 -56 77 C-56.70125 77.680625 -57.4025 78.36125 -58.125 79.0625 C-60.25438368 81.26286314 -60.93360006 83.15626683 -62 86 C-63.5 88.3125 -63.5 88.3125 -65 90 C-65.66 90 -66.32 90 -67 90 C-67 90.66 -67 91.32 -67 92 C-67.66 92 -68.32 92 -69 92 C-69.19335938 92.58007812 -69.38671875 93.16015625 -69.5859375 93.7578125 C-71.79296875 100.37890625 -71.79296875 100.37890625 -74 107 C-74.66 107 -75.32 107 -76 107 C-76.33 108.65 -76.66 110.3 -77 112 C-78.485 112.495 -78.485 112.495 -80 113 C-80.02714434 110.2915983 -80.04690846 107.58347279 -80.0625 104.875 C-80.07087891 104.11445313 -80.07925781 103.35390625 -80.08789062 102.5703125 C-80.10646509 98.2610356 -79.86117265 94.24483526 -79 90 C-78.34 90 -77.68 90 -77 90 C-76.67 87.69 -76.34 85.38 -76 83 C-74.515 82.505 -74.515 82.505 -73 82 C-72.64270064 80.67288808 -72.31674575 79.33737094 -72 78 C-70.34546658 74.69093316 -68.63342508 71.63342508 -66 69 C-65.54983521 67.81748657 -65.54983521 67.81748657 -65.09057617 66.61108398 C-63.92048048 63.80961244 -62.70052091 62.33974306 -60.55078125 60.22265625 C-59.86693359 59.54396484 -59.18308594 58.86527344 -58.47851562 58.16601562 C-57.76373047 57.47185547 -57.04894531 56.77769531 -56.3125 56.0625 C-55.61705078 55.37220703 -54.92160156 54.68191406 -54.20507812 53.97070312 C-42.05282879 42 -42.05282879 42 -39 42 C-39 41.34 -39 40.68 -39 40 C-37.32534144 38.61862665 -35.58310868 37.31853284 -33.8125 36.0625 C-32.84957031 35.37285156 -31.88664062 34.68320312 -30.89453125 33.97265625 C-26.7230786 31.12976342 -22.73872048 28.76009618 -18 27 C-18 26.34 -18 25.68 -18 25 C-19.65 25.33 -21.3 25.66 -23 26 C-23 26.66 -23 27.32 -23 28 C-24.98 28 -26.96 28 -29 28 C-29 28.66 -29 29.32 -29 30 C-29.56847656 30.30292969 -30.13695312 30.60585938 -30.72265625 30.91796875 C-34.62196301 33.03361933 -38.36516109 35.17469701 -41.9375 37.8125 C-45 40 -45 40 -47 40 C-47 40.66 -47 41.32 -47 42 C-48.98 42.495 -48.98 42.495 -51 43 C-51 43.66 -51 44.32 -51 45 C-52.65234375 46.375 -52.65234375 46.375 -54.9375 48 C-63.06275985 54.14504715 -71.38993315 62.77986631 -76 72 C-76.66 72 -77.32 72 -78 72 C-76.8591078 59.67836424 -72.89621239 51.58084451 -65.33203125 41.85546875 C-63.88795438 40.02730403 -63.88795438 40.02730403 -63.1875 37.6875 C-60.62702504 31.89274088 -56.47862566 28.04368092 -51 25 C-50.34 24.01 -49.68 23.02 -49 22 C-48.34 22 -47.68 22 -47 22 C-47 21.34 -47 20.68 -47 20 C-46.34 20 -45.68 20 -45 20 C-45 19.34 -45 18.68 -45 18 C-39.25 15 -39.25 15 -37 15 C-37 14.34 -37 13.68 -37 13 C-25.19481343 6.39097933 -13.85089131 1.57626336 0 2 C0 1.34 0 0.68 0 0 Z " fill="#4488CB" transform="translate(395,226)"/>
<path d="M0 0 C0.66 0 1.32 0 2 0 C3.57353271 2.17965631 5.0191628 4.34741167 6.4375 6.625 C6.83259766 7.24246094 7.22769531 7.85992187 7.63476562 8.49609375 C14 18.55761231 14 18.55761231 14 22 C12.02 22.495 12.02 22.495 10 23 C10 22.34 10 21.68 10 21 C9.27296875 21.12117188 8.5459375 21.24234375 7.796875 21.3671875 C5.67609712 21.72065048 3.55497628 22.07205927 1.43359375 22.421875 C-0.76435685 22.79195087 -2.96001872 23.17606291 -5.15234375 23.578125 C-11.21279196 24.67009765 -16.84189167 25.20527028 -23 25 C-23 25.66 -23 26.32 -23 27 C-28.70690634 27.99250545 -34.21408489 28.10477512 -40 28 C-40 28.99 -40 29.98 -40 31 C-39.05125 31.309375 -38.1025 31.61875 -37.125 31.9375 C-34 33 -34 33 -32 34 C-32 38 -32 38 -33.609375 39.8515625 C-34.66898438 40.72941406 -34.66898438 40.72941406 -35.75 41.625 C-36.44609375 42.21539062 -37.1421875 42.80578125 -37.859375 43.4140625 C-40 45 -40 45 -42.203125 46.0234375 C-44.35528954 46.92831291 -44.35528954 46.92831291 -45 50 C-46.98260426 51.68732277 -48.9832342 53.35366057 -51 55 C-51.66 55.99 -52.32 56.98 -53 58 C-54.14855469 58.68642578 -54.14855469 58.68642578 -55.3203125 59.38671875 C-58.33735936 61.20310411 -60.43693761 63.2770709 -62.875 65.8125 C-65.72113296 68.72609685 -68.53688178 71.54334218 -71.6875 74.125 C-74.92391387 76.80811595 -77.53496636 79.86009449 -80.24609375 83.0625 C-81.91681092 84.90810294 -83.62984495 86.43688558 -85.5625 88 C-88.7502398 90.62811437 -91.01501042 93.51262832 -93.3984375 96.87109375 C-95.14768279 99.19631005 -97.06813807 101.25739098 -99.0625 103.375 C-102.54334549 107.21387531 -104.76862629 111.04423233 -106.91796875 115.73828125 C-108 118 -108 118 -110.0625 120.875 C-114.0160121 127.25163242 -115.91306421 134.62201159 -117 142 C-119.89951766 141.67783137 -121.72557388 141.19371255 -124.125 139.5 C-128.66087304 133.45216928 -129.77168464 126.4005822 -129 119 C-128.45911389 115.96271647 -127.78952456 112.98186509 -127 110 C-126.34 110 -125.68 110 -125 110 C-124.690625 109.01 -124.690625 109.01 -124.375 108 C-122.79861116 104.56060616 -120.75693951 101.89404893 -118.4453125 98.91796875 C-116.88936578 96.93224354 -116.88936578 96.93224354 -115.4375 94.3125 C-113.63977062 91.42050056 -111.43827887 89.3840949 -109 87 C-107.59130563 85.49107161 -106.19634198 83.96925262 -104.8125 82.4375 C-103.80123047 81.32181641 -103.80123047 81.32181641 -102.76953125 80.18359375 C-101.14601438 78.18018109 -100.03837688 76.34832925 -99 74 C-98.01 74 -97.02 74 -96 74 C-96 73.34 -96 72.68 -96 72 C-95.34 72 -94.68 72 -94 72 C-93.90847656 71.41863281 -93.81695312 70.83726562 -93.72265625 70.23828125 C-92.82127302 67.44642941 -91.54659373 66.21404603 -89.4375 64.1875 C-88.715625 63.49011719 -87.99375 62.79273438 -87.25 62.07421875 C-85.18211148 60.16788402 -83.07651328 58.32568125 -80.9375 56.5 C-77.60065644 53.62966661 -74.77774405 50.53899303 -71.92578125 47.1953125 C-69.62721516 44.5750404 -67.24315393 42.06077095 -64.8125 39.5625 C-63.99394531 38.71816406 -63.17539062 37.87382812 -62.33203125 37.00390625 C-60.08671313 35.07451229 -58.88781421 34.36512593 -56 34 C-54.23537317 37.08809695 -54 38.23312136 -54 42 C-53.01 42 -52.02 42 -51 42 C-50.731875 40.845 -50.46375 39.69 -50.1875 38.5 C-49.11614878 34.18376486 -47.62527763 30.13707033 -46 26 C-45.34 26 -44.68 26 -44 26 C-43.67 23.69 -43.34 21.38 -43 19 C-42.34 19 -41.68 19 -41 19 C-40.814375 17.5459375 -40.814375 17.5459375 -40.625 16.0625 C-40.41875 15.051875 -40.2125 14.04125 -40 13 C-39.34 12.67 -38.68 12.34 -38 12 C-39.86763181 17.72210596 -41.85289032 23.37661751 -44 29 C-43.23171875 28.53980469 -42.4634375 28.07960938 -41.671875 27.60546875 C-37.11408957 25.33325509 -32.25044421 24.93079817 -27.25 24.3125 C-26.3115625 24.18294922 -25.373125 24.05339844 -24.40625 23.91992188 C-18.23929286 23.11498065 -12.21592336 22.83994421 -6 23 C-6 22.34 -6 21.68 -6 21 C-0.61509359 20.08342019 4.54230189 19.88861841 10 20 C7.74760816 13.65355477 5.07550194 8.21277377 1.171875 2.71484375 C0 1 0 1 0 0 Z " fill="#355CAB" transform="translate(482,262)"/>
<path d="M0 0 C0.495 0.99 0.495 0.99 1 2 C0.22265625 4.1640625 0.22265625 4.1640625 -0.9375 6.625 C-1.31777344 7.44226563 -1.69804687 8.25953125 -2.08984375 9.1015625 C-2.39019531 9.72804688 -2.69054687 10.35453125 -3 11 C-1.80375 10.505 -0.6075 10.01 0.625 9.5 C4.21101476 8.14088765 7.13404799 7.7100536 11 8 C11.33 7.01 11.66 6.02 12 5 C23.52164009 2.70387244 23.52164009 2.70387244 29 3 C29 3.33 29 3.66 29 4 C20.37109608 6.5146362 11.73686561 8.88779073 3 11 C3 11.99 3 12.98 3 14 C4.32 14.33 5.64 14.66 7 15 C7 16.32 7 17.64 7 19 C4.8125 20.9375 4.8125 20.9375 2 23 C1.236875 23.763125 0.47375 24.52625 -0.3125 25.3125 C-2.35134172 27.35134172 -4.38757865 29.2421652 -6.5625 31.125 C-14.67516554 38.16618141 -22.59004414 45.41192348 -30.10546875 53.08984375 C-31.59881245 54.59550369 -33.16303027 56.03086774 -34.75 57.4375 C-36.93993808 59.93159614 -37.99769543 61.95185913 -39.375 64.9375 C-41.42441866 69.30140409 -43.58996446 71.72246163 -47.36328125 74.64453125 C-52.5530992 78.94254277 -54.92928838 85.78786515 -57 92 C-57.66 92 -58.32 92 -59 92 C-62.9390187 99.66795641 -65.67359898 107.71660244 -68 116 C-68.99 116 -69.98 116 -71 116 C-71.65357278 114.77493102 -72.29748233 113.54470484 -72.9375 112.3125 C-73.29714844 111.62800781 -73.65679687 110.94351563 -74.02734375 110.23828125 C-77.50857389 102.22725767 -77.44823199 90.74802397 -74.375 82.625 C-72.45591933 78.50583043 -70.02940849 74.78154073 -67.3671875 71.10546875 C-65.91074419 69.01334923 -65.91074419 69.01334923 -65.0078125 66.50390625 C-63.95841938 63.89669311 -62.70094645 61.97823984 -61 59.75 C-60.484375 59.06421875 -59.96875 58.3784375 -59.4375 57.671875 C-58 56 -58 56 -56 55 C-54.93489565 53.24063735 -54.02623787 51.4283566 -53.09765625 49.59375 C-52 48 -52 48 -49 47 C-47.89163577 45.11683841 -47.89163577 45.11683841 -47 43 C-46.34 42.01 -45.68 41.02 -45 40 C-44.34 40 -43.68 40 -43 40 C-43 39.34 -43 38.68 -43 38 C-42.01 37.67 -41.02 37.34 -40 37 C-39.67 36.01 -39.34 35.02 -39 34 C-38.34 34 -37.68 34 -37 34 C-37 33.34 -37 32.68 -37 32 C-35.4609375 30.484375 -35.4609375 30.484375 -33.375 28.75 C-30.70567144 26.4909746 -28.16928674 24.21224283 -25.75 21.6875 C-23.36168671 19.35346656 -21.86552331 18.43276166 -19 17 C-18.34 16.154375 -17.68 15.30875 -17 14.4375 C-15 12 -15 12 -12.875 11.125 C-11 11 -11 11 -9 12 C-9 13.32 -9 14.64 -9 16 C-8.34 16 -7.68 16 -7 16 C-6.896875 15.319375 -6.79375 14.63875 -6.6875 13.9375 C-5.85274981 10.37084011 -4.50527246 7.33777806 -3 4 C-2.34 4 -1.68 4 -1 4 C-0.67 2.68 -0.34 1.36 0 0 Z " fill="#3865B1" transform="translate(403,262)"/>
<path d="M0 0 C0 1.32 0 2.64 0 4 C2.31 4.33 4.62 4.66 7 5 C7 5.33 7 5.66 7 6 C4.69 6.33 2.38 6.66 0 7 C0 7.66 0 8.32 0 9 C0.99 9.495 0.99 9.495 2 10 C1.6875 11.9375 1.6875 11.9375 1 14 C0.01 14.33 -0.98 14.66 -2 15 C-2 15.66 -2 16.32 -2 17 C-3.86328125 18.69140625 -3.86328125 18.69140625 -6.3125 20.5625 C-7.11300781 21.18253906 -7.91351563 21.80257813 -8.73828125 22.44140625 C-11 24 -11 24 -14 25 C-14 25.66 -14 26.32 -14 27 C-15.53554099 28.34813244 -17.13190909 29.62715023 -18.75 30.875 C-23.20996648 34.44643499 -27.38805166 38.15697431 -31.4375 42.1875 C-31.93282227 42.67395996 -32.42814453 43.16041992 -32.93847656 43.66162109 C-36.10981256 46.8578176 -38.56396189 50.2260066 -41 54 C-41.70125 54.680625 -42.4025 55.36125 -43.125 56.0625 C-45.25438368 58.26286314 -45.93360006 60.15626683 -47 63 C-48.5 65.3125 -48.5 65.3125 -50 67 C-50.66 67 -51.32 67 -52 67 C-52 67.66 -52 68.32 -52 69 C-52.66 69 -53.32 69 -54 69 C-54.19335938 69.58007812 -54.38671875 70.16015625 -54.5859375 70.7578125 C-56.05729167 75.171875 -57.52864583 79.5859375 -59 84 C-59.66 84 -60.32 84 -61 84 C-61.33 85.65 -61.66 87.3 -62 89 C-63.485 89.495 -63.485 89.495 -65 90 C-65.02714434 87.2915983 -65.04690846 84.58347279 -65.0625 81.875 C-65.07087891 81.11445313 -65.07925781 80.35390625 -65.08789062 79.5703125 C-65.10646509 75.2610356 -64.86117265 71.24483526 -64 67 C-63.34 67 -62.68 67 -62 67 C-61.67 64.69 -61.34 62.38 -61 60 C-59.515 59.505 -59.515 59.505 -58 59 C-57.64270064 57.67288808 -57.31674575 56.33737094 -57 55 C-55.34546658 51.69093316 -53.63342508 48.63342508 -51 46 C-50.69989014 45.21165771 -50.39978027 44.42331543 -50.09057617 43.61108398 C-48.92048048 40.80961244 -47.70052091 39.33974306 -45.55078125 37.22265625 C-44.86693359 36.54396484 -44.18308594 35.86527344 -43.47851562 35.16601562 C-42.76373047 34.47185547 -42.04894531 33.77769531 -41.3125 33.0625 C-40.61705078 32.37220703 -39.92160156 31.68191406 -39.20507812 30.97070312 C-27.05282879 19 -27.05282879 19 -24 19 C-24 18.34 -24 17.68 -24 17 C-22.32534144 15.61862665 -20.58310868 14.31853284 -18.8125 13.0625 C-17.36810547 12.02802734 -17.36810547 12.02802734 -15.89453125 10.97265625 C-11.7230786 8.12976342 -7.73872048 5.76009618 -3 4 C-3 3.34 -3 2.68 -3 2 C-4.65 2.33 -6.3 2.66 -8 3 C-8 3.66 -8 4.32 -8 5 C-9.32 4.67 -10.64 4.34 -12 4 C-10.75539217 3.32332002 -9.50403104 2.65905281 -8.25 2 C-7.55390625 1.62875 -6.8578125 1.2575 -6.140625 0.875 C-4 0 -4 0 0 0 Z " fill="#3A6BB5" transform="translate(380,249)"/>
<path d="M0 0 C1.63001953 0.01353516 1.63001953 0.01353516 3.29296875 0.02734375 C4.12441406 0.03894531 4.95585938 0.05054688 5.8125 0.0625 C5.8125 0.7225 5.8125 1.3825 5.8125 2.0625 C7.4625 2.7225 9.1125 3.3825 10.8125 4.0625 C10.8125 4.7225 10.8125 5.3825 10.8125 6.0625 C11.4725 6.0625 12.1325 6.0625 12.8125 6.0625 C14.06498502 8.56747004 13.92624406 10.27103274 13.91015625 13.0703125 C13.90693359 14.05644531 13.90371094 15.04257812 13.90039062 16.05859375 C13.89201172 17.09113281 13.88363281 18.12367188 13.875 19.1875 C13.87048828 20.22777344 13.86597656 21.26804687 13.86132812 22.33984375 C13.84951952 24.91411962 13.83305075 27.48828146 13.8125 30.0625 C13.1525 30.0625 12.4925 30.0625 11.8125 30.0625 C11.379375 31.17625 11.379375 31.17625 10.9375 32.3125 C9.98881737 34.63150199 8.94690221 36.83182676 7.8125 39.0625 C5.35409395 39.08941685 2.89598118 39.10929802 0.4375 39.125 C-0.26117187 39.13337891 -0.95984375 39.14175781 -1.6796875 39.15039062 C-6.9609375 39.17578125 -6.9609375 39.17578125 -9.1875 38.0625 C-9.1875 37.4025 -9.1875 36.7425 -9.1875 36.0625 C-9.8475 36.0625 -10.5075 36.0625 -11.1875 36.0625 C-14.7653858 30.48743456 -14.63899226 25.37259247 -14.5625 18.875 C-14.57410156 17.87791016 -14.58570313 16.88082031 -14.59765625 15.85351562 C-14.59378906 14.89767578 -14.58992187 13.94183594 -14.5859375 12.95703125 C-14.58255371 12.08925049 -14.57916992 11.22146973 -14.57568359 10.32739258 C-14.10794652 7.59833795 -13.24359562 6.83685371 -11.1875 5.0625 C-10.8575 4.36125 -10.5275 3.66 -10.1875 2.9375 C-8.13402638 -0.91276303 -3.85080536 -0.04140651 0 0 Z " fill="#A99178" transform="translate(820.1875,327.9375)"/>
<path d="M0 0 C0 0.66 0 1.32 0 2 C0.5775 2.061875 1.155 2.12375 1.75 2.1875 C5.17725083 3.42511835 6.11893212 4.8557618 8 8 C8.51837142 11.69874134 8.4217552 15.33568383 8.3125 19.0625 C8.30283203 20.05572266 8.29316406 21.04894531 8.28320312 22.07226562 C8.21912217 26.20966638 8.14990298 30.00398589 7 34 C6.34 34 5.68 34 5 34 C4.67 34.99 4.34 35.98 4 37 C-0.86853796 40.24569197 -6.31250503 39.72074905 -12 39 C-15.1875 36.625 -15.1875 36.625 -17 34 C-17.66 33.34 -18.32 32.68 -19 32 C-19.25878906 29.84863281 -19.25878906 29.84863281 -19.265625 27.203125 C-19.26820313 26.2440625 -19.27078125 25.285 -19.2734375 24.296875 C-19.26570312 23.29140625 -19.25796875 22.2859375 -19.25 21.25 C-19.25773438 20.26 -19.26546875 19.27 -19.2734375 18.25 C-19.2598186 13.15653071 -19.18760364 8.70597896 -17 4 C-11.91579586 -0.95383993 -6.65949844 -0.42658709 0 0 Z " fill="#D1C8B4" transform="translate(555,328)"/>
<path d="M0 0 C16 0 16 0 22 5 C22.5859375 7.89453125 22.5859375 7.89453125 22.375 10.8125 C22.32085938 11.78832031 22.26671875 12.76414062 22.2109375 13.76953125 C22.14132812 14.50558594 22.07171875 15.24164063 22 16 C21.01 16.33 20.02 16.66 19 17 C19 17.99 19 18.98 19 20 C19.99 20.33 20.98 20.66 22 21 C23.29721449 24.89164348 23.13033993 27.89429226 23 32 C22.67 32.66 22.34 33.32 22 34 C21.34 34 20.68 34 20 34 C20 34.66 20 35.32 20 36 C16 38 16 38 0 38 C0 25.46 0 12.92 0 0 Z " fill="#BBAFA3" transform="translate(846,328)"/>
<path d="M0 0 C1.65 0 3.3 0 5 0 C6.1577254 3.49617737 7.29897379 6.99752798 8.4375 10.5 C8.92573242 11.97339844 8.92573242 11.97339844 9.42382812 13.4765625 C11.21657329 19.02113518 12.5088912 24.18969875 13 30 C13.66 30 14.32 30 15 30 C15.33 32.64 15.66 35.28 16 38 C14.35 38 12.7 38 11 38 C10.67 35.36 10.34 32.72 10 30 C5.05 30 0.1 30 -5 30 C-5 31.98 -5 33.96 -5 36 C-5.66 36 -6.32 36 -7 36 C-7.33 36.99 -7.66 37.98 -8 39 C-9.65 39 -11.3 39 -13 39 C-11.76123355 33.30694567 -10.43723997 27.64629987 -9 22 C-8.34 22 -7.68 22 -7 22 C-6.67 19.36 -6.34 16.72 -6 14 C-5.34 14 -4.68 14 -4 14 C-3.8453125 12.205625 -3.8453125 12.205625 -3.6875 10.375 C-3.21108648 6.4375824 -1.98869284 3.45859625 0 0 Z " fill="#AFB6AF" transform="translate(585,328)"/>
<path d="M0 0 C1.65 0 3.3 0 5 0 C5.56267578 1.06927734 5.56267578 1.06927734 6.13671875 2.16015625 C9.58604479 8.65027082 9.58604479 8.65027082 13.75 14.6875 C16.42701871 18.23390421 17.16387883 21.66737209 18 26 C18.99 26 19.98 26 21 26 C21 17.42 21 8.84 21 0 C22.32 0 23.64 0 25 0 C25 12.54 25 25.08 25 38 C23.68 38 22.36 38 21 38 C19.70727539 36.58227539 19.70727539 36.58227539 18.59765625 34.59765625 C18.18193359 33.87126953 17.76621094 33.14488281 17.33789062 32.39648438 C16.70657227 31.24116211 16.70657227 31.24116211 16.0625 30.0625 C15.64548828 29.32708984 15.22847656 28.59167969 14.79882812 27.83398438 C13.51642408 25.56450581 12.25750868 23.2833767 11 21 C9.35 18.03 7.7 15.06 6 12 C5.67 20.91 5.34 29.82 5 39 C3.35 39 1.7 39 0 39 C0 26.13 0 13.26 0 0 Z " fill="#AAA19A" transform="translate(735,328)"/>
<path d="M0 0 C0.7528125 -0.00128906 1.505625 -0.00257813 2.28125 -0.00390625 C5.59194964 0.84125475 6.60035595 1.67452763 8.5 4.5625 C8.98926245 8.15819679 8.8753292 11.69241412 8.75 15.3125 C8.73195313 16.29605469 8.71390625 17.27960938 8.6953125 18.29296875 C8.64824126 20.71713783 8.58250742 23.13932059 8.5 25.5625 C7.84 25.5625 7.18 25.5625 6.5 25.5625 C6.17 26.8825 5.84 28.2025 5.5 29.5625 C4.1081797 29.72624356 2.71064132 29.84170565 1.3125 29.9375 C0.53519531 30.00710938 -0.24210938 30.07671875 -1.04296875 30.1484375 C-4.12139289 29.4143141 -5.62466537 27.95274156 -7.51635742 25.45214844 C-9.354709 21.92054228 -9.18090529 18.40097433 -9.0625 14.5 C-9.07345703 13.71044922 -9.08441406 12.92089844 -9.09570312 12.10742188 C-9.04644301 8.18960059 -8.74640507 5.98726064 -6.74609375 2.5390625 C-4.24285654 0.33621376 -3.28191956 -0.09553533 0 0 Z " fill="#282A2D" transform="translate(549.5,332.4375)"/>
<path d="M0 0 C7.26 0 14.52 0 22 0 C21.67 1.65 21.34 3.3 21 5 C15.72 5 10.44 5 5 5 C5 8.63 5 12.26 5 16 C9.62 16 14.24 16 19 16 C19 17.65 19 19.3 19 21 C14.38 21 9.76 21 5 21 C5 25.29 5 29.58 5 34 C10.94 34 16.88 34 23 34 C23 35.65 23 37.3 23 39 C15.41 39 7.82 39 0 39 C0 26.13 0 13.26 0 0 Z " fill="#C6B59E" transform="translate(951,328)"/>
<path d="M0 0 C0.80050781 0.05800781 1.60101562 0.11601562 2.42578125 0.17578125 C3.23402344 0.22089844 4.04226563 0.26601563 4.875 0.3125 C5.48988281 0.37050781 6.10476563 0.42851562 6.73828125 0.48828125 C6.73828125 1.14828125 6.73828125 1.80828125 6.73828125 2.48828125 C7.39828125 2.48828125 8.05828125 2.48828125 8.73828125 2.48828125 C10.51497348 5.54984779 10.97878943 7.7286434 10.93359375 11.25390625 C10.92714844 12.14335937 10.92070313 13.0328125 10.9140625 13.94921875 C10.89730469 14.86960937 10.88054688 15.79 10.86328125 16.73828125 C10.85425781 17.67414063 10.84523438 18.61 10.8359375 19.57421875 C10.81241761 21.87916782 10.77954978 24.18359285 10.73828125 26.48828125 C10.07828125 26.48828125 9.41828125 26.48828125 8.73828125 26.48828125 C8.07828125 27.80828125 7.41828125 29.12828125 6.73828125 30.48828125 C-0.47246255 30.9689975 -0.47246255 30.9689975 -3.5 29.125 C-6.26837305 24.98164788 -5.80205501 20.91725844 -5.69921875 16.05078125 C-5.70630859 15.10912109 -5.71339844 14.16746094 -5.72070312 13.19726562 C-5.61074013 1.21129968 -5.61074013 1.21129968 0 0 Z " fill="#242B2F" transform="translate(817.26171875,331.51171875)"/>
<path d="M0 0 C3.96 0 7.92 0 12 0 C12 0.66 12 1.32 12 2 C13.32 2 14.64 2 16 2 C15.67 3.32 15.34 4.64 15 6 C10.38 6 5.76 6 1 6 C1 8.97 1 11.94 1 15 C1.69480469 15.11214844 2.38960937 15.22429687 3.10546875 15.33984375 C6.37032964 16.08446115 9.23600205 17.24400088 12.3125 18.5625 C13.91544922 19.24505859 13.91544922 19.24505859 15.55078125 19.94140625 C16.35902344 20.29074219 17.16726563 20.64007813 18 21 C18.19601608 22.74906659 18.38147403 24.49931846 18.5625 26.25 C18.66691406 27.22453125 18.77132812 28.1990625 18.87890625 29.203125 C18.99133925 31.79996463 19.00376885 33.608507 18 36 C16.515 36.495 16.515 36.495 15 37 C14.67 37.66 14.34 38.32 14 39 C8.72 39 3.44 39 -2 39 C-2 38.34 -2 37.68 -2 37 C-2.99 36.67 -3.98 36.34 -5 36 C-4.67 35.01 -4.34 34.02 -4 33 C-2.53626953 33.01740234 -2.53626953 33.01740234 -1.04296875 33.03515625 C0.22933594 33.04417969 1.50164063 33.05320312 2.8125 33.0625 C4.70935547 33.07990234 4.70935547 33.07990234 6.64453125 33.09765625 C9.99605237 33.16159116 9.99605237 33.16159116 13 32 C12.896875 30.72125 12.79375 29.4425 12.6875 28.125 C12.62949219 27.40570313 12.57148437 26.68640625 12.51171875 25.9453125 C12.12606964 23.60480784 12.12606964 23.60480784 9 22 C7.38043435 21.75294761 5.75410763 21.54830932 4.125 21.375 C1.10760477 20.81916404 -0.53732721 20.44424777 -2.765625 18.3046875 C-5.41324814 14.30282033 -6.88449396 10.86471679 -6 6 C-4.6875 3.625 -4.6875 3.625 -3 2 C-2.01 2 -1.02 2 0 2 C0 1.34 0 0.68 0 0 Z " fill="#D4C8B4" transform="translate(668,328)"/>
<path d="M0 0 C1.74216797 0.05414063 1.74216797 0.05414063 3.51953125 0.109375 C4.39996094 0.15578125 5.28039062 0.2021875 6.1875 0.25 C6.1875 0.91 6.1875 1.57 6.1875 2.25 C7.1775 2.25 8.1675 2.25 9.1875 2.25 C9.1875 3.57 9.1875 4.89 9.1875 6.25 C4.5675 6.25 -0.0525 6.25 -4.8125 6.25 C-6.32715024 11.71084261 -6.32715024 11.71084261 -4.8125 14.25 C-2.4984378 14.98075648 -0.16421131 15.65138258 2.1875 16.25 C2.1875 16.91 2.1875 17.57 2.1875 18.25 C3.54875 18.3428125 3.54875 18.3428125 4.9375 18.4375 C8.1875 19.25 8.1875 19.25 10.5625 21.1875 C12.87083205 25.53781809 12.52488865 29.4234679 12.1875 34.25 C11.5275 34.25 10.8675 34.25 10.1875 34.25 C9.5275 35.57 8.8675 36.89 8.1875 38.25 C5.60388482 38.30407567 3.02140745 38.343707 0.4375 38.375 C-0.29210937 38.39175781 -1.02171875 38.40851563 -1.7734375 38.42578125 C-5.6169624 38.46072239 -8.55856772 38.42499684 -11.8125 36.25 C-11.4825 34.93 -11.1525 33.61 -10.8125 32.25 C-9.14638095 32.207279 -7.47867115 32.20936168 -5.8125 32.25 C-5.4825 32.58 -5.1525 32.91 -4.8125 33.25 C-3.12641034 33.32205511 -1.43749341 33.33386068 0.25 33.3125 C1.16910156 33.30347656 2.08820312 33.29445313 3.03515625 33.28515625 C3.74542969 33.27355469 4.45570313 33.26195312 5.1875 33.25 C6.33102916 30.96294169 6.29084439 29.65735238 6.25 27.125 C6.229375 25.84625 6.20875 24.5675 6.1875 23.25 C5.53523437 23.07984375 4.88296875 22.9096875 4.2109375 22.734375 C-1.14469444 21.24933252 -5.48160588 19.78309784 -9.8125 16.25 C-9.8125 15.59 -9.8125 14.93 -9.8125 14.25 C-10.4725 14.25 -11.1325 14.25 -11.8125 14.25 C-11.9482675 12.66906283 -12.04484745 11.08473048 -12.125 9.5 C-12.18300781 8.61828125 -12.24101563 7.7365625 -12.30078125 6.828125 C-11.8125 4.25 -11.8125 4.25 -9.71875 1.9375 C-6.18832994 -0.11242132 -4.0500236 -0.16363732 0 0 Z " fill="#CEC0AB" transform="translate(621.8125,327.75)"/>
<path d="M0 0 C7.26 0 14.52 0 22 0 C22 1.65 22 3.3 22 5 C16.39 5 10.78 5 5 5 C5 8.63 5 12.26 5 16 C9.29 16 13.58 16 18 16 C18 17.65 18 19.3 18 21 C13.71 21 9.42 21 5 21 C5 26.61 5 32.22 5 38 C3.35 38 1.7 38 0 38 C0 25.46 0 12.92 0 0 Z " fill="#BAB2A1" transform="translate(774,328)"/>
<path d="M0 0 C8.91 0 17.82 0 27 0 C27 1.65 27 3.3 27 5 C23.7 5 20.4 5 17 5 C17 16.22 17 27.44 17 39 C15.02 39 13.04 39 11 39 C11 27.78 11 16.56 11 5 C7.37 5 3.74 5 0 5 C0 3.35 0 1.7 0 0 Z " fill="#B5B7A8" transform="translate(913,328)"/>
<path d="M0 0 C1.98 0 3.96 0 6 0 C6.98414433 1.91411557 7.96213349 3.8313967 8.9375 5.75 C9.48277344 6.81734375 10.02804687 7.8846875 10.58984375 8.984375 C12 12 12 12 12.56640625 14.328125 C12.70949219 14.87984375 12.85257813 15.4315625 13 16 C13.66 16.33 14.32 16.66 15 17 C15.17015625 16.27554687 15.3403125 15.55109375 15.515625 14.8046875 C18.22680626 3.98880481 18.22680626 3.98880481 22 0 C25.25 -0.375 25.25 -0.375 28 0 C27.42975551 3.64572039 26.4583148 6.28155904 24.5625 9.4375 C22.57069601 12.87998204 21.08558412 16.15111084 20 20 C19.34 20 18.68 20 18 20 C18 20.66 18 21.32 18 22 C17.34 22 16.68 22 16 22 C16 27.28 16 32.56 16 38 C14.68 38 13.36 38 12 38 C12 32.72 12 27.44 12 22 C11.34 22 10.68 22 10 22 C7.46690767 17.35796103 5.53484401 13.34844008 5 8 C4.34 8 3.68 8 3 8 C0 2.25 0 2.25 0 0 Z " fill="#D8D2BC" transform="translate(878,328)"/>
<path d="M0 0 C16 0 16 0 20 3 C20.390625 5.26171875 20.390625 5.26171875 20.25 7.6875 C20.21390625 8.49574219 20.1778125 9.30398438 20.140625 10.13671875 C20.07101562 11.05904297 20.07101562 11.05904297 20 12 C19.01 12.495 19.01 12.495 18 13 C17.71125 11.865625 17.4225 10.73125 17.125 9.5625 C16.75375 8.386875 16.3825 7.21125 16 6 C13.56612247 4.78306124 11.58161154 4.68040104 8.875 4.4375 C7.96492187 4.35371094 7.05484375 4.26992188 6.1171875 4.18359375 C5.41851563 4.12300781 4.71984375 4.06242187 4 4 C4.01160156 4.89203125 4.02320313 5.7840625 4.03515625 6.703125 C4.04869141 8.45882813 4.04869141 8.45882813 4.0625 10.25 C4.07410156 11.41015625 4.08570313 12.5703125 4.09765625 13.765625 C4 17 4 17 3.46875 19 C2.77117679 21.97631235 3.1646625 24.71847227 3.4375 27.75 C3.53933594 28.92046875 3.64117188 30.0909375 3.74609375 31.296875 C3.82988281 32.18890625 3.91367187 33.0809375 4 34 C7.96 34.33 11.92 34.66 16 35 C16 35.99 16 36.98 16 38 C10.72 38 5.44 38 0 38 C0 25.46 0 12.92 0 0 Z " fill="#CFCBB8" transform="translate(846,328)"/>
<path d="M0 0 C0 0.66 0 1.32 0 2 C-1.44113842 3.07385044 -2.93221033 4.08059485 -4.4375 5.0625 C-21.65608583 17.33603272 -34.74038661 33.08166377 -42 53 C-39.14748392 50.2339238 -36.49245827 47.41840618 -33.9375 44.375 C-30.75917787 40.71362891 -27.35535716 37.36515435 -23.8125 34.0625 C-23.30130615 33.57765137 -22.7901123 33.09280273 -22.26342773 32.59326172 C-19.63956568 30.18594654 -17.61302276 28.4052794 -14 28 C-14 28.66 -14 29.32 -14 30 C-15.32 30.33 -16.64 30.66 -18 31 C-18 31.66 -18 32.32 -18 33 C-19.65234375 34.375 -19.65234375 34.375 -21.9375 36 C-30.06275985 42.14504715 -38.38993315 50.77986631 -43 60 C-43.66 60 -44.32 60 -45 60 C-43.8591078 47.67836424 -39.89621239 39.58084451 -32.33203125 29.85546875 C-30.88795438 28.02730403 -30.88795438 28.02730403 -30.1875 25.6875 C-27.62702504 19.89274088 -23.47862566 16.04368092 -18 13 C-17.34 12.01 -16.68 11.02 -16 10 C-15.34 10 -14.68 10 -14 10 C-14 9.34 -14 8.68 -14 8 C-13.34 8 -12.68 8 -12 8 C-12 7.34 -12 6.68 -12 6 C-6.25 3 -6.25 3 -4 3 C-4 2.34 -4 1.68 -4 1 C-2 0 -2 0 0 0 Z " fill="#345F95" transform="translate(362,238)"/>
<path d="M0 0 C1.65 0 3.3 0 5 0 C5 12.87 5 25.74 5 39 C3.35 39 1.7 39 0 39 C0 26.13 0 13.26 0 0 Z " fill="#BBBAAA" transform="translate(717,328)"/>
<path d="M0 0 C7.26 0 14.52 0 22 0 C21.67 1.32 21.34 2.64 21 4 C21 3.01 21 2.02 21 1 C14.4 1 7.8 1 1 1 C1.33 7.27 1.66 13.54 2 20 C2.33 20 2.66 20 3 20 C3 24.62 3 29.24 3 34 C9.6 34 16.2 34 23 34 C23 35.65 23 37.3 23 39 C15.41 39 7.82 39 0 39 C0 26.13 0 13.26 0 0 Z " fill="#ABADA5" transform="translate(951,328)"/>
<path d="M0 0 C1.5675 -0.04125 3.135 -0.0825 4.75 -0.125 C5.63171875 -0.14820313 6.5134375 -0.17140625 7.421875 -0.1953125 C10.1135858 0.00860498 11.69904974 0.63448279 14 2 C14.36618557 9.4457732 14.36618557 9.4457732 12.84375 11.75 C9.13932061 14.26147756 4.2876856 13.15133008 0 13 C0 8.71 0 4.42 0 0 Z " fill="#2F2F34" transform="translate(850,349)"/>
<path d="M0 0 C0 0.66 0 1.32 0 2 C0.5775 2.061875 1.155 2.12375 1.75 2.1875 C5.17725083 3.42511835 6.11893212 4.8557618 8 8 C8.51837142 11.69874134 8.4217552 15.33568383 8.3125 19.0625 C8.30283203 20.05572266 8.29316406 21.04894531 8.28320312 22.07226562 C8.21912217 26.20966638 8.14990298 30.00398589 7 34 C6.34 34 5.68 34 5 34 C5.16242187 33.00226563 5.32484375 32.00453125 5.4921875 30.9765625 C6.0445102 27.09859355 6.13298257 23.29444159 6.125 19.375 C6.12757813 18.10398437 6.13015625 16.83296875 6.1328125 15.5234375 C6.01950849 12.51754871 5.8463461 9.88186205 5 7 C4.34 6.67 3.68 6.34 3 6 C2.67 6.99 2.34 7.98 2 9 C1.67 8.01 1.34 7.02 1 6 C-0.77049689 5.94589313 -2.54146849 5.90715881 -4.3125 5.875 C-5.29863281 5.85179687 -6.28476562 5.82859375 -7.30078125 5.8046875 C-10.22406527 5.79317361 -10.22406527 5.79317361 -13 8 C-13 7.01 -13 6.02 -13 5 C-13.99 5 -14.98 5 -16 5 C-15.979375 5.804375 -15.95875 6.60875 -15.9375 7.4375 C-16 10 -16 10 -17 11 C-17.08700342 12.63472882 -17.10701063 14.27314055 -17.09765625 15.91015625 C-17.09443359 16.89951172 -17.09121094 17.88886719 -17.08789062 18.90820312 C-17.07951172 19.94912109 -17.07113281 20.99003906 -17.0625 22.0625 C-17.05798828 23.10728516 -17.05347656 24.15207031 -17.04882812 25.22851562 C-17.03699913 27.8190666 -17.02051689 30.40950559 -17 33 C-17.66 32.67 -18.32 32.34 -19 32 C-19.05841253 28.45840343 -19.09373452 24.91693207 -19.125 21.375 C-19.14175781 20.37597656 -19.15851562 19.37695312 -19.17578125 18.34765625 C-19.20982726 13.20670915 -19.23046471 8.7502047 -17 4 C-11.91579586 -0.95383993 -6.65949844 -0.42658709 0 0 Z " fill="#CDB495" transform="translate(555,328)"/>
<path d="M0 0 C0.66 0.33 1.32 0.66 2 1 C2 1.66 2 2.32 2 3 C2.66 3 3.32 3 4 3 C4.50286934 4.9575985 5.0022099 6.91610377 5.5 8.875 C5.7784375 9.96554687 6.056875 11.05609375 6.34375 12.1796875 C7 15 7 15 7 17 C7.66 17 8.32 17 9 17 C9.33 19.64 9.66 22.28 10 25 C8.35 25 6.7 25 5 25 C4.34 22.36 3.68 19.72 3 17 C-1.95 16.67 -6.9 16.34 -12 16 C-12 16.99 -12 17.98 -12 19 C-12.99 19 -13.98 19 -15 19 C-14.34 16.36 -13.68 13.72 -13 11 C-12.01 11.33 -11.02 11.66 -10 12 C-8.10529184 12.0685495 -6.2083166 12.08480372 -4.3125 12.0625 C-2.559375 12.041875 -0.80625 12.02125 1 12 C0.67 8.04 0.34 4.08 0 0 Z " fill="#DBCEBA" transform="translate(591,341)"/>
<path d="M0 0 C1.98 0 3.96 0 6 0 C6.98414433 1.91411557 7.96213349 3.8313967 8.9375 5.75 C9.48277344 6.81734375 10.02804687 7.8846875 10.58984375 8.984375 C12 12 12 12 12.56640625 14.328125 C12.70949219 14.87984375 12.85257813 15.4315625 13 16 C13.66 16.33 14.32 16.66 15 17 C15.17015625 16.27554687 15.3403125 15.55109375 15.515625 14.8046875 C18.22680626 3.98880481 18.22680626 3.98880481 22 0 C25.25 -0.375 25.25 -0.375 28 0 C27.625 2.4375 27.625 2.4375 27 5 C26.01 5.495 26.01 5.495 25 6 C25.33 4.35 25.66 2.7 26 1 C25.01 1 24.02 1 23 1 C23 1.66 23 2.32 23 3 C22.34 3 21.68 3 21 3 C20.86722656 3.54140625 20.73445312 4.0828125 20.59765625 4.640625 C19.91051995 7.3532415 19.17649541 10.05106023 18.4375 12.75 C18.16808594 13.73484375 17.89867187 14.7196875 17.62109375 15.734375 C17.41613281 16.48203125 17.21117187 17.2296875 17 18 C13.25 19.125 13.25 19.125 11 18 C10.67 19.32 10.34 20.64 10 22 C7.46690767 17.35796103 5.53484401 13.34844008 5 8 C4.34 8 3.68 8 3 8 C0 2.25 0 2.25 0 0 Z " fill="#A6A196" transform="translate(878,328)"/>
<path d="M0 0 C1.32 0 2.64 0 4 0 C4 12.54 4 25.08 4 38 C2.68 38 1.36 38 0 38 C0 25.46 0 12.92 0 0 Z " fill="#CBCBBE" transform="translate(646,328)"/>
<path d="M0 0 C1.32 0.33 2.64 0.66 4 1 C4.19601608 2.74906659 4.38147403 4.49931846 4.5625 6.25 C4.66691406 7.22453125 4.77132812 8.1990625 4.87890625 9.203125 C4.99133925 11.79996463 5.00376885 13.608507 4 16 C3.01 16.33 2.02 16.66 1 17 C0.67 17.66 0.34 18.32 0 19 C-5.28 19 -10.56 19 -16 19 C-16 18.34 -16 17.68 -16 17 C-16.99 16.67 -17.98 16.34 -19 16 C-18.67 15.01 -18.34 14.02 -18 13 C-16.53626953 13.01740234 -16.53626953 13.01740234 -15.04296875 13.03515625 C-13.77066406 13.04417969 -12.49835937 13.05320312 -11.1875 13.0625 C-9.29064453 13.07990234 -9.29064453 13.07990234 -7.35546875 13.09765625 C-4.00394763 13.16159116 -4.00394763 13.16159116 -1 12 C-1 9.69 -1 7.38 -1 5 C-0.34 5.33 0.32 5.66 1 6 C1.59355614 8.64860427 1.74209269 11.29197322 2 14 C2.05437607 12.41705218 2.09296271 10.83355744 2.125 9.25 C2.14820313 8.36828125 2.17140625 7.4865625 2.1953125 6.578125 C1.99139502 3.8864142 1.36551721 2.30095026 0 0 Z " fill="#A29383" transform="translate(682,348)"/>
<path d="M0 0 C0.57421875 1.91796875 0.57421875 1.91796875 1 4 C-0.1875 5.3125 -0.1875 5.3125 -2 7 C-2.98213784 8.66963434 -3.96019232 10.34221709 -4.89453125 12.0390625 C-6.41133765 14.72965194 -8.08044979 17.31492705 -9.75390625 19.91015625 C-15.52231161 29.58444111 -17.04959759 39.66689131 -14.703125 50.6953125 C-14.01241647 52.95930159 -13.1289515 54.92387733 -12 57 C-11.80664062 56.28972656 -11.61328125 55.57945312 -11.4140625 54.84765625 C-11.15367187 53.92855469 -10.89328125 53.00945312 -10.625 52.0625 C-10.36976563 51.14597656 -10.11453125 50.22945313 -9.8515625 49.28515625 C-9 47 -9 47 -7 46 C-7.51405169 50.96916636 -8.23384882 55.29026351 -10 60 C-10.99 60 -11.98 60 -13 60 C-13.65357278 58.77493102 -14.29748233 57.54470484 -14.9375 56.3125 C-15.29714844 55.62800781 -15.65679687 54.94351563 -16.02734375 54.23828125 C-19.50857389 46.22725767 -19.44823199 34.74802397 -16.375 26.625 C-14.45591933 22.50583043 -12.02940849 18.78154073 -9.3671875 15.10546875 C-7.91049059 13.01459374 -7.91049059 13.01459374 -7.015625 10.5078125 C-5.94152597 7.85561413 -4.62961263 5.93798141 -2.875 3.6875 C-2.33617187 2.99011719 -1.79734375 2.29273438 -1.2421875 1.57421875 C-0.83226562 1.05472656 -0.42234375 0.53523438 0 0 Z " fill="#2A3E7E" transform="translate(345,318)"/>
<path d="M0 0 C2.475 0.495 2.475 0.495 5 1 C6.35439668 3.70879335 6.06501451 6.00933268 6 9 C5.01 9 4.02 9 3 9 C3 18.24 3 27.48 3 37 C2.01 37 1.02 37 0 37 C0 24.79 0 12.58 0 0 Z " fill="#DDD7BF" transform="translate(736,329)"/>
<path d="M0 0 C0.99 0 1.98 0 3 0 C3 12.21 3 24.42 3 37 C1.68 37 0.36 37 -1 37 C-2.76462683 33.91190305 -3 32.76687864 -3 29 C-2.34 29 -1.68 29 -1 29 C-0.67 19.43 -0.34 9.86 0 0 Z " fill="#E6DCB9" transform="translate(757,329)"/>
<path d="M0 0 C0.66 0.33 1.32 0.66 2 1 C-10.96896741 15.03700002 -24.43413253 28.54457609 -38 42 C-38.66 41.67 -39.32 41.34 -40 41 C-35.37427273 35.07864079 -30.8262491 29.60326562 -25.03125 24.80859375 C-22.65239729 22.69049989 -20.60141813 20.39288195 -18.5 18 C-15.16637141 14.21308973 -11.71546391 10.85550663 -7.86328125 7.60546875 C-5.08829013 5.21443866 -2.55707843 2.62100539 0 0 Z " fill="#213145" transform="translate(426,320)"/>
<path d="M0 0 C2.97 0 5.94 0 9 0 C9.33 0.99 9.66 1.98 10 3 C10.66 3 11.32 3 12 3 C12.1875 5.875 12.1875 5.875 12 9 C7.7975546 11.80163026 4.99895065 11.14489712 0 11 C0 7.37 0 3.74 0 0 Z " fill="#24282F" transform="translate(851,333)"/>
<path d="M0 0 C0.66 0.33 1.32 0.66 2 1 C-4.35498133 8.19257273 -10.92065142 15.13184512 -17.6875 21.9375 C-18.59822266 22.86884766 -19.50894531 23.80019531 -20.44726562 24.75976562 C-21.33478516 25.65244141 -22.22230469 26.54511719 -23.13671875 27.46484375 C-23.92780029 28.265271 -24.71888184 29.06569824 -25.53393555 29.89038086 C-28.19248255 32.16466109 -30.82098922 33.56551565 -34 35 C-32.72646966 31.8740619 -30.97477908 29.89483674 -28.58520508 27.55444336 C-26.72917571 25.73443119 -24.90208386 23.88735554 -23.07421875 22.0390625 C-21.6120367 20.56765116 -20.1497957 19.0962984 -18.6875 17.625 C-17.96626953 16.89539063 -17.24503906 16.16578125 -16.50195312 15.4140625 C-12.35004582 11.24353678 -8.11089525 7.25081039 -3.63989258 3.42333984 C-2.38201266 2.33156674 -1.17775855 1.17775855 0 0 Z " fill="#24374E" transform="translate(398,290)"/>
<path d="M0 0 C0.6875 1.75 0.6875 1.75 1 4 C-0.375 6.0625 -0.375 6.0625 -2 8 C-3.59354147 12.7806244 -3.70472913 17.13454054 -1.9375 21.8125 C0.72638733 24.82011473 3.23439645 25.65006665 7 27 C6.94199219 26.0821875 6.88398438 25.164375 6.82421875 24.21875 C6.53564826 16.36963267 6.73273834 11.05735091 12 5 C12.90635005 7.49673787 13.11143365 8.68081818 12.22265625 11.2265625 C11.64837891 12.41378906 11.64837891 12.41378906 11.0625 13.625 C8.78564684 18.88288772 8.56659135 23.34160932 9 29 C0.84989607 28.80843773 0.84989607 28.80843773 -2.5625 25.5625 C-4 23 -4 23 -4 21 C-4.66 21 -5.32 21 -6 21 C-6 17.04 -6 13.08 -6 9 C-5.34 9 -4.68 9 -4 9 C-3.71125 8.2575 -3.4225 7.515 -3.125 6.75 C-2.17697356 4.43260203 -1.15154089 2.22082885 0 0 Z " fill="#273570" transform="translate(391,387)"/>
<path d="M0 0 C1.74216797 0.05414063 1.74216797 0.05414063 3.51953125 0.109375 C4.39996094 0.15578125 5.28039062 0.2021875 6.1875 0.25 C6.1875 0.91 6.1875 1.57 6.1875 2.25 C7.1775 2.25 8.1675 2.25 9.1875 2.25 C9.1875 3.57 9.1875 4.89 9.1875 6.25 C7.72376953 6.23259766 7.72376953 6.23259766 6.23046875 6.21484375 C4.95816406 6.20582031 3.68585937 6.19679688 2.375 6.1875 C1.11042969 6.17589844 -0.15414062 6.16429687 -1.45703125 6.15234375 C-4.80855237 6.08840884 -4.80855237 6.08840884 -7.8125 7.25 C-8.4725 6.92 -9.1325 6.59 -9.8125 6.25 C-9.8125 8.89 -9.8125 11.53 -9.8125 14.25 C-10.4725 14.25 -11.1325 14.25 -11.8125 14.25 C-11.9482675 12.66906283 -12.04484745 11.08473048 -12.125 9.5 C-12.18300781 8.61828125 -12.24101563 7.7365625 -12.30078125 6.828125 C-11.8125 4.25 -11.8125 4.25 -9.71875 1.9375 C-6.18832994 -0.11242132 -4.0500236 -0.16363732 0 0 Z " fill="#B3AA9C" transform="translate(621.8125,327.75)"/>
<path d="M0 0 C6.6 0 13.2 0 20 0 C20 0.99 20 1.98 20 3 C14.06 3 8.12 3 2 3 C2.020625 4.711875 2.04125 6.42375 2.0625 8.1875 C2.07316156 17.80422583 1.51195981 27.39939195 1 37 C0.67 37 0.34 37 0 37 C0 24.79 0 12.58 0 0 Z " fill="#DED9C8" transform="translate(952,329)"/>
<path d="M0 0 C0.66 0 1.32 0 2 0 C3.57353271 2.17965631 5.0191628 4.34741167 6.4375 6.625 C6.83259766 7.24246094 7.22769531 7.85992187 7.63476562 8.49609375 C14 18.55761231 14 18.55761231 14 22 C12.68 22.33 11.36 22.66 10 23 C10 22.34 10 21.68 10 21 C9.27296875 21.12117188 8.5459375 21.24234375 7.796875 21.3671875 C5.67609712 21.72065048 3.55497628 22.07205927 1.43359375 22.421875 C-0.76435685 22.79195087 -2.96001872 23.17606291 -5.15234375 23.578125 C-11.21279196 24.67009765 -16.84189167 25.20527028 -23 25 C-23 25.66 -23 26.32 -23 27 C-25.97 27.33 -28.94 27.66 -32 28 C-32 27.34 -32 26.68 -32 26 C-14.85106383 22.42553191 -14.85106383 22.42553191 -6 23 C-6 22.34 -6 21.68 -6 21 C-0.61509359 20.08342019 4.54230189 19.88861841 10 20 C7.74760816 13.65355477 5.07550194 8.21277377 1.171875 2.71484375 C0 1 0 1 0 0 Z " fill="#335B92" transform="translate(482,262)"/>
<path d="M0 0 C0.99 0.495 0.99 0.495 2 1 C2 4.96 2 8.92 2 13 C6.29 13 10.58 13 15 13 C15 13.99 15 14.98 15 16 C10.71 16 6.42 16 2 16 C2 21.94 2 27.88 2 34 C1.34 34 0.68 34 0 34 C0 22.78 0 11.56 0 0 Z " fill="#E2D5BE" transform="translate(776,332)"/>
<path d="M0 0 C0.99 0.33 1.98 0.66 3 1 C3.99642964 5.16109016 4.16583096 9.10186473 4.1875 13.375 C4.20167969 14.64085937 4.21585938 15.90671875 4.23046875 17.2109375 C3.98584786 21.23267077 3.36128705 24.22660782 2 28 C1.34 28.33 0.68 28.66 0 29 C0 19.43 0 9.86 0 0 Z " fill="#C8CCBE" transform="translate(558,334)"/>
<path d="M0 0 C3.96 0 7.92 0 12 0 C12 0.66 12 1.32 12 2 C13.32 2 14.64 2 16 2 C15.67 3.32 15.34 4.64 15 6 C10.38 6 5.76 6 1 6 C0.67 7.98 0.34 9.96 0 12 C-0.66 12 -1.32 12 -2 12 C-1.67 9.36 -1.34 6.72 -1 4 C-1.99 3.67 -2.98 3.34 -4 3 C-2.68 2.67 -1.36 2.34 0 2 C0 1.34 0 0.68 0 0 Z " fill="#ADA18E" transform="translate(668,328)"/>
<path d="M0 0 C1.29721449 3.89164348 1.13033993 6.89429226 1 11 C0.67 11.66 0.34 12.32 0 13 C-0.66 13 -1.32 13 -2 13 C-2 13.66 -2 14.32 -2 15 C-3.32 15.33 -4.64 15.66 -6 16 C-6 15.34 -6 14.68 -6 14 C-9.96 14 -13.92 14 -18 14 C-18 13.67 -18 13.34 -18 13 C-16.84371094 12.92652344 -16.84371094 12.92652344 -15.6640625 12.8515625 C-14.66117188 12.77679688 -13.65828125 12.70203125 -12.625 12.625 C-11.62726562 12.55539062 -10.62953125 12.48578125 -9.6015625 12.4140625 C-6.84491121 12.23636036 -6.84491121 12.23636036 -5 10 C-4.64486621 8.09178939 -4.64486621 8.09178939 -4.6875 6 C-4.67074219 5.29875 -4.65398438 4.5975 -4.63671875 3.875 C-4.75660156 3.25625 -4.87648438 2.6375 -5 2 C-5.99 1.34 -6.98 0.68 -8 0 C-4.71303767 -0.79953138 -3.28976808 -1.09658936 0 0 Z " fill="#D5C6AE" transform="translate(868,349)"/>
<path d="M0 0 C0.33 0 0.66 0 1 0 C1.66 10.89 2.32 21.78 3 33 C6.96 33.33 10.92 33.66 15 34 C15 34.99 15 35.98 15 37 C10.05 37 5.1 37 0 37 C0 24.79 0 12.58 0 0 Z " fill="#E1DAC6" transform="translate(847,329)"/>
<path d="M0 0 C0.99 0 1.98 0 3 0 C1.91081033 6.86476118 0.09761199 12.77470211 -3 19 C-3.66 19 -4.32 19 -5 19 C-5.33 19.66 -5.66 20.32 -6 21 C-6.24372825 14.05374496 -5.46517399 8.1878107 -2 2 C-1.34 2 -0.68 2 0 2 C0 1.34 0 0.68 0 0 Z " fill="#C7C6B8" transform="translate(901,329)"/>
<path d="M0 0 C0.66 0 1.32 0 2 0 C4.03993514 4.92984325 5.40652968 8.57960425 5 14 C2.36 14 -0.28 14 -3 14 C-2.48594831 9.03083364 -1.76615118 4.70973649 0 0 Z " fill="#2E333B" transform="translate(586,338)"/>
<path d="M0 0 C0.66 0 1.32 0 2 0 C1.67 4.95 1.34 9.9 1 15 C1.99 15 2.98 15 4 15 C4.1546875 13.6078125 4.1546875 13.6078125 4.3125 12.1875 C5.0070192 8.96745642 5.47740939 7.97420135 8 6 C7.32829194 9.8063457 6.27253436 13.35206816 5 17 C4.34 17 3.68 17 3 17 C2.67 18.65 2.34 20.3 2 22 C1.01 22.33 0.02 22.66 -1 23 C-1.02714434 20.2915983 -1.04690846 17.58347279 -1.0625 14.875 C-1.07087891 14.11445313 -1.07925781 13.35390625 -1.08789062 12.5703125 C-1.10646509 8.2610356 -0.86117265 4.24483526 0 0 Z " fill="#2D478B" transform="translate(316,316)"/>
<path d="M0 0 C1.65 0 3.3 0 5 0 C5 3.96 5 7.92 5 12 C4.34 12 3.68 12 3 12 C3 11.34 3 10.68 3 10 C2.34 10 1.68 10 1 10 C0.67 11.98 0.34 13.96 0 16 C-0.66 16 -1.32 16 -2 16 C-2.33 16.66 -2.66 17.32 -3 18 C-2.32418477 11.91766294 -1.26361972 5.98685848 0 0 Z " fill="#CBBEA8" transform="translate(585,328)"/>
<path d="M0 0 C0.66 0.33 1.32 0.66 2 1 C1.52949219 1.37511719 1.05898438 1.75023437 0.57421875 2.13671875 C-0.04839844 2.64847656 -0.67101562 3.16023438 -1.3125 3.6875 C-1.92738281 4.18636719 -2.54226563 4.68523437 -3.17578125 5.19921875 C-5.10908431 6.95705679 -5.10908431 6.95705679 -6.41796875 9.375 C-8.27766244 12.46071398 -10.46025132 14.76141315 -13 17.3125 C-14.299375 18.63701172 -14.299375 18.63701172 -15.625 19.98828125 C-18 22 -18 22 -21 22 C-21.33 23.32 -21.66 24.64 -22 26 C-22.66 25.67 -23.32 25.34 -24 25 C-20.92495365 19.98966329 -17.31489725 16.04288765 -13.125 11.9375 C-12.52558594 11.33873047 -11.92617188 10.73996094 -11.30859375 10.12304688 C-7.68871456 6.53850273 -3.96072343 3.20370443 0 0 Z " fill="#23364D" transform="translate(364,276)"/>
<path d="M0 0 C0.66 0.33 1.32 0.66 2 1 C1.484375 1.495 0.96875 1.99 0.4375 2.5 C-1.56560744 4.55446917 -3.44064943 6.64132197 -5.3125 8.8125 C-14.84191212 19.74989806 -14.84191212 19.74989806 -21 23 C-21.99 23.66 -22.98 24.32 -24 25 C-22.64359783 21.96853036 -21.12164566 19.8743218 -18.76953125 17.5390625 C-18.13080078 16.90226562 -17.49207031 16.26546875 -16.83398438 15.609375 C-16.16689453 14.95453125 -15.49980469 14.2996875 -14.8125 13.625 C-14.16474609 12.97789062 -13.51699219 12.33078125 -12.84960938 11.6640625 C-8.7209984 7.57257191 -4.45520706 3.73289723 0 0 Z " fill="#31588F" transform="translate(354,268)"/>
<path d="M0 0 C0 0.33 0 0.66 0 1 C-3.3 1 -6.6 1 -10 1 C-10 1.66 -10 2.32 -10 3 C-7.03 3.33 -4.06 3.66 -1 4 C-1 4.33 -1 4.66 -1 5 C-1.92232422 5.07347656 -1.92232422 5.07347656 -2.86328125 5.1484375 C-3.67152344 5.22320312 -4.47976563 5.29796875 -5.3125 5.375 C-6.11300781 5.44460938 -6.91351562 5.51421875 -7.73828125 5.5859375 C-10.27224441 5.89564426 -10.27224441 5.89564426 -13 8 C-13 7.01 -13 6.02 -13 5 C-13.99 5 -14.98 5 -16 5 C-15.979375 5.804375 -15.95875 6.60875 -15.9375 7.4375 C-16 10 -16 10 -17 11 C-17.08700342 12.63472882 -17.10701063 14.27314055 -17.09765625 15.91015625 C-17.09443359 16.89951172 -17.09121094 17.88886719 -17.08789062 18.90820312 C-17.07951172 19.94912109 -17.07113281 20.99003906 -17.0625 22.0625 C-17.05798828 23.10728516 -17.05347656 24.15207031 -17.04882812 25.22851562 C-17.03699913 27.8190666 -17.02051689 30.40950559 -17 33 C-17.66 32.67 -18.32 32.34 -19 32 C-19.05841253 28.45840343 -19.09373452 24.91693207 -19.125 21.375 C-19.14175781 20.37597656 -19.15851562 19.37695312 -19.17578125 18.34765625 C-19.20982726 13.20670915 -19.23046471 8.7502047 -17 4 C-11.91579586 -0.95383993 -6.65949844 -0.42658709 0 0 Z " fill="#8E989D" transform="translate(555,328)"/>
<path d="M0 0 C0.309375 0.639375 0.61875 1.27875 0.9375 1.9375 C1.8345163 3.93610821 1.8345163 3.93610821 3 5 C4.13762114 12.46767021 4.21883058 19.94375253 4.24023438 27.48413086 C4.24999805 29.56208487 4.2811418 31.63907115 4.3125 33.71679688 C4.36691126 40.76273923 4.13138646 46.59713873 1 53 C-0.04281629 49.78525852 0.10078923 47.75873096 0.921875 44.50390625 C2.20406133 38.61642609 2.29553391 32.94418188 2.25 26.9375 C2.25773437 25.91333984 2.26546875 24.88917969 2.2734375 23.83398438 C2.25929232 18.29968183 1.86113715 13.25455769 0.44091797 7.89697266 C-0.17462168 5.24872066 -0.13861137 2.70292169 0 0 Z " fill="#243656" transform="translate(500,294)"/>
<path d="M0 0 C1.32 0.33 2.64 0.66 4 1 C3.01 1 2.02 1 1 1 C1.00523682 1.77190674 1.01047363 2.54381348 1.01586914 3.33911133 C1.03663242 6.83023263 1.04965811 10.32134095 1.0625 13.8125 C1.07087891 15.02744141 1.07925781 16.24238281 1.08789062 17.49414062 C1.09111328 18.65751953 1.09433594 19.82089844 1.09765625 21.01953125 C1.10289307 22.09307861 1.10812988 23.16662598 1.11352539 24.27270508 C1 27 1 27 0 30 C-0.66 30 -1.32 30 -2 30 C-2.33 30.99 -2.66 31.98 -3 33 C-3.83848804 31.54462432 -4.67063934 30.08559627 -5.5 28.625 C-5.9640625 27.81289063 -6.428125 27.00078125 -6.90625 26.1640625 C-8 24 -8 24 -8 22 C-6.68 22 -5.36 22 -4 22 C-3.67 23.32 -3.34 24.64 -3 26 C-2.01 26 -1.02 26 0 26 C0 17.42 0 8.84 0 0 Z " fill="#B3B8B3" transform="translate(756,328)"/>
<path d="M0 0 C0.66 0 1.32 0 2 0 C2 7.59 2 15.18 2 23 C2.99 23.33 3.98 23.66 5 24 C4.34 24.99 3.68 25.98 3 27 C3 26.34 3 25.68 3 25 C2.01 24.67 1.02 24.34 0 24 C-0.95256076 19.19183617 -1.15179186 14.62611883 -1.125 9.75 C-1.12886719 9.03070313 -1.13273438 8.31140625 -1.13671875 7.5703125 C-1.12676222 2.25352444 -1.12676222 2.25352444 0 0 Z " fill="#D1D2C6" transform="translate(808,336)"/>
<path d="M0 0 C0.99 0.33 1.98 0.66 3 1 C3 8.26 3 15.52 3 23 C2.34 23 1.68 23 1 23 C0.67 23.99 0.34 24.98 0 26 C0 17.42 0 8.84 0 0 Z " fill="#DAD6C3" transform="translate(829,335)"/>
<path d="M0 0 C1.63001953 0.01353516 1.63001953 0.01353516 3.29296875 0.02734375 C4.12441406 0.03894531 4.95585938 0.05054688 5.8125 0.0625 C5.8125 0.3925 5.8125 0.7225 5.8125 1.0625 C5.05324219 1.12308594 4.29398438 1.18367188 3.51171875 1.24609375 C2.51785156 1.32988281 1.52398438 1.41367187 0.5 1.5 C-0.48613281 1.58121094 -1.47226562 1.66242188 -2.48828125 1.74609375 C-5.28125599 1.98062559 -5.28125599 1.98062559 -8.1875 3.0625 C-7.5275 3.3925 -6.8675 3.7225 -6.1875 4.0625 C-7.9375 7.9375 -7.9375 7.9375 -10.1875 9.0625 C-10.8475 8.7325 -11.5075 8.4025 -12.1875 8.0625 C-12.1875 15.9825 -12.1875 23.9025 -12.1875 32.0625 C-15.17398563 29.07601437 -14.47999394 26.29702507 -14.50976562 22.21289062 C-14.50654297 21.19388672 -14.50332031 20.17488281 -14.5 19.125 C-14.51611328 18.10986328 -14.53222656 17.09472656 -14.54882812 16.04882812 C-14.54947266 15.07494141 -14.55011719 14.10105469 -14.55078125 13.09765625 C-14.55376221 12.2044165 -14.55674316 11.31117676 -14.55981445 10.39086914 C-14.11414548 7.60375768 -13.28835412 6.86090041 -11.1875 5.0625 C-10.8575 4.36125 -10.5275 3.66 -10.1875 2.9375 C-8.13402638 -0.91276303 -3.85080536 -0.04140651 0 0 Z " fill="#859AA0" transform="translate(820.1875,327.9375)"/>
<path d="M0 0 C0.33 0.66 0.66 1.32 1 2 C-0.9174514 5.76115467 -3.07406109 9.15886016 -5.5625 12.5625 C-10.86595257 19.92206033 -12.66164922 26.56222018 -11.5625 35.5625 C-11.376875 36.696875 -11.19125 37.83125 -11 39 C-13 38 -13 38 -14 35 C-14.5393889 28.75312391 -13.59561199 23.02628455 -12 17 C-11.34 17 -10.68 17 -10 17 C-9.79375 16.34 -9.5875 15.68 -9.375 15 C-7.80273485 11.56960331 -5.77124771 8.91120024 -3.4375 5.96484375 C-2.03445453 4.04709409 -0.9969187 2.15200239 0 0 Z " fill="#2B3F80" transform="translate(367,355)"/>
<path d="M0 0 C4.95 0 9.9 0 15 0 C15 0.33 15 0.66 15 1 C10.38 1 5.76 1 1 1 C1 2.98 1 4.96 1 7 C0.34 7 -0.32 7 -1 7 C-1.33 7.99 -1.66 8.98 -2 10 C-3.65 10 -5.3 10 -7 10 C-6.34 7.03 -5.68 4.06 -5 1 C-4.34 1 -3.68 1 -3 1 C-3 1.66 -3 2.32 -3 3 C-2.01 3 -1.02 3 0 3 C0 2.01 0 1.02 0 0 Z " fill="#9F988C" transform="translate(579,357)"/>
<path d="M0 0 C3.86107457 2.57404971 3.94319692 4.61020259 5 9 C4.01 8.67 3.02 8.34 2 8 C2 14.6 2 21.2 2 28 C1.34 28 0.68 28 0 28 C0 18.76 0 9.52 0 0 Z " fill="#57373D" transform="translate(740,339)"/>
<path d="M0 0 C0 0.66 0 1.32 0 2 C-1.32 2.33 -2.64 2.66 -4 3 C-4 3.66 -4 4.32 -4 5 C-5.65234375 6.375 -5.65234375 6.375 -7.9375 8 C-14.5635835 12.99825826 -19.75067639 19.19090502 -24.9375 25.625 C-25.618125 26.40875 -26.29875 27.1925 -27 28 C-27.66 28 -28.32 28 -29 28 C-29 27.01 -29 26.02 -29 25 C-28.39542969 24.74347656 -27.79085938 24.48695313 -27.16796875 24.22265625 C-24.75966646 22.86446055 -23.84291833 21.71244617 -22.3125 19.4375 C-18.0004724 13.4527967 -8.12008142 0 0 0 Z " fill="#345C9C" transform="translate(348,266)"/>
<path d="M0 0 C2.51699845 2.51699845 3.10964078 4.57554146 4 8 C3.625 10.375 3.625 10.375 3 12 C2.67 11.67 2.34 11.34 2 11 C2.33 14.3 2.66 17.6 3 21 C-0.63 21 -4.26 21 -8 21 C-8.125 17.625 -8.125 17.625 -8 14 C-7.34 13.34 -6.68 12.68 -6 12 C-6.33 14.64 -6.66 17.28 -7 20 C-4.36 20 -1.72 20 1 20 C0.84402344 19.2265625 0.68804688 18.453125 0.52734375 17.65625 C-0.64128447 11.40292813 -1.20332224 6.25727563 0 0 Z " fill="#A49785" transform="translate(590,332)"/>
<path d="M0 0 C5.39509537 -0.49046322 5.39509537 -0.49046322 8.3125 1.875 C10.92878865 5.1695857 11.11568505 6.97656573 11.0625 11.125 C11.05347656 12.03507812 11.04445313 12.94515625 11.03515625 13.8828125 C11.02355469 14.58148438 11.01195312 15.28015625 11 16 C10.34 16.33 9.68 16.66 9 17 C9.020625 16.41992188 9.04125 15.83984375 9.0625 15.2421875 C8.93892107 10.18273535 8.93892107 10.18273535 6.15234375 6.13671875 C4.70528547 5.10820996 3.22581723 4.12348304 1.71484375 3.19140625 C1.14894531 2.79824219 0.58304688 2.40507812 0 2 C0 1.34 0 0.68 0 0 Z " fill="#D5CBB9" transform="translate(674,346)"/>
<path d="M0 0 C0.33 0 0.66 0 1 0 C1 12.21 1 24.42 1 37 C0.34 37 -0.32 37 -1 37 C-2.76462683 33.91190305 -3 32.76687864 -3 29 C-2.34 29 -1.68 29 -1 29 C-0.67 19.43 -0.34 9.86 0 0 Z " fill="#CFD3C8" transform="translate(757,329)"/>
<path d="M0 0 C0 0.66 0 1.32 0 2 C-4.69924777 5.49431244 -9.85973216 8.21283255 -15 11 C-15 10.34 -15 9.68 -15 9 C-15.99 8.67 -16.98 8.34 -18 8 C-14.375 5 -14.375 5 -11 5 C-11 4.34 -11 3.68 -11 3 C-9.02 3 -7.04 3 -5 3 C-5 2.34 -5 1.68 -5 1 C-2 0 -2 0 0 0 Z " fill="#29455F" transform="translate(377,251)"/>
<path d="M0 0 C5.28 0.66 10.56 1.32 16 2 C16 2.99 16 3.98 16 5 C13.72942623 5.05398987 11.45848712 5.09278742 9.1875 5.125 C7.29064453 5.15980469 7.29064453 5.15980469 5.35546875 5.1953125 C2 5 2 5 -1 3 C-0.67 2.01 -0.34 1.02 0 0 Z " fill="#E0D5C3" transform="translate(612,361)"/>
<path d="M0 0 C1 3 1 3 0.109375 5.234375 C-0.33921875 6.06453125 -0.7878125 6.8946875 -1.25 7.75 C-1.7140625 8.63816406 -2.178125 9.52632813 -2.65625 10.44140625 C-3.0996875 11.28574219 -3.543125 12.13007813 -4 13 C-6.27025662 17.60459305 -7.47556682 21.86055488 -8 27 C-8.66 27 -9.32 27 -10 27 C-9.02957448 16.51940434 -6.3334537 8.48559816 0 0 Z " fill="#2E4E86" transform="translate(327,271)"/>
<path d="M0 0 C1.32 0 2.64 0 4 0 C4 0.66 4 1.32 4 2 C7.63 2 11.26 2 15 2 C15 2.99 15 3.98 15 5 C12.89611431 5.05402274 10.79183286 5.09280256 8.6875 5.125 C6.92986328 5.15980469 6.92986328 5.15980469 5.13671875 5.1953125 C2 5 2 5 -1 3 C-0.67 2.01 -0.34 1.02 0 0 Z " fill="#E2D7C5" transform="translate(664,361)"/>
<path d="M0 0 C0.33 0.66 0.66 1.32 1 2 C0.0625 4.125 0.0625 4.125 -1 6 C-1.66 6 -2.32 6 -3 6 C-3.33 7.65 -3.66 9.3 -4 11 C-4.66 11 -5.32 11 -6 11 C-6 13.64 -6 16.28 -6 19 C-5.34 19 -4.68 19 -4 19 C-2.98594743 20.32267727 -1.98731742 21.65724831 -1 23 C-0.01 23.66 0.98 24.32 2 25 C-0.8125 25.25 -0.8125 25.25 -4 25 C-6.80946365 22.13104182 -7.49781514 19.84085525 -7.625 15.875 C-7.49818246 9.14461177 -4.23725746 4.98310124 0 0 Z " fill="#27356E" transform="translate(417,389)"/>
<path d="M0 0 C0.33 1.32 0.66 2.64 1 4 C0.34 4 -0.32 4 -1 4 C-1.33 11.59 -1.66 19.18 -2 27 C-1.01 26.67 -0.02 26.34 1 26 C0.67 27.65 0.34 29.3 0 31 C-0.99 31 -1.98 31 -3 31 C-3.05837668 27.29173349 -3.09372277 23.5835863 -3.125 19.875 C-3.15013672 18.30492187 -3.15013672 18.30492187 -3.17578125 16.703125 C-3.21508197 10.49361075 -2.8161529 5.6323058 0 0 Z " fill="#22314C" transform="translate(317,312)"/>
<path d="M0 0 C1 2 1 2 0.2578125 4.609375 C-0.11601562 5.64578125 -0.48984375 6.6821875 -0.875 7.75 C-2.34465476 11.84036778 -3.39378734 15.69202065 -4 20 C-7.15473719 19.64947365 -8.8233534 19.13480924 -11.375 17.1875 C-12.179375 16.1046875 -12.179375 16.1046875 -13 15 C-12.6015625 12.86328125 -12.6015625 12.86328125 -12 11 C-11.66226562 11.49371094 -11.32453125 11.98742187 -10.9765625 12.49609375 C-10.30753906 13.45708984 -10.30753906 13.45708984 -9.625 14.4375 C-9.18414062 15.07558594 -8.74328125 15.71367187 -8.2890625 16.37109375 C-7.07839147 18.13740928 -7.07839147 18.13740928 -5 19 C-4.97421875 18.38253906 -4.9484375 17.76507813 -4.921875 17.12890625 C-4.49051026 10.68784636 -2.96932108 5.71766942 0 0 Z " fill="#2A3B82" transform="translate(369,384)"/>
<path d="M0 0 C0.66 0.33 1.32 0.66 2 1 C0.75479583 2.44165628 -0.49637923 3.87815652 -1.75 5.3125 C-2.44609375 6.11300781 -3.1421875 6.91351563 -3.859375 7.73828125 C-5.80442823 9.79336486 -7.63035986 11.4617252 -10 13 C-10.66 13 -11.32 13 -12 13 C-12.33 13.99 -12.66 14.98 -13 16 C-13.99 16 -14.98 16 -16 16 C-16 15.34 -16 14.68 -16 14 C-15.278125 13.5875 -14.55625 13.175 -13.8125 12.75 C-11.27159291 11.16899114 -10.11261503 10.08943121 -8.3125 7.8125 C-7.549375 6.884375 -6.78625 5.95625 -6 5 C-5.34 5 -4.68 5 -4 5 C-4 4.34 -4 3.68 -4 3 C-2 1.375 -2 1.375 0 0 Z " fill="#2C477E" transform="translate(438,338)"/>
<path d="M0 0 C3 3 3 3 3.34057617 5.26831055 C3.32486572 6.13238525 3.30915527 6.99645996 3.29296875 7.88671875 C3.28330078 8.82451172 3.27363281 9.76230469 3.26367188 10.72851562 C3.23853516 11.70498047 3.21339844 12.68144531 3.1875 13.6875 C3.17396484 14.67556641 3.16042969 15.66363281 3.14648438 16.68164062 C3.11112203 19.12164231 3.06177033 21.56054719 3 24 C2.34 24 1.68 24 1 24 C0.67 16.08 0.34 8.16 0 0 Z " fill="#294958" transform="translate(555,334)"/>
<path d="M0 0 C2.2421875 -0.328125 2.2421875 -0.328125 4.875 -0.25 C6.17050781 -0.22679687 6.17050781 -0.22679687 7.4921875 -0.203125 C9.7776752 -0.01800762 11.80198797 0.36615467 14 1 C13.67 2.32 13.34 3.64 13 5 C12.01 4.67 11.02 4.34 10 4 C7.94106379 3.77674186 5.87766347 3.59294241 3.8125 3.4375 C2.18248047 3.31181641 2.18248047 3.31181641 0.51953125 3.18359375 C-0.31191406 3.12300781 -1.14335938 3.06242187 -2 3 C-1.34 2.01 -0.68 1.02 0 0 Z " fill="#DBCDB8" transform="translate(670,329)"/>
<path d="M0 0 C0.66 0.33 1.32 0.66 2 1 C-0.21886329 5.09125955 -2.86015272 8.07157732 -6.1875 11.3125 C-7.08855469 12.19550781 -7.98960937 13.07851563 -8.91796875 13.98828125 C-9.60503906 14.65214844 -10.29210937 15.31601562 -11 16 C-11.66 15.67 -12.32 15.34 -13 15 C-12.236875 14.278125 -11.47375 13.55625 -10.6875 12.8125 C-7.99787607 10.20464401 -7.99787607 10.20464401 -6.5 7.5 C-4.71475177 4.52458628 -2.51174496 2.37597496 0 0 Z " fill="#22314D" transform="translate(423,370)"/>
<path d="M0 0 C0.66 0 1.32 0 2 0 C2.66 1.98 3.32 3.96 4 6 C1.51565563 8.34290892 0.22268407 8.97982934 -3.234375 9.29296875 C-4.39453125 9.25816406 -5.5546875 9.22335937 -6.75 9.1875 C-7.92046875 9.16042969 -9.0909375 9.13335937 -10.296875 9.10546875 C-11.18890625 9.07066406 -12.0809375 9.03585937 -13 9 C-13.33 8.34 -13.66 7.68 -14 7 C-9.71 7 -5.42 7 -1 7 C-0.67 6.34 -0.34 5.68 0 5 C-3.3 5 -6.6 5 -10 5 C-10 4.67 -10 4.34 -10 4 C-5.545 3.505 -5.545 3.505 -1 3 C-0.67 2.01 -0.34 1.02 0 0 Z " fill="#A0998F" transform="translate(556,358)"/>
<path d="M0 0 C0.98484375 0.01804687 1.9696875 0.03609375 2.984375 0.0546875 C4.10585938 0.08949219 4.10585938 0.08949219 5.25 0.125 C5.25 1.445 5.25 2.765 5.25 4.125 C3.31280622 4.17906122 1.37518079 4.21782025 -0.5625 4.25 C-1.64144531 4.27320313 -2.72039063 4.29640625 -3.83203125 4.3203125 C-6.75 4.125 -6.75 4.125 -9.75 2.125 C-6.40060119 0.09941119 -3.88037449 -0.09238987 0 0 Z " fill="#DED5C5" transform="translate(820.75,328.875)"/>
<path d="M0 0 C0 3.72820818 -0.84132013 4.97784819 -3 8 C-3.969375 8.804375 -4.93875 9.60875 -5.9375 10.4375 C-9.05333804 13.04462979 -10.83502325 15.59789368 -13 19 C-13.66 19.33 -14.32 19.66 -15 20 C-13.44633255 15.02826417 -10.50246 10.81438392 -7 7 C-6.01 6.67 -5.02 6.34 -4 6 C-2.3553326 3.53673288 -2.3553326 3.53673288 -1 1 C-0.67 0.67 -0.34 0.34 0 0 Z " fill="#2B457A" transform="translate(363,325)"/>
<path d="M0 0 C0.57421875 1.91796875 0.57421875 1.91796875 1 4 C-0.1875 5.3125 -0.1875 5.3125 -2 7 C-2.99854495 8.70718976 -3.99467806 10.41625941 -4.94921875 12.1484375 C-6.49195811 14.86687043 -8.23772703 17.41952886 -10 20 C-10.33 19.34 -10.66 18.68 -11 18 C-10.04060332 16.30963442 -9.03357147 14.64605826 -8 13 C-7.731875 12.236875 -7.46375 11.47375 -7.1875 10.6875 C-5.41575955 6.67777161 -2.70439939 3.42727344 0 0 Z " fill="#2D4883" transform="translate(345,318)"/>
<path d="M0 0 C0.66 0 1.32 0 2 0 C2.66 1.65 3.32 3.3 4 5 C2.02 5.99 2.02 5.99 0 7 C0 6.01 0 5.02 0 4 C-1.22976563 4.01740234 -1.22976563 4.01740234 -2.484375 4.03515625 C-4.10085938 4.04869141 -4.10085938 4.04869141 -5.75 4.0625 C-7.35101562 4.07990234 -7.35101562 4.07990234 -8.984375 4.09765625 C-12 4 -12 4 -14.265625 3.37109375 C-14.83796875 3.24863281 -15.4103125 3.12617188 -16 3 C-16.66 3.66 -17.32 4.32 -18 5 C-17.67 3.68 -17.34 2.36 -17 1 C-15.33388095 0.957279 -13.66617115 0.95936168 -12 1 C-11.67 1.33 -11.34 1.66 -11 2 C-9.31391034 2.07205511 -7.62499341 2.08386068 -5.9375 2.0625 C-5.01839844 2.05347656 -4.09929688 2.04445313 -3.15234375 2.03515625 C-2.44207031 2.02355469 -1.73179687 2.01195312 -1 2 C-0.67 1.34 -0.34 0.68 0 0 Z " fill="#A89F94" transform="translate(628,359)"/>
<path d="M0 0 C1.32 0 2.64 0 4 0 C4.33 3.63 4.66 7.26 5 11 C3.68 11 2.36 11 1 11 C0 10 0 10 -0.09765625 7.71484375 C-0.08605469 6.79832031 -0.07445312 5.88179688 -0.0625 4.9375 C-0.05347656 4.01839844 -0.04445313 3.09929687 -0.03515625 2.15234375 C-0.02355469 1.44207031 -0.01195312 0.73179687 0 0 Z " fill="#D2C4AE" transform="translate(612,334)"/>
<path d="M0 0 C-1.40844718 3.21524305 -3.10344786 5.32183868 -5.625 7.75 C-6.57246094 8.67039062 -6.57246094 8.67039062 -7.5390625 9.609375 C-8.02117187 10.06828125 -8.50328125 10.5271875 -9 11 C-10.32 10.34 -11.64 9.68 -13 9 C-11.21326795 7.4941255 -9.42046492 5.9954515 -7.625 4.5 C-6.62726563 3.6646875 -5.62953125 2.829375 -4.6015625 1.96875 C-2 0 -2 0 0 0 Z " fill="#263A60" transform="translate(454,346)"/>
<path d="M0 0 C0 0.99 0 1.98 0 3 C-3.33333333 6 -3.33333333 6 -6 6 C-6 6.66 -6 7.32 -6 8 C-6.66 8 -7.32 8 -8 8 C-8 7.01 -8 6.02 -8 5 C-8.66 4.67 -9.32 4.34 -10 4 C-6.58908673 0.88145073 -4.68377325 -0.53528837 0 0 Z " fill="#213241" transform="translate(362,260)"/>
<path d="M0 0 C2.3125 -0.328125 2.3125 -0.328125 5 -0.25 C6.3303125 -0.22679687 6.3303125 -0.22679687 7.6875 -0.203125 C10 0 10 0 12 1 C12 1.66 12 2.32 12 3 C7.38 3 2.76 3 -2 3 C-1.34 2.01 -0.68 1.02 0 0 Z " fill="#E0D5C3" transform="translate(618,329)"/>
<path d="M0 0 C0.99 0.33 1.98 0.66 3 1 C3.33 2.65 3.66 4.3 4 6 C3.34 5.67 2.68 5.34 2 5 C2 4.34 2 3.68 2 3 C0.63875 4.2684375 0.63875 4.2684375 -0.75 5.5625 C-2.296875 7.00390625 -2.296875 7.00390625 -4 8 C-6.203125 7.65234375 -6.203125 7.65234375 -8 7 C-6.74057614 5.80040625 -5.46704714 4.61560557 -4.1875 3.4375 C-3.12595703 2.44556641 -3.12595703 2.44556641 -2.04296875 1.43359375 C-1.36878906 0.96050781 -0.69460938 0.48742187 0 0 Z " fill="#345F94" transform="translate(424,296)"/>
<path d="M0 0 C-0.33 0.99 -0.66 1.98 -1 3 C-4.3 3 -7.6 3 -11 3 C-11.33 2.01 -11.66 1.02 -12 0 C-10.56359829 -0.19573608 -9.12580496 -0.38127816 -7.6875 -0.5625 C-6.88699219 -0.66691406 -6.08648438 -0.77132813 -5.26171875 -0.87890625 C-3 -1 -3 -1 0 0 Z " fill="#DFD3C2" transform="translate(827,363)"/>
<path d="M0 0 C0.66 0.33 1.32 0.66 2 1 C2 4.63 2 8.26 2 12 C1.01 12.33 0.02 12.66 -1 13 C-1.33 13.99 -1.66 14.98 -2 16 C-2.04241723 13.66705225 -2.04092937 11.33297433 -2 9 C-1.67 8.67 -1.34 8.34 -1 8 C-0.76924918 6.65252916 -0.58846937 5.29622435 -0.4375 3.9375 C-0.293125 2.638125 -0.14875 1.33875 0 0 Z " fill="#D2B997" transform="translate(866,332)"/>
<path d="M0 0 C1.32 0 2.64 0 4 0 C4.33 2.64 4.66 5.28 5 8 C3.35 8 1.7 8 0 8 C0 5.36 0 2.72 0 0 Z " fill="#CCC5B0" transform="translate(596,358)"/>
<path d="M0 0 C0.33 0.66 0.66 1.32 1 2 C0.26821134 4.07196631 -0.55899003 6.1108552 -1.4375 8.125 C-1.91058594 9.22070312 -2.38367188 10.31640625 -2.87109375 11.4453125 C-3.24363281 12.28835938 -3.61617187 13.13140625 -4 14 C-4.66 14 -5.32 14 -6 14 C-5.77211278 12.03897046 -5.51694943 10.08109495 -5.25 8.125 C-5.11078125 7.03445313 -4.9715625 5.94390625 -4.828125 4.8203125 C-4 2 -4 2 -1.921875 0.6171875 C-1.28765625 0.41351563 -0.6534375 0.20984375 0 0 Z " fill="#C2A280" transform="translate(902,334)"/>
<path d="M0 0 C0.33 1.32 0.66 2.64 1 4 C-3.455 7.96 -3.455 7.96 -8 12 C-8 8.47967572 -7.29648649 7.5614657 -5 5 C-4.34 5 -3.68 5 -3 5 C-2.690625 4.360625 -2.38125 3.72125 -2.0625 3.0625 C-1 1 -1 1 0 0 Z " fill="#2E4E83" transform="translate(357,304)"/>
<path d="M0 0 C0 3.81094059 -1.00717021 5.77024137 -3 9 C-5.6875 10.375 -5.6875 10.375 -8 11 C-8.125 8.125 -8.125 8.125 -8 5 C-7.34 4.34 -6.68 3.68 -6 3 C-6 4.32 -6 5.64 -6 7 C-5.34 7 -4.68 7 -4 7 C-3.71125 6.21625 -3.4225 5.4325 -3.125 4.625 C-2 2 -2 2 0 0 Z " fill="#233652" transform="translate(323,291)"/>
<path d="M0 0 C2 3 2 3 1.8984375 5.19140625 C1.72570312 5.97386719 1.55296875 6.75632812 1.375 7.5625 C1.21773437 8.34753906 1.06046875 9.13257813 0.8984375 9.94140625 C0 12 0 12 -2.0859375 13.27734375 C-2.71757813 13.51582031 -3.34921875 13.75429688 -4 14 C-3.34 13.01 -2.68 12.02 -2 11 C-1.57216934 8.19409764 -1.77169298 5.8766685 -2 3 C-2.99 2.34 -3.98 1.68 -5 1 C-3.35 0.67 -1.7 0.34 0 0 Z " fill="#A1ADB2" transform="translate(865,348)"/>
<path d="M0 0 C0.78375 0.144375 1.5675 0.28875 2.375 0.4375 C6.90242749 1.14003185 11.43927072 1.57637495 16 2 C16 2.33 16 2.66 16 3 C13.03 3 10.06 3 7 3 C7.33 3.99 7.66 4.98 8 6 C5.69 5.34 3.38 4.68 1 4 C0.67 2.68 0.34 1.36 0 0 Z " fill="#AEB0AB" transform="translate(808,360)"/>
<path d="M0 0 C0.33 0 0.66 0 1 0 C0.67 4.62 0.34 9.24 0 14 C-1.65 13.67 -3.3 13.34 -5 13 C-4.01 12.67 -3.02 12.34 -2 12 C-1.93941406 11.30132812 -1.87882812 10.60265625 -1.81640625 9.8828125 C-1.69072266 8.51769531 -1.69072266 8.51769531 -1.5625 7.125 C-1.48128906 6.22007812 -1.40007812 5.31515625 -1.31640625 4.3828125 C-1 2 -1 2 0 0 Z " fill="#212D50" transform="translate(367,392)"/>
<path d="M0 0 C1.9375 0.75 1.9375 0.75 4 2 C4.75 4.125 4.75 4.125 5 6 C4.34 6 3.68 6 3 6 C2.67 6.66 2.34 7.32 2 8 C1.34 8 0.68 8 0 8 C-0.12375 7.360625 -0.2475 6.72125 -0.375 6.0625 C-0.684375 5.0415625 -0.684375 5.0415625 -1 4 C-1.66 3.67 -2.32 3.34 -3 3 C-2.01 2.01 -1.02 1.02 0 0 Z " fill="#BBB6A6" transform="translate(827,330)"/>
<path d="M0 0 C0.66 0.33 1.32 0.66 2 1 C0.7580393 4.43927579 -0.55740284 7.25207819 -3 10 C-3.66 10 -4.32 10 -5 10 C-5 10.66 -5 11.32 -5 12 C-5.66 12 -6.32 12 -7 12 C-5.44298069 7.32894208 -2.91552627 3.91294315 0 0 Z " fill="#2D4A84" transform="translate(333,306)"/>
<path d="M0 0 C0.25 2.25 0.25 2.25 0 5 C-2 7.3125 -2 7.3125 -4 9 C-3.42415568 6.61435923 -2.77772405 4.33317216 -2 2 C-2.99 2.495 -2.99 2.495 -4 3 C-6.6723621 3.13415472 -9.32250488 3.04318541 -12 3 C-12 2.67 -12 2.34 -12 2 C-10.7625 1.67 -9.525 1.34 -8.25 1 C-7.55390625 0.814375 -6.8578125 0.62875 -6.140625 0.4375 C-4 0 -4 0 0 0 Z " fill="#284459" transform="translate(408,251)"/>
<path d="M0 0 C4.62 0 9.24 0 14 0 C14 0.66 14 1.32 14 2 C9.545 2.495 9.545 2.495 5 3 C5 2.34 5 1.68 5 1 C3.35 1 1.7 1 0 1 C0 0.67 0 0.34 0 0 Z " fill="#5A5855" transform="translate(614,366)"/>
<path d="M0 0 C1.32 0.66 2.64 1.32 4 2 C3.34 2 2.68 2 2 2 C2.33 2.99 2.66 3.98 3 5 C0.36 4.67 -2.28 4.34 -5 4 C-5.33 3.01 -5.66 2.02 -6 1 C-4.7934375 1.0309375 -4.7934375 1.0309375 -3.5625 1.0625 C-1.06645115 1.29633621 -1.06645115 1.29633621 0 0 Z " fill="#AAA9A3" transform="translate(672,344)"/>
<path d="M0 0 C2.64 0.66 5.28 1.32 8 2 C6.02 2.99 6.02 2.99 4 4 C5.65 4.99 7.3 5.98 9 7 C8.01 7.495 8.01 7.495 7 8 C4.64018187 7.06421005 2.30368736 6.06652192 0 5 C0 3.35 0 1.7 0 0 Z " fill="#BCB3A8" transform="translate(616,342)"/>
<path d="M0 0 C0 0.66 0 1.32 0 2 C-1.41538717 2.33872513 -2.83237963 2.67074624 -4.25 3 C-5.03890625 3.185625 -5.8278125 3.37125 -6.640625 3.5625 C-9 4 -9 4 -13 4 C-13 3.34 -13 2.68 -13 2 C-8.49646738 0.24252386 -4.82360189 -0.19294408 0 0 Z " fill="#2F5674" transform="translate(395,226)"/>
<path d="M0 0 C0.33 0.99 0.66 1.98 1 3 C-0.65 4.32 -2.3 5.64 -4 7 C-4 6.34 -4 5.68 -4 5 C-5.65 5.66 -7.3 6.32 -9 7 C-7.71034824 5.62437146 -6.37310707 4.29233607 -5 3 C-4.34 3 -3.68 3 -3 3 C-3 2.34 -3 1.68 -3 1 C-2.01 0.67 -1.02 0.34 0 0 Z " fill="#202E42" transform="translate(443,355)"/>
<path d="M0 0 C0.33 0.66 0.66 1.32 1 2 C0.67 2.99 0.34 3.98 0 5 C-0.66 5 -1.32 5 -2 5 C-2.268125 5.53625 -2.53625 6.0725 -2.8125 6.625 C-4.20833333 9.41666667 -5.60416667 12.20833333 -7 15 C-8 12 -8 12 -7.00390625 9.73828125 C-6.52824219 8.93777344 -6.05257813 8.13726562 -5.5625 7.3125 C-5.08941406 6.50425781 -4.61632812 5.69601562 -4.12890625 4.86328125 C-3.75636719 4.24839844 -3.38382812 3.63351562 -3 3 C-2.34 3 -1.68 3 -1 3 C-0.67 2.01 -0.34 1.02 0 0 Z " fill="#293E76" transform="translate(346,349)"/>
<path d="M0 0 C0.33 1.32 0.66 2.64 1 4 C0.34 4 -0.32 4 -1 4 C-1 6.64 -1 9.28 -1 12 C-1.66 12 -2.32 12 -3 12 C-3.08090971 10.37581255 -3.13914995 8.75048255 -3.1875 7.125 C-3.22230469 6.22007812 -3.25710938 5.31515625 -3.29296875 4.3828125 C-3.19628906 3.59648437 -3.09960938 2.81015625 -3 2 C-2.01 1.34 -1.02 0.68 0 0 Z " fill="#98ABB1" transform="translate(613,330)"/>
<path d="M0 0 C0.33 0.99 0.66 1.98 1 3 C-0.43359375 5.69921875 -0.43359375 5.69921875 -2.4375 8.6875 C-3.42556641 10.17830078 -3.42556641 10.17830078 -4.43359375 11.69921875 C-5.20896484 12.83810547 -5.20896484 12.83810547 -6 14 C-6.33 13.34 -6.66 12.68 -7 12 C-6.07421875 9.94140625 -6.07421875 9.94140625 -4.6875 7.5625 C-4.23761719 6.78003906 -3.78773438 5.99757813 -3.32421875 5.19140625 C-2.2614878 3.4327276 -1.13981749 1.70972623 0 0 Z " fill="#2B3F81" transform="translate(377,370)"/>
<path d="M0 0 C0.95465783 2.16967689 1.14401212 3.56328793 0.3984375 5.82421875 C-0.35870385 7.5684743 -1.17609198 9.28627131 -2 11 C-2.66 11 -3.32 11 -4 11 C-4.33 11.99 -4.66 12.98 -5 14 C-4.3288162 9.70442365 -3.19562682 3.19562682 0 0 Z " fill="#2A4177" transform="translate(323,322)"/>
<path d="M0 0 C0.99 0.33 1.98 0.66 3 1 C3 4.3 3 7.6 3 11 C2.01 11.495 2.01 11.495 1 12 C0.67 8.04 0.34 4.08 0 0 Z " fill="#DFD0B6" transform="translate(682,351)"/>
<path d="M0 0 C2.5 1.625 2.5 1.625 5 4 C5.3125 7.25 5.3125 7.25 5 10 C4.67 10 4.34 10 4 10 C3.87625 9.195625 3.7525 8.39125 3.625 7.5625 C3.41875 6.716875 3.2125 5.87125 3 5 C2.34 4.67 1.68 4.34 1 4 C0.67 4.99 0.34 5.98 0 7 C-1.125 2.25 -1.125 2.25 0 0 Z " fill="#C7B8A1" transform="translate(557,330)"/>
<path d="M0 0 C0.66 0.33 1.32 0.66 2 1 C1.50628906 1.39832031 1.01257813 1.79664063 0.50390625 2.20703125 C-0.13675781 2.73683594 -0.77742188 3.26664062 -1.4375 3.8125 C-2.07558594 4.33457031 -2.71367187 4.85664063 -3.37109375 5.39453125 C-5.2548275 7.00834411 -5.2548275 7.00834411 -6 10 C-7.32 9.67 -8.64 9.34 -10 9 C-6.7 6.03 -3.4 3.06 0 0 Z " fill="#294363" transform="translate(364,276)"/>
<path d="M0 0 C-3.96 0.99 -7.92 1.98 -12 3 C-12 3.66 -12 4.32 -12 5 C-12.99 4.67 -13.98 4.34 -15 4 C-14.67 3.01 -14.34 2.02 -14 1 C-12.41913952 0.63495397 -10.83516093 0.28339494 -9.25 -0.0625 C-8.36828125 -0.25972656 -7.4865625 -0.45695312 -6.578125 -0.66015625 C-4 -1 -4 -1 0 0 Z " fill="#2F5577" transform="translate(418,270)"/>
<path d="M0 0 C-4.18586481 3.18923033 -6.70558305 4.50423019 -12 4 C-9.8923766 -0.2152468 -4.26296995 -1.87570678 0 0 Z " fill="#366693" transform="translate(378,232)"/>
<path d="M0 0 C0.75 1.6875 0.75 1.6875 1 4 C-0.8125 6.5625 -0.8125 6.5625 -3 9 C-3.66 9.99 -4.32 10.98 -5 12 C-4.37343743 7.73937456 -3.1323664 3.1323664 0 0 Z " fill="#2A3B7F" transform="translate(403,392)"/>
<path d="M0 0 C0.66 0.33 1.32 0.66 2 1 C-0.07143201 5.03384128 -1.96615872 6.92856799 -6 9 C-4.79618552 6.50638429 -3.54571278 4.31856917 -2 2 C-1.34 2 -0.68 2 0 2 C0 1.34 0 0.68 0 0 Z " fill="#273A6C" transform="translate(402,372)"/>
<path d="M0 0 C2.09350689 3.4019487 2.17942163 6.05272412 2 10 C1.34 10 0.68 10 0 10 C-1.36952673 7.26094655 -1.12621361 5.02912668 -1 2 C-0.67 1.34 -0.34 0.68 0 0 Z " fill="#A1B3B8" transform="translate(663,332)"/>
<path d="M0 0 C1.32 0 2.64 0 4 0 C4 0.99 4 1.98 4 3 C4.66 3.66 5.32 4.32 6 5 C3.03 4.505 3.03 4.505 0 4 C0 2.68 0 1.36 0 0 Z " fill="#C1C0B6" transform="translate(664,361)"/>
<path d="M0 0 C0.33 0 0.66 0 1 0 C1 1.65 1 3.3 1 5 C1.99 5.33 2.98 5.66 4 6 C4 7.98 4 9.96 4 12 C1.35858749 8.87833067 0.03218742 5.95671845 -1 2 C-0.67 1.34 -0.34 0.68 0 0 Z " fill="#A6B7B9" transform="translate(885,338)"/>
<path d="M0 0 C1.65 0.33 3.3 0.66 5 1 C4.67 1.99 4.34 2.98 4 4 C1.03 3.67 -1.94 3.34 -5 3 C-5 2.67 -5 2.34 -5 2 C-3.35 2 -1.7 2 0 2 C0 1.34 0 0.68 0 0 Z " fill="#D8CDBD" transform="translate(822,329)"/>
<path d="M0 0 C3.82601307 1.45124634 5.22329124 3.35774704 7 7 C7 7.99 7 8.98 7 10 C5.82438854 8.90536178 4.6597511 7.79892814 3.5 6.6875 C2.52546875 5.76517578 2.52546875 5.76517578 1.53125 4.82421875 C0 3 0 3 0 0 Z " fill="#36639A" transform="translate(474,252)"/>
<path d="M0 0 C0 3.64478912 -0.85802506 5.09303401 -3 8 C-5.1875 8.8125 -5.1875 8.8125 -7 9 C-5.44499019 5.18315774 -2.96404505 2.80804268 0 0 Z " fill="#2A3C7F" transform="translate(483,378)"/>
<path d="M0 0 C0.99 0 1.98 0 3 0 C3 3.3 3 6.6 3 10 C2.34 10 1.68 10 1 10 C0.67 6.7 0.34 3.4 0 0 Z " fill="#DDD6C2" transform="translate(664,332)"/>
<path d="M0 0 C0.99 0 1.98 0 3 0 C3.33 1.98 3.66 3.96 4 6 C3.01 5.01 2.02 4.02 1 3 C0.01 3.99 -0.98 4.98 -2 6 C-1.125 1.125 -1.125 1.125 0 0 Z " fill="#355FA4" transform="translate(493,284)"/>
<path d="M0 0 C3.3125 -0.1875 3.3125 -0.1875 7 0 C7.99 0.99 8.98 1.98 10 3 C6.7 2.67 3.4 2.34 0 2 C0 1.34 0 0.68 0 0 Z " fill="#2A495E" transform="translate(428,227)"/>
<path d="M0 0 C2.27521866 2.16687491 4.15794162 4.45620509 6 7 C5.67 7.66 5.34 8.32 5 9 C2.5 6.75 2.5 6.75 0 4 C0 2.68 0 1.36 0 0 Z " fill="#273571" transform="translate(356,395)"/>
<path d="M0 0 C0.66 0 1.32 0 2 0 C2.125 5.75 2.125 5.75 1 8 C0.34 8 -0.32 8 -1 8 C-0.67 5.36 -0.34 2.72 0 0 Z " fill="#829CA8" transform="translate(576,350)"/>
<path d="M0 0 C0.66 0.33 1.32 0.66 2 1 C2 2.32 2 3.64 2 5 C0.68 5.33 -0.64 5.66 -2 6 C-2.33 4.68 -2.66 3.36 -3 2 C-2.01 2 -1.02 2 0 2 C0 1.34 0 0.68 0 0 Z " fill="#BEB29D" transform="translate(749,345)"/>
<path d="M0 0 C0.99 0 1.98 0 3 0 C2.67 1.65 2.34 3.3 2 5 C1.01 5.33 0.02 5.66 -1 6 C-0.67 4.02 -0.34 2.04 0 0 Z " fill="#DED2BA" transform="translate(901,329)"/>
<path d="M0 0 C1.98 0.495 1.98 0.495 4 1 C4 2.32 4 3.64 4 5 C1.525 4.01 1.525 4.01 -1 3 C-0.67 2.01 -0.34 1.02 0 0 Z " fill="#C3C2B8" transform="translate(612,361)"/>
</svg>
