<?xml version="1.0" encoding="UTF-8"?>
<svg version="1.1" xmlns="http://www.w3.org/2000/svg" width="800" height="420">
<path d="M0 0 C264 0 528 0 800 0 C800 138.6 800 277.2 800 420 C536 420 272 420 0 420 C0 281.4 0 142.8 0 0 Z " fill="#EAEFEC" transform="translate(0,0)"/>
<path d="M0 0 C5.07922141 2.49343596 8.77219226 1.20419548 14.05078125 -0.43359375 C15.27152344 -0.86800781 16.49226563 -1.30242187 17.75 -1.75 C32.07722582 -6.62575748 51.14332377 -10.32624692 65.4375 -3.3125 C73.94161539 0.98207827 79.26662717 7.40189659 82.875 16.1875 C85.7202215 33.89110045 78.33131038 50.32884919 68.390625 64.6328125 C66.48292367 67.0670394 64.50221455 69.38546194 62.4375 71.6875 C61.68210938 72.56148438 60.92671875 73.43546875 60.1484375 74.3359375 C56.16311424 78.88107206 52.17416493 82.94223006 47.4375 86.6875 C46.839375 87.326875 46.24125 87.96625 45.625 88.625 C41.55410052 92.46327666 36.76156763 95.91281079 31.4375 97.6875 C30.9425 99.1725 30.9425 99.1725 30.4375 100.6875 C27.89020836 102.14477411 25.39696795 103.44021307 22.75 104.6875 C22.04166016 105.03039062 21.33332031 105.37328125 20.60351562 105.7265625 C19.20256186 106.40440162 17.79933674 107.07756786 16.39379883 107.74584961 C14.67507359 108.57314566 12.97629329 109.44161287 11.28125 110.31640625 C6.20882496 112.76203975 0.8475184 114.17156776 -4.5625 115.6875 C-5.2225 115.87521973 -5.8825 116.06293945 -6.5625 116.25634766 C-23.19453127 120.89866888 -37.41918467 121.10343301 -53.5625 114.6875 C-54.635 114.2646875 -55.7075 113.841875 -56.8125 113.40625 C-72.36763367 106.43884638 -83.34595165 92.93450245 -89.50390625 77.296875 C-95.01008878 61.65612463 -93.75251458 44.78701728 -87.27734375 29.69140625 C-78.47938633 12.41408041 -63.78926623 0.89007688 -45.5 -5.1875 C-30.94603235 -8.68967953 -13.22160372 -7.26934917 0 0 Z " fill="#5DC6DC" transform="translate(189.5625,81.3125)"/>
<path d="M0 0 C7.86893378 6.10063406 13.34049906 15.89594031 14.92578125 25.66015625 C16.15721267 37.28265508 13.87471443 47.40242953 7.11328125 57.03515625 C-0.71667014 66.49883795 -10.70404362 73.17573523 -23.07421875 74.66015625 C-35.1760703 75.65677932 -44.09630283 72.32998177 -54.07421875 65.66015625 C-55.40453125 64.79390625 -55.40453125 64.79390625 -56.76171875 63.91015625 C-65.87587933 55.04232433 -70.14215743 44.23893437 -70.57421875 31.59765625 C-70.1527792 19.36231445 -65.8196753 10.62834014 -57.41796875 1.94921875 C-40.55784618 -13.71797062 -18.2965069 -11.81864758 0 0 Z " fill="#040404" transform="translate(407.07421875,105.33984375)"/>
<path d="M0 0 C12.33942298 7.44352984 22.40222587 20.49464315 25.9375 34.4375 C29.25891793 53.16199359 27.55457335 70.82880226 17 87 C12.62216132 93.06724581 8.13285665 98.45004002 1.921875 102.68359375 C-0.12480789 104.03035715 -0.12480789 104.03035715 -2.28515625 105.99609375 C-13.766654 114.4709259 -32.11528462 116.46606821 -46 115 C-53.97086073 113.74857125 -61.3195792 111.69037827 -66.75 105.375 C-72.91663854 96.1386852 -75.30858564 87.07264769 -74 76 C-72.9932375 71.23465752 -71.54992923 66.61519105 -70 62 C-69.01 62 -68.02 62 -67 62 C-66.75765625 62.51949219 -66.5153125 63.03898437 -66.265625 63.57421875 C-62.1086663 72.2238905 -57.50384708 76.51383025 -49 81 C-41.11904139 83.6269862 -29.68220793 83.45193149 -22.1875 79.75 C-20.76488182 78.87547958 -19.36357262 77.96400113 -18 77 C-17.071875 76.401875 -16.14375 75.80375 -15.1875 75.1875 C-8.40523238 68.40523238 -5.96767991 60.78042005 -5.5 51.3125 C-5.6330005 42.9866684 -8.25533861 36.42226678 -13.640625 30.0625 C-19.55855337 24.53172583 -27.28967165 21.96859447 -35 20 C-29.39010058 12.33179216 -10.0028696 -3.62257268 0 0 Z " fill="#387C96" transform="translate(198,86)"/>
<path d="M0 0 C1.31254761 0.00845947 1.31254761 0.00845947 2.65161133 0.01708984 C12.84172246 0.20905128 21.21258762 2.41919793 29 9.3125 C35.28701109 16.58335633 38.57846717 23.71256672 38.30078125 33.40234375 C36.55578693 50.28573033 28.21532063 65.80806205 17 78.3125 C16.24460938 79.18648438 15.48921875 80.06046875 14.7109375 80.9609375 C10.72561424 85.50607206 6.73666493 89.56723006 2 93.3125 C1.401875 93.951875 0.80375 94.59125 0.1875 95.25 C-3.88339948 99.08827666 -8.67593237 102.53781079 -14 104.3125 C-14.33 105.3025 -14.66 106.2925 -15 107.3125 C-17.54729164 108.76977411 -20.04053205 110.06521307 -22.6875 111.3125 C-23.39583984 111.65539062 -24.10417969 111.99828125 -24.83398438 112.3515625 C-26.2315353 113.02775519 -27.63238894 113.69716868 -29.03662109 114.359375 C-30.81146993 115.22097782 -32.54400677 116.16843684 -34.26953125 117.125 C-37 118.3125 -37 118.3125 -39.375 118 C-39.91125 117.773125 -40.4475 117.54625 -41 117.3125 C-40.40832031 116.86519531 -39.81664062 116.41789062 -39.20703125 115.95703125 C-34.85813778 112.62973755 -30.72846449 109.34327242 -27 105.3125 C-26.071875 104.384375 -25.14375 103.45625 -24.1875 102.5 C-21.05385199 98.80473715 -18.92673457 94.67460669 -16.75 90.375 C-16.40864014 89.70686279 -16.06728027 89.03872559 -15.71557617 88.3503418 C-8.62449753 73.87706037 -9.15298739 56.31255811 -13.5390625 41.0390625 C-18.61738649 26.98338203 -28.87470318 17.39603121 -41 9.3125 C-37.7118265 8.17711357 -34.41889099 7.05617996 -31.125 5.9375 C-30.2071875 5.62039062 -29.289375 5.30328125 -28.34375 4.9765625 C-18.87769434 1.77676904 -10.01013351 -0.06797064 0 0 Z " fill="#A49BBE" transform="translate(235,74.6875)"/>
<path d="M0 0 C7.0763965 6.7568173 10.92328751 13.69379425 11.25390625 23.484375 C11.03229924 32.55099229 8.86630787 40.54213709 2.5234375 47.23828125 C-6.79968216 55.40934493 -16.05679969 56.67915516 -28.04589844 55.98583984 C-32.74506429 55.43305994 -36.37943134 53.42150409 -40.18359375 50.734375 C-41.09109375 50.156875 -41.99859375 49.579375 -42.93359375 48.984375 C-49.86316449 42.05480426 -53.43327938 34.43421407 -53.68359375 24.609375 C-53.54553047 15.82509904 -51.07436395 9.23690152 -45.3203125 2.578125 C-32.76202827 -9.30065287 -13.63576288 -11.12898627 0 0 Z " fill="#EAEFEC" transform="translate(182.18359375,113.265625)"/>
<path d="M0 0 C6.9319018 4.77853614 10.37300706 10.11902117 13 18 C13 22.29 13 26.58 13 31 C-1.85 31 -16.7 31 -32 31 C-29.91546435 39.43429721 -29.91546435 39.43429721 -26.5 42.5625 C-21.20360563 44.73780483 -15.43229137 45.36890998 -9.9921875 43.19921875 C-7.1331568 41.4105981 -6.07541137 40.22623411 -5 37 C0.61 37 6.22 37 12 37 C10.10880647 45.06909239 6.90248427 49.37397802 0 54 C-8.97642994 58.76327747 -18.40227837 59.40461612 -28.1875 56.875 C-36.98364502 53.81117421 -42.34550868 49.50050951 -46.90625 41.3671875 C-50.55946014 33.46059698 -50.37207105 22.18694148 -48.1640625 13.83984375 C-44.54828509 5.98948139 -37.83194149 -0.12371357 -29.8125 -3.33984375 C-20.05749853 -5.62955937 -8.65982795 -5.34732545 0 0 Z " fill="#060606" transform="translate(644,122)"/>
<path d="M0 0 C5.28 0 10.56 0 16 0 C16.02578125 2.578125 16.0515625 5.15625 16.078125 7.8125 C16.11662487 10.33132475 16.16175926 12.84995025 16.20751953 15.36865234 C16.23560703 17.10846314 16.25688194 18.84839865 16.27099609 20.58837891 C16.29259653 23.1012297 16.33932986 25.61260033 16.390625 28.125 C16.39185364 28.89303955 16.39308228 29.6610791 16.39434814 30.45239258 C16.54152028 35.9766842 17.85655604 40.39778586 21 45 C25.1532614 47.0766307 30.47295604 46.36516269 34.875 45.3125 C38.23554166 43.23687133 39.58792216 40.60344585 40.55834961 36.82739258 C41.11788434 33.24531866 41.23219804 29.69146751 41.31640625 26.07421875 C41.33718735 25.32662796 41.35796844 24.57903717 41.37937927 23.80879211 C41.44444189 21.43511604 41.5035571 19.06133513 41.5625 16.6875 C41.60572646 15.07225505 41.64934204 13.45702047 41.69335938 11.84179688 C41.80080646 7.89463685 41.90020046 3.94739036 42 0 C47.28 0 52.56 0 58 0 C58 19.8 58 39.6 58 60 C53.05 60 48.1 60 43 60 C43 57.69 43 55.38 43 53 C42.41992188 53.40992188 41.83984375 53.81984375 41.2421875 54.2421875 C33.90480183 59.30328851 28.0094701 61.94992765 19 61 C12.9515938 59.74114473 9.02303225 57.85130359 5 53 C4.443125 52.34 3.88625 51.68 3.3125 51 C-0.35927022 45.40492157 -0.26689114 40.38155548 -0.1953125 33.88671875 C-0.19106766 32.43239189 -0.19106766 32.43239189 -0.18673706 30.94868469 C-0.17556991 27.86149595 -0.15047152 24.77460061 -0.125 21.6875 C-0.11496573 19.59049899 -0.10584066 17.49349342 -0.09765625 15.39648438 C-0.07564188 10.2642104 -0.04113571 5.1321549 0 0 Z " fill="#020202" transform="translate(431,119)"/>
<path d="M0 0 C7.23489151 3.33749168 12.11679155 7.90422014 15.01171875 15.375 C17.67625797 24.78864155 16.4801692 33.4245681 12.13671875 42.125 C8.54423301 48.01056175 3.81292124 51.40243783 -2.86328125 53.125 C-10.25505013 54.06966611 -16.80924455 53.74381248 -22.86328125 49.125 C-29.78743485 43.0663656 -32.29788008 36.70913068 -33.2109375 27.69140625 C-33.53590936 19.95040988 -32.88331693 14.19238125 -27.86328125 8.125 C-19.76173912 -0.217182 -11.69803689 -3.57484347 0 0 Z " fill="#E9EEEA" transform="translate(387.86328125,111.875)"/>
<path d="M0 0 C5.61 0 11.22 0 17 0 C17 5.61 17 11.22 17 17 C21.62 17 26.24 17 31 17 C31 21.62 31 26.24 31 31 C26.38 31 21.76 31 17 31 C17.11980059 35.09361158 17.24240711 39.18698478 17.37231445 43.28027344 C17.41565846 44.6731259 17.45733396 46.06603131 17.49731445 47.45898438 C17.55502932 49.45976651 17.61921869 51.46035859 17.68359375 53.4609375 C17.72025146 54.66540527 17.75690918 55.86987305 17.79467773 57.11083984 C17.81052987 59.93996367 17.81052987 59.93996367 19 62 C22.04581269 62.46954261 22.04581269 62.46954261 25.5625 62.625 C28.7490625 62.810625 28.7490625 62.810625 32 63 C32 67.62 32 72.24 32 77 C28.62413315 77.10831658 25.25176769 77.18746727 21.875 77.25 C20.92367187 77.28351563 19.97234375 77.31703125 18.9921875 77.3515625 C13.10810569 77.43328586 9.62953685 77.02058034 5 73 C0.33242035 67.95396795 -0.12678038 64.40443403 -0.11352539 57.67089844 C-0.11344986 56.38987244 -0.11337433 55.10884644 -0.11329651 53.78900146 C-0.10819026 52.39579225 -0.10297427 51.00258343 -0.09765625 49.609375 C-0.09579032 48.18019663 -0.09436724 46.75101762 -0.09336853 45.32183838 C-0.08955715 41.56699852 -0.07973867 37.81219757 -0.06866455 34.05737305 C-0.05842075 30.22314988 -0.05386455 26.38892041 -0.04882812 22.5546875 C-0.03811513 15.03643857 -0.02052953 7.5182297 0 0 Z " fill="#060606" transform="translate(500,102)"/>
<path d="M0 0 C5.28 0 10.56 0 16 0 C16 27.06 16 54.12 16 82 C10.72 82 5.44 82 0 82 C0 54.94 0 27.88 0 0 Z " fill="#000000" transform="translate(540,97)"/>
<path d="M0 0 C4.95 0 9.9 0 15 0 C15.33 2.31 15.66 4.62 16 7 C16.54269531 6.57847656 17.08539062 6.15695313 17.64453125 5.72265625 C18.35996094 5.17480469 19.07539062 4.62695312 19.8125 4.0625 C20.52019531 3.51722656 21.22789062 2.97195312 21.95703125 2.41015625 C25.37667127 0.04975463 28.15048132 -0.11492881 32.1875 -0.0625 C33.08855469 -0.05347656 33.98960937 -0.04445313 34.91796875 -0.03515625 C35.60503906 -0.02355469 36.29210937 -0.01195313 37 0 C37.02685412 2.31243792 37.04632841 4.6249627 37.0625 6.9375 C37.07410156 8.22527344 37.08570313 9.51304687 37.09765625 10.83984375 C37 14 37 14 36 15 C34.08506033 15.13216608 32.16774908 15.23064486 30.25 15.3125 C26.34224045 15.60952685 24.30393597 15.82371714 20.875 17.8125 C16.94526303 22.39719313 16.6750595 26.34938484 16.5859375 32.265625 C16.56657135 33.05902283 16.5472052 33.85242065 16.5272522 34.66986084 C16.46761639 37.19646557 16.42113557 39.72311625 16.375 42.25 C16.33680545 43.96616537 16.29775285 45.68231187 16.2578125 47.3984375 C16.16031724 51.59885848 16.08062361 55.79908582 16 60 C10.72 60 5.44 60 0 60 C0 40.2 0 20.4 0 0 Z " fill="#030303" transform="translate(667,119)"/>
<path d="M0 0 C5.61 0 11.22 0 17 0 C17 20.13 17 40.26 17 61 C11.39 61 5.78 61 0 61 C0 40.87 0 20.74 0 0 Z " fill="#0A0A0A" transform="translate(568,118)"/>
<path d="M0 0 C0.495 0.309375 0.99 0.61875 1.5 0.9375 C5.01539321 2.43154211 8.19050969 2.6877467 12 3 C12.33 2.67 12.66 2.34 13 2 C15.67058851 1.85884839 18.32432238 1.95752893 21 2 C21 5.96 21 9.92 21 14 C19.78183594 14.37511719 18.56367187 14.75023437 17.30859375 15.13671875 C15.68468708 15.65298966 14.06100068 16.1699538 12.4375 16.6875 C11.63763672 16.93177734 10.83777344 17.17605469 10.01367188 17.42773438 C4.52041118 19.19903068 0.59746882 21.52675136 -4 25 C-4.66 25 -5.32 25 -6 25 C-6 25.66 -6 26.32 -6 27 C-12.40766041 28.83292414 -17.41276707 29.04559253 -24 28 C-24.66 26.02 -25.32 24.04 -26 22 C-26.99 22 -27.98 22 -29 22 C-28.20421364 18.55159242 -27.13364841 15.40094522 -26 12 C-20.72 12 -15.44 12 -10 12 C-10 12.66 -10 13.32 -10 14 C-8.88625 13.835 -7.7725 13.67 -6.625 13.5 C-3 13 -3 13 -1 13 C-1 12.01 -1 11.02 -1 10 C-3.31 10.33 -5.62 10.66 -8 11 C-7.34 9.68 -6.68 8.36 -6 7 C-6.99 6.67 -7.98 6.34 -9 6 C-4.25 3 -4.25 3 -2 3 C-1.34 2.01 -0.68 1.02 0 0 Z " fill="#A5C8CF" transform="translate(779,369)"/>
<path d="M0 0 C0.6875 1.6875 0.6875 1.6875 1 4 C-0.4375 6.75 -0.4375 6.75 -2 9 C-1.01 9 -0.02 9 1 9 C1.66 10.65 2.32 12.3 3 14 C9.32629569 14.90375653 14.67370431 14.90375653 21 14 C21 13.34 21 12.68 21 12 C27.95041841 5.72991355 38.66404594 1 48 1 C48.28327207 4.7077167 48.42757229 8.29985518 48 12 C45.9375 14 45.9375 14 43 15 C41.845 15.495 40.69 15.99 39.5 16.5 C38.345 16.995 37.19 17.49 36 18 C35.236875 18.515625 34.47375 19.03125 33.6875 19.5625 C27.08374742 23.09473975 18.68802783 23.4073231 11.37109375 24.53515625 C9.0534561 24.76058994 9.0534561 24.76058994 8 26 C6.00041636 26.04080783 3.99954746 26.04254356 2 26 C1.67 24.35 1.34 22.7 1 21 C-0.32 20.67 -1.64 20.34 -3 20 C-3.33 18.35 -3.66 16.7 -4 15 C-3.34 15 -2.68 15 -2 15 C-2 14.34 -2 13.68 -2 13 C-1.34 12.67 -0.68 12.34 0 12 C-3.465 10.02 -3.465 10.02 -7 8 C-3.25 4.125 -3.25 4.125 -1 3 C-0.67 2.01 -0.34 1.02 0 0 Z " fill="#D2E2E3" transform="translate(752,382)"/>
<path d="M0 0 C0.33 0 0.66 0 1 0 C1.268125 1.134375 1.53625 2.26875 1.8125 3.4375 C2.4003125 5.2009375 2.4003125 5.2009375 3 7 C3.99 7.33 4.98 7.66 6 8 C6.309375 8.78375 6.61875 9.5675 6.9375 10.375 C8.14208614 13.35103635 9.33158609 14.31000453 12 16 C13.65 13.69 15.3 11.38 17 9 C21.97209562 10.76429199 26.43438061 13.3939166 31 16 C31 16.66 31 17.32 31 18 C31.598125 18.28875 32.19625 18.5775 32.8125 18.875 C35 20 35 20 38 22 C38 22.66 38 23.32 38 24 C38.99 24.33 39.98 24.66 41 25 C40.33333333 26.33333333 39.66666667 27.66666667 39 29 C33.68972746 27.53967505 29.53669968 25.01679014 25 22 C24.67 23.65 24.34 25.3 24 27 C24.99 27.33 25.98 27.66 27 28 C22.85837086 27.53981898 20.75182176 27.14493915 18 24 C17.01 23.67 16.02 23.34 15 23 C10.9234502 19.27286875 7.38199926 15.06257658 3.76953125 10.890625 C2.13136012 8.92091997 2.13136012 8.92091997 0 8 C0.33 9.98 0.66 11.96 1 14 C0.01 14.495 0.01 14.495 -1 15 C-1.99 14.34 -2.98 13.68 -4 13 C-3 11 -3 11 -2 10 C-1.95907063 7.66702567 -1.95758277 5.33294775 -2 3 C-1.34 3 -0.68 3 0 3 C0 2.01 0 1.02 0 0 Z " fill="#BFD8D9" transform="translate(707,334)"/>
<path d="M0 0 C3.70718433 0.81785983 5.13329673 2.33819937 7.16015625 5.4765625 C7.83084307 8.50064145 7.61585733 10.28665496 7.16015625 13.4765625 C5.29000531 15.90775873 3.8787728 17.11725423 1.16015625 18.4765625 C-3.02128386 18.87103798 -5.14930423 18.92691436 -8.71484375 16.6015625 C-11.42716765 13.8892386 -11.77898468 13.01415097 -12.21484375 9.1640625 C-11.83984375 5.4765625 -11.83984375 5.4765625 -9.90234375 2.5390625 C-6.32643379 0.13079661 -4.23452677 -0.26863442 0 0 Z " fill="#060606" transform="translate(578.83984375,93.5234375)"/>
<path d="M0 0 C4.21165289 2.10582644 6.69283919 4.76262223 9.5703125 8.37890625 C11.09773544 10.25086359 11.09773544 10.25086359 14 12 C14 12.66 14 13.32 14 14 C14.66 14 15.32 14 16 14 C18.15305957 17.85756507 19.39253254 20.55129785 19 25 C18.34 25 17.68 25 17 25 C17 25.66 17 26.32 17 27 C14.4385343 29.29648649 13.52032428 30 10 30 C10 30.66 10 31.32 10 32 C6.7 32 3.4 32 0 32 C0.66 29.36 1.32 26.72 2 24 C2.66 24 3.32 24 4 24 C3.938125 22.7625 3.87625 21.525 3.8125 20.25 C3.80728267 17.30742414 3.9210548 16.14353673 5.375 13.5 C7 12 7 12 9 12 C8.51789062 11.46890625 8.03578125 10.9378125 7.5390625 10.390625 C6.59160156 9.33101563 6.59160156 9.33101563 5.625 8.25 C4.99851562 7.55390625 4.37203125 6.8578125 3.7265625 6.140625 C2.12494817 4.15491312 1.03479932 2.32045907 0 0 Z " fill="#C7DCDD" transform="translate(685,388)"/>
<path d="M0 0 C3.01613579 1.98790768 4.81689724 3.76414565 6.75 6.8125 C6.75 8.1325 6.75 9.4525 6.75 10.8125 C-2.49 10.8125 -11.73 10.8125 -21.25 10.8125 C-19.36348647 5.1529594 -18.54826587 3.48175136 -14.25 -0.1875 C-9.22141801 -1.863694 -4.90969589 -1.79392735 0 0 Z " fill="#EAEBE6" transform="translate(633.25,131.1875)"/>
<path d="M0 0 C5.12988119 5.61844131 6.48418724 13.64966818 7 21 C6.67 21.66 6.34 22.32 6 23 C6.97119166 25.91357499 8.07516169 27.06012935 10.5 29 C12.92405976 30.93924781 13.88553115 32.16317019 15 35 C13.515 35.495 13.515 35.495 12 36 C11.34 35.34 10.68 34.68 10 34 C8.72285575 33.521762 7.42849502 33.08838621 6.125 32.6875 C2.16536305 31.25024521 0.16906855 29.7307979 -2 26 C-4.04782452 18.66196213 -3.29219317 10.4301107 -2 3 C-1.34 3 -0.68 3 0 3 C0 2.01 0 1.02 0 0 Z " fill="#D0E1E1" transform="translate(695,322)"/>
<path d="M0 0 C0.495 0.309375 0.99 0.61875 1.5 0.9375 C5.01539321 2.43154211 8.19050969 2.6877467 12 3 C12.33 2.67 12.66 2.34 13 2 C15.67058851 1.85884839 18.32432238 1.95752893 21 2 C21 3.98 21 5.96 21 8 C20.071875 7.95875 19.14375 7.9175 18.1875 7.875 C13.0268365 7.8537627 8.03837402 8.97956982 3 10 C3.33 10.99 3.66 11.98 4 13 C-3.58072068 17.04305103 -14.81836542 15.32002019 -23 14 C-23.99 13.34 -24.98 12.68 -26 12 C-20.72 12 -15.44 12 -10 12 C-10 12.66 -10 13.32 -10 14 C-8.88625 13.835 -7.7725 13.67 -6.625 13.5 C-3 13 -3 13 -1 13 C-1 12.01 -1 11.02 -1 10 C-3.31 10.33 -5.62 10.66 -8 11 C-7.34 9.68 -6.68 8.36 -6 7 C-6.99 6.67 -7.98 6.34 -9 6 C-4.25 3 -4.25 3 -2 3 C-1.34 2.01 -0.68 1.02 0 0 Z " fill="#BCD5D8" transform="translate(779,369)"/>
<path d="M0 0 C1.17046875 0.01804687 2.3409375 0.03609375 3.546875 0.0546875 C4.88492187 0.08949219 4.88492187 0.08949219 6.25 0.125 C5.26 0.785 4.27 1.445 3.25 2.125 C3.023125 3.07375 2.79625 4.0225 2.5625 5 C0.88461431 8.99496594 -0.81797502 9.63892397 -4.66015625 11.3203125 C-7.33142629 12.34887629 -10.01676529 13.27466031 -12.75 14.125 C-14.0803125 14.681875 -14.0803125 14.681875 -15.4375 15.25 C-17.75 16.125 -17.75 16.125 -20.75 16.125 C-21.41 19.425 -22.07 22.725 -22.75 26.125 C-23.08 26.125 -23.41 26.125 -23.75 26.125 C-24.38339989 19.1576012 -22.94821392 14.74275388 -18.75 9.125 C-12.92100263 3.05360868 -8.58010255 -0.17160205 0 0 Z " fill="#CDDBDA" transform="translate(378.75,110.875)"/>
<path d="M0 0 C1.98 0 3.96 0 6 0 C8.1500933 6.31589907 9.15083538 12.54749386 7 19 C7.763125 19.0825 8.52625 19.165 9.3125 19.25 C12.52373261 20.14615794 13.29374499 21.21611025 15 24 C14.34 25.32 13.68 26.64 13 28 C11 28 11 28 9.375 26.5 C8.92125 26.005 8.4675 25.51 8 25 C8 25.66 8 26.32 8 27 C7.01 27 6.02 27 5 27 C-1.60670162 19.81035412 -0.17923225 9.18067403 0 0 Z " fill="#B6D1D4" transform="translate(179,0)"/>
<path d="M0 0 C1.60875 -0.04125 3.2175 -0.0825 4.875 -0.125 C5.77992188 -0.14820313 6.68484375 -0.17140625 7.6171875 -0.1953125 C10 0 10 0 12 2 C11.66666667 3.66666667 11.33333333 5.33333333 11 7 C11.66 7.66 12.32 8.32 13 9 C13.3125 12 13.3125 12 13 15 C8.61501596 17.92332269 5.2225328 17.1356502 0 17 C0 11.39 0 5.78 0 0 Z " fill="#6DC7DB" transform="translate(133,341)"/>
<path d="M0 0 C0.99 0 1.98 0 3 0 C2.71890887 1.64767247 2.42481474 3.29313145 2.125 4.9375 C1.96257812 5.85402344 1.80015625 6.77054687 1.6328125 7.71484375 C1.42398438 8.46894531 1.21515625 9.22304688 1 10 C0.01 10.495 0.01 10.495 -1 11 C-0.34 11.391875 0.32 11.78375 1 12.1875 C3 14 3 14 3.3125 16.625 C3 19 3 19 2 20 C0.31391034 20.07205511 -1.37500659 20.08386068 -3.0625 20.0625 C-3.98160156 20.05347656 -4.90070313 20.04445313 -5.84765625 20.03515625 C-6.55792969 20.02355469 -7.26820313 20.01195312 -8 20 C-9.16724608 15.72009772 -8.77518365 12.34102843 -8 8 C-7.835 7.05125 -7.67 6.1025 -7.5 5.125 C-7 3 -7 3 -6 2 C-4.00041636 1.95919217 -1.99954746 1.95745644 0 2 C0 1.34 0 0.68 0 0 Z " fill="#6FC8DB" transform="translate(224,343)"/>
<path d="M0 0 C1.32 0 2.64 0 4 0 C4 5.94 4 11.88 4 18 C-3.51953125 18.390625 -3.51953125 18.390625 -6 18 C-8.4060767 15.56260777 -8.95421099 14.3739436 -9.375 10.9375 C-9 8 -9 8 -7.8125 6.125 C-5.43963721 4.65218861 -3.74086056 4.77776806 -1 5 C-0.67 3.35 -0.34 1.7 0 0 Z " fill="#7ACCDD" transform="translate(295,340)"/>
<path d="M0 0 C0.99 0 1.98 0 3 0 C3 5.94 3 11.88 3 18 C1.68 17.67 0.36 17.34 -1 17 C-1.33 17.33 -1.66 17.66 -2 18 C-4.375 18.3125 -4.375 18.3125 -7 18 C-8.875 16.4375 -8.875 16.4375 -10 14 C-9.67272727 7.67272727 -9.67272727 7.67272727 -7 5 C-3.375 5.375 -3.375 5.375 0 6 C0 4.02 0 2.04 0 0 Z " fill="#74CADC" transform="translate(499,340)"/>
<path d="M0 0 C0.99 0 1.98 0 3 0 C3 5.94 3 11.88 3 18 C1.39125 18.061875 -0.2175 18.12375 -1.875 18.1875 C-2.77992188 18.22230469 -3.68484375 18.25710938 -4.6171875 18.29296875 C-5.79667969 18.14794922 -5.79667969 18.14794922 -7 18 C-9.46324069 14.30513897 -9.38991688 12.36706908 -9 8 C-7.8125 6.0625 -7.8125 6.0625 -6 5 C-3.3125 4.8125 -3.3125 4.8125 -1 5 C-0.67 3.35 -0.34 1.7 0 0 Z " fill="#70C8DB" transform="translate(413,340)"/>
<path d="M0 0 C0.99 0 1.98 0 3 0 C3 5.94 3 11.88 3 18 C1.39125 18.061875 -0.2175 18.12375 -1.875 18.1875 C-2.77992188 18.22230469 -3.68484375 18.25710938 -4.6171875 18.29296875 C-5.79667969 18.14794922 -5.79667969 18.14794922 -7 18 C-9.46324069 14.30513897 -9.38991688 12.36706908 -9 8 C-7.8125 6.0625 -7.8125 6.0625 -6 5 C-3.3125 4.8125 -3.3125 4.8125 -1 5 C-0.67 3.35 -0.34 1.7 0 0 Z " fill="#6FC8DB" transform="translate(187,340)"/>
<path d="M0 0 C1.98 0 3.96 0 6 0 C6.83919398 2.26882087 7.67151724 4.53977027 8.5 6.8125 C8.73847656 7.45509766 8.97695313 8.09769531 9.22265625 8.75976562 C10.27068746 11.64933739 11 13.90076061 11 17 C9.68 17 8.36 17 7 17 C7 15.68 7 14.36 7 13 C4.69 13.33 2.38 13.66 0 14 C-0.33 14.99 -0.66 15.98 -1 17 C-2.32 17 -3.64 17 -5 17 C-1.92482916 5.47835991 -1.92482916 5.47835991 0 0 Z " fill="#70C8DB" transform="translate(650,341)"/>
<path d="M0 0 C4 0 8 0 12 0 C13.2684375 -0.061875 13.2684375 -0.061875 14.5625 -0.125 C17 0 17 0 19 2 C19.1953125 4.6015625 19.1953125 4.6015625 19.125 7.625 C19.10695313 8.62789063 19.08890625 9.63078125 19.0703125 10.6640625 C19.04710937 11.43492187 19.02390625 12.20578125 19 13 C17.68 13 16.36 13 15 13 C15 9.7 15 6.4 15 3 C14.01 3.33 13.02 3.66 12 4 C11.67 6.97 11.34 9.94 11 13 C10.01 13 9.02 13 8 13 C8 9.7 8 6.4 8 3 C6.68 3.33 5.36 3.66 4 4 C3.67 6.97 3.34 9.94 3 13 C2.01 13 1.02 13 0 13 C0 8.71 0 4.42 0 0 Z " fill="#6BC7DA" transform="translate(326,345)"/>
<path d="M0 0 C2.09749995 2.35968744 2.96905704 3.54616994 3.1875 6.75 C3.125625 7.4925 3.06375 8.235 3 9 C3.99 9 4.98 9 6 9 C6.23787063 11.37870627 6.47482541 13.75745018 6.70703125 16.13671875 C6.89507691 17.97455167 7.09940783 19.81083252 7.32421875 21.64453125 C7.92198074 26.69833715 7.97849754 30.99879033 7 36 C5.68 35.34 4.36 34.68 3 34 C3.66 34 4.32 34 5 34 C4.855625 32.700625 4.71125 31.40125 4.5625 30.0625 C4.48128906 29.33160156 4.40007812 28.60070312 4.31640625 27.84765625 C4.18113386 25.98859771 4.18113386 25.98859771 3 25 C2.85884839 22.32941149 2.95752893 19.67567762 3 17 C2.34 17 1.68 17 1 17 C-0.25664978 14.09399739 -1 12.20395416 -1 9 C-1.66 9 -2.32 9 -3 9 C-3.33 6.69 -3.66 4.38 -4 2 C-2.515 2.99 -2.515 2.99 -1 4 C-0.67 2.68 -0.34 1.36 0 0 Z " fill="#D1E2E2" transform="translate(186,47)"/>
<path d="M0 0 C2.43869509 7.31608526 1.43438575 16.46947483 0 24 C-0.33 24 -0.66 24 -1 24 C-1.33 21.03 -1.66 18.06 -2 15 C-2.66 18.3 -3.32 21.6 -4 25 C-4.66 25 -5.32 25 -6 25 C-6 28.96 -6 32.92 -6 37 C-7.32 37.66 -8.64 38.32 -10 39 C-9.85973717 36.68715544 -9.71264442 34.37472409 -9.5625 32.0625 C-9.48128906 30.77472656 -9.40007812 29.48695313 -9.31640625 28.16015625 C-9 25 -9 25 -8 24 C-7.71681146 21.15912448 -7.55149787 18.31834785 -7.37890625 15.46875 C-7.25386719 14.6540625 -7.12882813 13.839375 -7 13 C-6.34 12.67 -5.68 12.34 -5 12 C-4.39625208 9.46425873 -4.04218874 6.92544828 -3.66015625 4.34765625 C-3 2 -3 2 0 0 Z " fill="#C9DDDD" transform="translate(250,225)"/>
<path d="M0 0 C3.5625 0.3125 3.5625 0.3125 5.5 1.375 C7.1765629 4.43226176 6.92778977 6.9031288 6.5625 10.3125 C5.5 12.25 5.5 12.25 3.5625 13.3125 C0.0625 13.75 0.0625 13.75 -3.4375 13.3125 C-5.4375 11.75 -5.4375 11.75 -6.4375 9.3125 C-5.98395669 0.54399606 -5.98395669 0.54399606 0 0 Z " fill="#71C9DB" transform="translate(259.4375,344.6875)"/>
<path d="M0 0 C0.99 0 1.98 0 3 0 C3.33 1.98 3.66 3.96 4 6 C4.66 6 5.32 6 6 6 C6.33 4.02 6.66 2.04 7 0 C8.32 0 9.64 0 11 0 C11.33 1.98 11.66 3.96 12 6 C12.66 6 13.32 6 14 6 C14 4.35 14 2.7 14 1 C15.32 0.67 16.64 0.34 18 0 C17.69128878 1.79232337 17.37790936 3.58384321 17.0625 5.375 C16.80146484 6.87160156 16.80146484 6.87160156 16.53515625 8.3984375 C16 11 16 11 15 13 C13.68 13 12.36 13 11 13 C10.67 10.69 10.34 8.38 10 6 C9.34 6 8.68 6 8 6 C7.67 8.31 7.34 10.62 7 13 C5.68 13 4.36 13 3 13 C2.01 8.71 1.02 4.42 0 0 Z " fill="#7BCCDC" transform="translate(234,345)"/>
<path d="M0 0 C1.875 1.0625 1.875 1.0625 3 3 C3.63316583 8.90954774 3.63316583 8.90954774 1.875 11.9375 C-0.88980433 13.50422245 -2.88188517 13.38976435 -6 13 C-7.875 11.9375 -7.875 11.9375 -9 10 C-9.63316583 4.09045226 -9.63316583 4.09045226 -7.875 1.0625 C-5.11019567 -0.50422245 -3.11811483 -0.38976435 0 0 Z " fill="#6CC7DB" transform="translate(357,345)"/>
<path d="M0 0 C0.66 1.32 1.32 2.64 2 4 C1.36191406 3.98839844 0.72382812 3.97679687 0.06640625 3.96484375 C-0.75988281 3.95582031 -1.58617187 3.94679688 -2.4375 3.9375 C-3.26121094 3.92589844 -4.08492187 3.91429687 -4.93359375 3.90234375 C-6.99163938 3.76732652 -6.99163938 3.76732652 -8 5 C-8.16666667 8.5 -8.16666667 8.5 -8 12 C-6.93354885 13.29633621 -6.93354885 13.29633621 -4.4375 13.0625 C-3.633125 13.041875 -2.82875 13.02125 -2 13 C-1.67 12.01 -1.34 11.02 -1 10 C-2.32 10 -3.64 10 -5 10 C-5 9.34 -5 8.68 -5 8 C-2.69 8 -0.38 8 2 8 C2 10.97 2 13.94 2 17 C0.68 16.67 -0.64 16.34 -2 16 C-2.33 16.33 -2.66 16.66 -3 17 C-8.25496689 17.57119205 -8.25496689 17.57119205 -10.875 15.5625 C-12.57130913 11.69868477 -12.66220015 8.14826531 -12 4 C-9.04678281 -1.04507937 -5.29447002 -0.35296467 0 0 Z " fill="#6BC7DA" transform="translate(523,341)"/>
<path d="M0 0 C3.375 -0.125 3.375 -0.125 7 0 C10.44098882 3.44098882 9.67149426 8.29141772 10 13 C6.37 13 2.74 13 -1 13 C-1.33 11.02 -1.66 9.04 -2 7 C1 5 1 5 5 5 C5 4.34 5 3.68 5 3 C3.02 3.33 1.04 3.66 -1 4 C-0.67 2.68 -0.34 1.36 0 0 Z " fill="#86D0DE" transform="translate(435,345)"/>
<path d="M0 0 C3.375 -0.125 3.375 -0.125 7 0 C10.44098882 3.44098882 9.67149426 8.29141772 10 13 C6.37 13 2.74 13 -1 13 C-1.33 11.02 -1.66 9.04 -2 7 C1 5 1 5 5 5 C5 4.34 5 3.68 5 3 C3.02 3.33 1.04 3.66 -1 4 C-0.67 2.68 -0.34 1.36 0 0 Z " fill="#86D0DF" transform="translate(392,345)"/>
<path d="M0 0 C3.5 0.25 3.5 0.25 5.5 2.25 C5.625 4.875 5.625 4.875 5.5 7.25 C2.86 7.25 0.22 7.25 -2.5 7.25 C-2.17 7.91 -1.84 8.57 -1.5 9.25 C0.48 9.25 2.46 9.25 4.5 9.25 C4.5 10.24 4.5 11.23 4.5 12.25 C3.5 13.25 3.5 13.25 0.125 13.5625 C-3.5 13.25 -3.5 13.25 -5.5 11.6875 C-6.91970326 8.22697331 -6.36301515 5.83483216 -5.5 2.25 C-3.5 0.25 -3.5 0.25 0 0 Z " fill="#7FCDDD" transform="translate(632.5,344.75)"/>
<path d="M0 0 C2 2 2 2 2.125 4.625 C2.08375 5.40875 2.0425 6.1925 2 7 C-0.64 7 -3.28 7 -6 7 C-5.67 7.66 -5.34 8.32 -5 9 C-3.02 9 -1.04 9 1 9 C1 9.99 1 10.98 1 12 C0 13 0 13 -3.375 13.3125 C-7 13 -7 13 -9 11.4375 C-10.43135511 7.94857191 -9.933966 5.60244028 -9 2 C-5.54754176 -0.30163882 -4.05261287 -0.34490322 0 0 Z " fill="#83CFDE" transform="translate(538,345)"/>
<path d="M0 0 C2 2 2 2 2.125 4.625 C2.08375 5.40875 2.0425 6.1925 2 7 C-0.64 7 -3.28 7 -6 7 C-5.67 7.66 -5.34 8.32 -5 9 C-3.02 9 -1.04 9 1 9 C1 9.99 1 10.98 1 12 C0 13 0 13 -3.375 13.3125 C-7 13 -7 13 -9 11.4375 C-10.43135511 7.94857191 -9.933966 5.60244028 -9 2 C-5.54754176 -0.30163882 -4.05261287 -0.34490322 0 0 Z " fill="#84CFDE" transform="translate(485,345)"/>
<path d="M0 0 C2 2 2 2 2.1953125 3.9453125 C2.13020833 5.96354167 2.06510417 7.98177083 2 10 C2.66 10 3.32 10 4 10 C4 10.99 4 11.98 4 13 C2.18757948 13.02687279 0.37504767 13.04633715 -1.4375 13.0625 C-2.44683594 13.07410156 -3.45617187 13.08570313 -4.49609375 13.09765625 C-7 13 -7 13 -8 12 C-8.25 9.5625 -8.25 9.5625 -8 7 C-5 5 -5 5 -1 5 C-1 4.34 -1 3.68 -1 3 C-2.98 3.33 -4.96 3.66 -7 4 C-7.33 3.01 -7.66 2.02 -8 1 C-5.23749964 -0.38125018 -3.05268901 -0.19079306 0 0 Z " fill="#7FCDDD" transform="translate(590,345)"/>
<path d="M0 0 C2.31 0 4.62 0 7 0 C7.91160286 7.35793733 8.11459026 14.58982977 8 22 C7.34 22.33 6.68 22.66 6 23 C6.33 21.68 6.66 20.36 7 19 C5.68 19.99 4.36 20.98 3 22 C2.00749455 16.29309366 1.89522488 10.78591511 2 5 C1.34 5 0.68 5 0 5 C0 3.35 0 1.7 0 0 Z " fill="#D3E3E3" transform="translate(172,0)"/>
<path d="M0 0 C1.875 1.25 1.875 1.25 3 3 C3 4.32 3 5.64 3 7 C0.03 7 -2.94 7 -6 7 C-5.67 7.66 -5.34 8.32 -5 9 C-3.02 9 -1.04 9 1 9 C1.33 9.99 1.66 10.98 2 12 C-0.79870027 13.39935013 -2.90498792 13.25265405 -6 13 C-7.875 11.9375 -7.875 11.9375 -9 10 C-9.63316583 4.09045226 -9.63316583 4.09045226 -7.875 1.0625 C-5.11019567 -0.50422245 -3.11811483 -0.38976435 0 0 Z " fill="#6DC7DB" transform="translate(567,345)"/>
<path d="M0 0 C1.32 0.33 2.64 0.66 4 1 C4.33 0.67 4.66 0.34 5 0 C7.4375 -0.1875 7.4375 -0.1875 10 0 C12 2 12 2 12.1953125 4.6015625 C12.17210937 5.59929687 12.14890625 6.59703125 12.125 7.625 C12.10695313 8.62789063 12.08890625 9.63078125 12.0703125 10.6640625 C12.03550781 11.82035156 12.03550781 11.82035156 12 13 C10.68 13 9.36 13 8 13 C8 9.7 8 6.4 8 3 C6.68 3.33 5.36 3.66 4 4 C3.67 6.97 3.34 9.94 3 13 C2.01 13 1.02 13 0 13 C0 8.71 0 4.42 0 0 Z " fill="#79CBDC" transform="translate(543,345)"/>
<path d="M0 0 C1.32 0.33 2.64 0.66 4 1 C4.33 0.67 4.66 0.34 5 0 C7.4375 -0.1875 7.4375 -0.1875 10 0 C12 2 12 2 12.1953125 4.6015625 C12.17210937 5.59929687 12.14890625 6.59703125 12.125 7.625 C12.10695312 8.62789063 12.08890625 9.63078125 12.0703125 10.6640625 C12.03550781 11.82035156 12.03550781 11.82035156 12 13 C10.68 13 9.36 13 8 13 C8 9.7 8 6.4 8 3 C6.68 3.33 5.36 3.66 4 4 C3.67 6.97 3.34 9.94 3 13 C2.01 13 1.02 13 0 13 C0 8.71 0 4.42 0 0 Z " fill="#77CADC" transform="translate(201,345)"/>
<path d="M0 0 C7.71484375 -0.09765625 7.71484375 -0.09765625 10 0 C11 1 11 1 11.09765625 3.72265625 C11.08605469 4.82480469 11.07445312 5.92695313 11.0625 7.0625 C11.05347656 8.16722656 11.04445313 9.27195312 11.03515625 10.41015625 C11.02355469 11.26480469 11.01195312 12.11945313 11 13 C10.01 13 9.02 13 8 13 C8 9.7 8 6.4 8 3 C6.68 3.33 5.36 3.66 4 4 C3.67 6.97 3.34 9.94 3 13 C2.01 13 1.02 13 0 13 C0 8.71 0 4.42 0 0 Z " fill="#6BC7DB" transform="translate(448,345)"/>
<path d="M0 0 C0.99 0 1.98 0 3 0 C3 3.3 3 6.6 3 10 C4.32 9.67 5.64 9.34 7 9 C7.33 6.03 7.66 3.06 8 0 C8.99 0 9.98 0 11 0 C11 4.29 11 8.58 11 13 C7.7 13 4.4 13 1 13 C-0.32229189 10.35541621 -0.09677194 8.32238699 -0.0625 5.375 C-0.05347656 4.37210937 -0.04445312 3.36921875 -0.03515625 2.3359375 C-0.02355469 1.56507813 -0.01195312 0.79421875 0 0 Z " fill="#6AC6DA" transform="translate(149,345)"/>
<path d="M0 0 C3.06393013 -0.25532751 4.63233212 -0.21861333 7.3125 1.375 C7.869375 1.91125 8.42625 2.4475 9 3 C9 3.66 9 4.32 9 5 C9.61875 5.28875 10.2375 5.5775 10.875 5.875 C13 7 13 7 15 9 C15 10.32 15 11.64 15 13 C15.99 13.33 16.98 13.66 18 14 C19.95065425 18.3534469 20.22148123 22.14741951 20.125 26.875 C20.10695312 28.02742188 20.08890625 29.17984375 20.0703125 30.3671875 C20.04710937 31.23601562 20.02390625 32.10484375 20 33 C19.67 33 19.34 33 19 33 C18.92523438 32.34515625 18.85046875 31.6903125 18.7734375 31.015625 C17.32485974 20.96079115 13.97055424 11.44300961 5.61328125 5.1796875 C5.08089844 4.79039063 4.54851562 4.40109375 4 4 C2.64946454 2.68409365 1.30693833 1.35921586 0 0 Z " fill="#24547D" transform="translate(175,108)"/>
<path d="M0 0 C0.99 0.495 0.99 0.495 2 1 C3.43753696 6.75014784 3.88593444 13.34219669 2 19 C2.763125 19.0825 3.52625 19.165 4.3125 19.25 C7.52373261 20.14615794 8.29374499 21.21611025 10 24 C9.34 25.32 8.68 26.64 8 28 C6 28 6 28 4.375 26.5 C3.92125 26.005 3.4675 25.51 3 25 C3 25.66 3 26.32 3 27 C2.01 27 1.02 27 0 27 C0.16749756 26.45182617 0.33499512 25.90365234 0.50756836 25.33886719 C1.07435763 22.6468289 1.01626261 20.32525219 0.87890625 17.578125 C0.83056641 16.55332031 0.78222656 15.52851563 0.73242188 14.47265625 C0.67634766 13.40917969 0.62027344 12.34570312 0.5625 11.25 C0.51029297 10.17105469 0.45808594 9.09210937 0.40429688 7.98046875 C0.27480531 5.32000578 0.13984639 2.65993548 0 0 Z " fill="#C6DBDC" transform="translate(184,0)"/>
<path d="M0 0 C0.28329963 3.70807732 0.42094379 7.29897471 0 11 C-3.44667101 14.66208795 -8.19147392 14.59249779 -13 15 C-10.16569547 11.7457985 -8.31392226 10.4793247 -4 10 C-4.20625 9.21625 -4.4125 8.4325 -4.625 7.625 C-4.74875 6.75875 -4.8725 5.8925 -5 5 C-4.34 4.34 -3.68 3.68 -3 3 C-3.886875 3.33 -4.77375 3.66 -5.6875 4 C-8.70923347 4.91222143 -10.88373706 5.18330958 -14 5 C-11.96470413 2.96470413 -10.76582618 2.3615728 -8.125 1.375 C-7.10792969 0.98441406 -7.10792969 0.98441406 -6.0703125 0.5859375 C-4 0 -4 0 0 0 Z " fill="#CBDFE0" transform="translate(800,383)"/>
<path d="M0 0 C0.33 0.99 0.66 1.98 1 3 C-1.97 2.505 -1.97 2.505 -5 2 C-5 2.99 -5 3.98 -5 5 C-2.03 5.495 -2.03 5.495 1 6 C1.625 8.375 1.625 8.375 2 11 C0 13 0 13 -3.5 13.1875 C-7 13 -7 13 -9 12 C-8.67 11.01 -8.34 10.02 -8 9 C-5.03 9.495 -5.03 9.495 -2 10 C-2 9.34 -2 8.68 -2 8 C-2.804375 7.855625 -3.60875 7.71125 -4.4375 7.5625 C-7 7 -7 7 -8 6 C-8.04063832 4.33382885 -8.042721 2.66611905 -8 1 C-5.29120665 -0.35439668 -2.99066732 -0.06501451 0 0 Z " fill="#74CADC" transform="translate(371,345)"/>
<path d="M0 0 C1.32 0 2.64 0 4 0 C6 3 6 3 6 5 C6.61875 5.2475 7.2375 5.495 7.875 5.75 C10.43742053 7.2573062 10.90915987 8.27289968 12 11 C12.391875 11.825 12.78375 12.65 13.1875 13.5 C14.08666291 16.2666551 13.80878528 17.29257693 13 20 C12.55269531 19.33613281 12.10539063 18.67226563 11.64453125 17.98828125 C7.79973093 12.24096048 7.79973093 12.24096048 3.125 7.1875 C0.75997251 4.75291288 0.2858599 3.33503221 0 0 Z " fill="#D1E1E1" transform="translate(676,305)"/>
<path d="M0 0 C1.875 0.125 1.875 0.125 4 1 C5.25 4.0625 5.25 4.0625 6 7 C6.99 4.69 7.98 2.38 9 0 C10.32 0.33 11.64 0.66 13 1 C11.35 4.96 9.7 8.92 8 13 C6.68 13 5.36 13 4 13 C3.32694982 11.39850114 2.66177773 9.79368971 2 8.1875 C1.62875 7.29417969 1.2575 6.40085937 0.875 5.48046875 C0 3 0 3 0 0 Z " fill="#71C8DB" transform="translate(612,345)"/>
<path d="M0 0 C0.99 0 1.98 0 3 0 C2.67 1.32 2.34 2.64 2 4 C1.34 4 0.68 4 0 4 C-0.2578125 4.7321875 -0.515625 5.464375 -0.78125 6.21875 C-2.40339398 9.92056576 -4.77682967 12.62974418 -7.34375 15.71875 C-9.11276669 17.95321813 -9.11276669 17.95321813 -10.0546875 20.69921875 C-11 23 -11 23 -13.625 24.3125 C-14.40875 24.539375 -15.1925 24.76625 -16 25 C-13.84488595 19.40938062 -11.51805848 14.96065721 -7.3671875 10.60546875 C-5.87189603 8.84956934 -4.9530512 7.09217431 -4 5 C-3.34 5.33 -2.68 5.66 -2 6 C-1.34 4.02 -0.68 2.04 0 0 Z " fill="#D5E3E3" transform="translate(290,227)"/>
<path d="M0 0 C1.134375 0.020625 2.26875 0.04125 3.4375 0.0625 C3.7675 1.0525 4.0975 2.0425 4.4375 3.0625 C2.4575 3.0625 0.4775 3.0625 -1.5625 3.0625 C-1.5625 3.7225 -1.5625 4.3825 -1.5625 5.0625 C1.4075 5.5575 1.4075 5.5575 4.4375 6.0625 C5.0625 8.4375 5.0625 8.4375 5.4375 11.0625 C3.4375 13.0625 3.4375 13.0625 -0.1875 13.1875 C-1.30125 13.14625 -2.415 13.105 -3.5625 13.0625 C-3.8925 11.7425 -4.2225 10.4225 -4.5625 9.0625 C-2.5825 9.7225 -0.6025 10.3825 1.4375 11.0625 C1.4375 10.0725 1.4375 9.0825 1.4375 8.0625 C-0.5425 7.4025 -2.5225 6.7425 -4.5625 6.0625 C-4.605221 4.39638095 -4.60313832 2.72867115 -4.5625 1.0625 C-3.5625 0.0625 -3.5625 0.0625 0 0 Z " fill="#73C9DC" transform="translate(312.5625,344.9375)"/>
<path d="M0 0 C1.875 0.125 1.875 0.125 4 1 C5.25 4.0625 5.25 4.0625 6 7 C6.99 4.69 7.98 2.38 9 0 C10.32 0.33 11.64 0.66 13 1 C11.35 4.96 9.7 8.92 8 13 C6.68 13 5.36 13 4 13 C3.32694982 11.39850114 2.66177773 9.79368971 2 8.1875 C1.62875 7.29417969 1.2575 6.40085937 0.875 5.48046875 C0 3 0 3 0 0 Z " fill="#70C8DB" transform="translate(419,345)"/>
<path d="M0 0 C0.66 0.33 1.32 0.66 2 1 C2 1.99 2 2.98 2 4 C-0.31 4 -2.62 4 -5 4 C-5 5.65 -5 7.3 -5 9 C-3.02 8.67 -1.04 8.34 1 8 C1.33 9.32 1.66 10.64 2 12 C-0.79870027 13.39935013 -2.90498792 13.25265405 -6 13 C-7.875 11.9375 -7.875 11.9375 -9 10 C-9.63316583 4.09045226 -9.63316583 4.09045226 -7.875 1.0625 C-5.1769493 -0.46639539 -3.04470288 -0.25912365 0 0 Z " fill="#70C8DB" transform="translate(471,345)"/>
<path d="M0 0 C0.99 0 1.98 0 3 0 C3 0.99 3 1.98 3 3 C4.32 3 5.64 3 7 3 C7 3.99 7 4.98 7 6 C5.68 6 4.36 6 3 6 C3 8.31 3 10.62 3 13 C4.32 13 5.64 13 7 13 C7 13.99 7 14.98 7 16 C5.00045254 16.04254356 2.99958364 16.04080783 1 16 C0 15 0 15 -0.09765625 12.93359375 C-0.08025391 11.69802734 -0.08025391 11.69802734 -0.0625 10.4375 C-0.05347656 9.61121094 -0.04445313 8.78492188 -0.03515625 7.93359375 C-0.02355469 7.29550781 -0.01195312 6.65742188 0 6 C-0.66 6 -1.32 6 -2 6 C-2 5.01 -2 4.02 -2 3 C-1.34 3 -0.68 3 0 3 C0 2.01 0 1.02 0 0 Z " fill="#71C9DB" transform="translate(597,342)"/>
<path d="M0 0 C0.99 0 1.98 0 3 0 C3 0.99 3 1.98 3 3 C4.32 3 5.64 3 7 3 C7 3.99 7 4.98 7 6 C5.68 6 4.36 6 3 6 C3 8.31 3 10.62 3 13 C4.32 13.33 5.64 13.66 7 14 C7 14.66 7 15.32 7 16 C5.00045254 16.04254356 2.99958364 16.04080783 1 16 C0 15 0 15 -0.09765625 12.93359375 C-0.08025391 11.69802734 -0.08025391 11.69802734 -0.0625 10.4375 C-0.05347656 9.61121094 -0.04445313 8.78492188 -0.03515625 7.93359375 C-0.02355469 7.29550781 -0.01195312 6.65742188 0 6 C-0.66 6 -1.32 6 -2 6 C-2 5.01 -2 4.02 -2 3 C-1.34 3 -0.68 3 0 3 C0 2.01 0 1.02 0 0 Z " fill="#71C9DC" transform="translate(376,342)"/>
<path d="M0 0 C1.1484375 1.671875 1.1484375 1.671875 2 4 C1.1015625 6.578125 1.1015625 6.578125 -0.375 9.25 C-1.09816406 10.58804687 -1.09816406 10.58804687 -1.8359375 11.953125 C-2.22007812 12.62859375 -2.60421875 13.3040625 -3 14 C-3.99 13.67 -4.98 13.34 -6 13 C-5.979375 12.030625 -5.95875 11.06125 -5.9375 10.0625 C-5.64381501 7.12534105 -5.64381501 7.12534105 -7 6 C-7.04063832 4.33382885 -7.042721 2.66611905 -7 1 C-3.535 0.505 -3.535 0.505 0 0 Z " fill="#BDD6D8" transform="translate(668,401)"/>
<path d="M0 0 C1.32 0 2.64 0 4 0 C4.06058594 1.04800781 4.12117188 2.09601563 4.18359375 3.17578125 C4.26801738 4.55470048 4.35266447 5.93360605 4.4375 7.3125 C4.47681641 8.00279297 4.51613281 8.69308594 4.55664062 9.40429688 C4.74927415 12.47161535 5.02322717 15.06968152 6 18 C4.35 18 2.7 18 1 18 C-0.59412284 14.81175432 -0.10174735 11.37103338 -0.0625 7.875 C-0.05798828 7.12089844 -0.05347656 6.36679687 -0.04882812 5.58984375 C-0.03703499 3.72652873 -0.01909942 1.86325445 0 0 Z " fill="#7BCCDD" transform="translate(279,340)"/>
<path d="M0 0 C1.32 0 2.64 0 4 0 C4 5.94 4 11.88 4 18 C2.68 18 1.36 18 0 18 C0 12.06 0 6.12 0 0 Z " fill="#69C6DA" transform="translate(164,340)"/>
<path d="M0 0 C0.99 0.33 1.98 0.66 3 1 C2.67 1.66 2.34 2.32 2 3 C3.65 3 5.3 3 7 3 C4.2834821 5.7165179 1.05481089 7.06678444 -2.375 8.6875 C-3.04789063 9.02072266 -3.72078125 9.35394531 -4.4140625 9.69726562 C-8.08848533 11.43682998 -10.12849207 12.2764793 -14 11 C-13.40832031 10.54109375 -12.81664062 10.0821875 -12.20703125 9.609375 C-11.41683594 8.99578125 -10.62664062 8.3821875 -9.8125 7.75 C-8.99136719 7.11578125 -8.17023438 6.4815625 -7.32421875 5.828125 C-5.55180794 4.43402709 -3.82662275 2.97967195 -2.125 1.5 C-1.42375 1.005 -0.7225 0.51 0 0 Z " fill="#D2C5B6" transform="translate(208,181)"/>
<path d="M0 0 C0.99 0 1.98 0 3 0 C3 5.94 3 11.88 3 18 C1.02 17.67 -0.96 17.34 -3 17 C-2.67 16.34 -2.34 15.68 -2 15 C-1.93049459 13.45976004 -1.91547643 11.91665012 -1.9375 10.375 C-1.94652344 9.55773437 -1.95554687 8.74046875 -1.96484375 7.8984375 C-1.97644531 7.27195312 -1.98804688 6.64546875 -2 6 C-1.34 6 -0.68 6 0 6 C0 4.02 0 2.04 0 0 Z " fill="#6EC8DB" transform="translate(499,340)"/>
<path d="M0 0 C2.475 0.495 2.475 0.495 5 1 C5 1.66 5 2.32 5 3 C5.66 3 6.32 3 7 3 C8.91384609 6.50871784 9.04276246 7.81367786 8.125 11.8125 C7.75375 12.864375 7.3825 13.91625 7 15 C6.01 15 5.02 15 4 15 C3.67 11.7 3.34 8.4 3 5 C2.34 5 1.68 5 1 5 C0.67 3.35 0.34 1.7 0 0 Z " fill="#B5D1D5" transform="translate(692,400)"/>
<path d="M0 0 C2.43869509 7.31608526 1.43438575 16.46947483 0 24 C-0.33 24 -0.66 24 -1 24 C-1.33 21.03 -1.66 18.06 -2 15 C-3.32 14.67 -4.64 14.34 -6 14 C-6 15.65 -6 17.3 -6 19 C-6.33 19 -6.66 19 -7 19 C-7 17.02 -7 15.04 -7 13 C-6.34 12.67 -5.68 12.34 -5 12 C-4.39625208 9.46425873 -4.04218874 6.92544828 -3.66015625 4.34765625 C-3 2 -3 2 0 0 Z " fill="#D5E4E4" transform="translate(250,225)"/>
<path d="M0 0 C1.15542253 3.88821192 0.60322712 5.86053447 -0.8125 9.6875 C-2.17363786 13.49588914 -3.31528348 17.15058112 -4.0625 21.125 C-5 25 -5 25 -8 27 C-8.66 26.67 -9.32 26.34 -10 26 C-7.24892128 17.09945121 -3.59701637 8.58356509 0 0 Z " fill="#D3E3E2" transform="translate(310,176)"/>
<path d="M0 0 C1.89558272 7.75465658 -0.51573462 14.32160319 -3.4375 21.5625 C-5.08876409 24.13847198 -6.13930599 25.01355379 -9 26 C-8.731875 25.360625 -8.46375 24.72125 -8.1875 24.0625 C-7.795625 23.051875 -7.40375 22.04125 -7 21 C-6.62101563 20.03513672 -6.62101563 20.03513672 -6.234375 19.05078125 C-4.28690013 13.73341115 -3.56777092 8.84227466 -3.30859375 3.1875 C-3.20675781 2.465625 -3.10492188 1.74375 -3 1 C-1 0 -1 0 0 0 Z " fill="#3B6C87" transform="translate(196,132)"/>
<path d="M0 0 C2.64 0 5.28 0 8 0 C8 0.99 8 1.98 8 3 C7.01 3.33 6.02 3.66 5 4 C4.67 6.97 4.34 9.94 4 13 C2.68 13 1.36 13 0 13 C0 8.71 0 4.42 0 0 Z " fill="#77CBDC" transform="translate(572,345)"/>
<path d="M0 0 C2.48503465 2.48503465 2.93619649 4.67561404 4 8 C5.12987849 10.95506681 5.9725716 11.97805728 8.5 14 C10.92405976 15.93924781 11.88553115 17.16317019 13 20 C12.01 20.33 11.02 20.66 10 21 C6.96811304 19.21653709 6.13474948 18.40424844 5 15 C3.68733482 13.64631404 2.35432675 12.31200404 1 11 C-0.20272819 8.59454362 -0.10071472 7.05003047 -0.0625 4.375 C-0.05347656 3.55773437 -0.04445313 2.74046875 -0.03515625 1.8984375 C-0.02355469 1.27195312 -0.01195312 0.64546875 0 0 Z " fill="#C9DDDE" transform="translate(697,337)"/>
<path d="M0 0 C1.41050125 4.23150375 0.74602915 8.5332029 -0.53515625 12.76953125 C-1.2255398 16.08221199 -1.10386797 19.38328351 -1.0625 22.75 C-1.05798828 23.44738281 -1.05347656 24.14476562 -1.04882812 24.86328125 C-1.0371002 26.57555803 -1.01916653 28.28779033 -1 30 C-1.66 30.33 -2.32 30.66 -3 31 C-6.74964808 23.50070384 -3.86327108 10.73145125 -1.75390625 3.16015625 C-1 1 -1 1 0 0 Z " fill="#66C0D6" transform="translate(101,116)"/>
<path d="M0 0 C0 0.33 0 0.66 0 1 C-1.65 1.33 -3.3 1.66 -5 2 C-5 4.31 -5 6.62 -5 9 C-4.01 9.33 -3.02 9.66 -2 10 C-2 10.66 -2 11.32 -2 12 C-4.3125 12.25 -4.3125 12.25 -7 12 C-9.5348994 9.72733157 -9.96041822 8.32325124 -10.375 4.9375 C-10 2 -10 2 -8.9375 0.0625 C-5.87530347 -1.61676907 -3.30629059 -0.68621125 0 0 Z " fill="#70C8DB" transform="translate(296,346)"/>
<path d="M0 0 C0.99 0 1.98 0 3 0 C3 4.95 3 9.9 3 15 C3.66 15 4.32 15 5 15 C5 15.99 5 16.98 5 18 C3.35 17.67 1.7 17.34 0 17 C0 11.39 0 5.78 0 0 Z " fill="#69C6DA" transform="translate(171,340)"/>
<path d="M0 0 C0.99 0 1.98 0 3 0 C2.34 3.3 1.68 6.6 1 10 C-0.98 10.33 -2.96 10.66 -5 11 C-5 8.33333333 -5 5.66666667 -5 3 C-3.35 2.67 -1.7 2.34 0 2 C0 1.34 0 0.68 0 0 Z " fill="#8BD1DE" transform="translate(224,343)"/>
<path d="M0 0 C1.32 0.33 2.64 0.66 4 1 C6.18703385 0.62092718 6.18703385 0.62092718 8 0 C8 0.99 8 1.98 8 3 C7.360625 3.165 6.72125 3.33 6.0625 3.5 C3.83880759 4.781786 3.83880759 4.781786 3.51171875 6.9140625 C3.2724022 8.93575155 3.13106972 10.96841939 3 13 C2.01 13 1.02 13 0 13 C0 8.71 0 4.42 0 0 Z " fill="#6BC6DA" transform="translate(269,345)"/>
<path d="M0 0 C0.66 0 1.32 0 2 0 C2 5.94 2 11.88 2 18 C0.35 17.67 -1.3 17.34 -3 17 C-2.73958333 14.98177083 -2.47916667 12.96354167 -2.21875 10.9453125 C-1.9627515 8.99501656 -1.9627515 8.99501656 -2 7 C-1.34 7 -0.68 7 0 7 C0 4.69 0 2.38 0 0 Z " fill="#68C6DA" transform="translate(414,340)"/>
<path d="M0 0 C0.66 0 1.32 0 2 0 C2 5.94 2 11.88 2 18 C0.35 17.67 -1.3 17.34 -3 17 C-2.73958333 14.98177083 -2.47916667 12.96354167 -2.21875 10.9453125 C-1.9627515 8.99501656 -1.9627515 8.99501656 -2 7 C-1.34 7 -0.68 7 0 7 C0 4.69 0 2.38 0 0 Z " fill="#68C6DA" transform="translate(188,340)"/>
<path d="M0 0 C0.99 0 1.98 0 3 0 C1.01815501 7.33282647 -2.45523465 15.76431853 -9 20 C-8.59583906 15.55422963 -6.75013238 13.14642795 -4.14453125 9.71484375 C-2.69805772 7.54760184 -2.23449595 5.57945543 -2 3 C-1.34 3 -0.68 3 0 3 C0 2.01 0 1.02 0 0 Z " fill="#BF769D" transform="translate(265,126)"/>
<path d="M0 0 C3.69230769 0.69230769 3.69230769 0.69230769 5 2 C5.07226502 3.85287502 5.0838122 5.70833878 5.0625 7.5625 C5.05347656 8.57441406 5.04445313 9.58632813 5.03515625 10.62890625 C5.02355469 11.41136719 5.01195312 12.19382812 5 13 C3.68 13 2.36 13 1 13 C1 9.37 1 5.74 1 2 C0.34 1.67 -0.32 1.34 -1 1 C-0.67 0.67 -0.34 0.34 0 0 Z " fill="#78CBDD" transform="translate(340,345)"/>
<path d="M0 0 C4.21165289 2.10582644 6.69283919 4.76262223 9.5703125 8.37890625 C11.09773544 10.25086359 11.09773544 10.25086359 14 12 C14 12.66 14 13.32 14 14 C14.66 14 15.32 14 16 14 C16.99 15.485 16.99 15.485 18 17 C17.67 17.99 17.34 18.98 17 20 C15.5 18.625 15.5 18.625 14 17 C14 16.34 14 15.68 14 15 C13.34 15 12.68 15 12 15 C12 14.34 12 13.68 12 13 C11.01 13 10.02 13 9 13 C8.773125 12.443125 8.54625 11.88625 8.3125 11.3125 C7.02250701 8.80089951 7.02250701 8.80089951 4.5 6.5 C2.3209806 4.3209806 1.1427079 2.80482848 0 0 Z " fill="#CFE0E1" transform="translate(685,388)"/>
<path d="M0 0 C0.99 0 1.98 0 3 0 C3 5.61 3 11.22 3 17 C2.01 17 1.02 17 0 17 C0 11.39 0 5.78 0 0 Z " fill="#65C5DA" transform="translate(664,341)"/>
<path d="M0 0 C4.75 0.75 4.75 0.75 7 3 C7 4.32 7 5.64 7 7 C4.36 7 1.72 7 -1 7 C-1 3 -1 3 0 0 Z " fill="#8AD1DF" transform="translate(563,345)"/>
<path d="M0 0 C0.99 0 1.98 0 3 0 C3.33 2.64 3.66 5.28 4 8 C4.99 7.67 5.98 7.34 7 7 C7 8.98 7 10.96 7 13 C5.68 13 4.36 13 3 13 C2.01 8.71 1.02 4.42 0 0 Z " fill="#6BC7DA" transform="translate(234,345)"/>
<path d="M0 0 C2.85423192 -0.02718316 5.70820015 -0.04692705 8.5625 -0.0625 C9.36236328 -0.07087891 10.16222656 -0.07925781 10.98632812 -0.08789062 C15.77163104 -0.10742247 20.28145051 0.19562982 25 1 C21.30354642 3.46430239 18.46054401 3.29648824 14.1875 3.25 C13.48818359 3.25773438 12.78886719 3.26546875 12.06835938 3.2734375 C7.66820218 3.25697293 4.08662968 2.61668867 0 1 C0 0.67 0 0.34 0 0 Z " fill="#45858E" transform="translate(146,198)"/>
<path d="M0 0 C2.475 0.495 2.475 0.495 5 1 C4.34 4.96 3.68 8.92 3 13 C2.01 13 1.02 13 0 13 C0 8.71 0 4.42 0 0 Z " fill="#69C6DA" transform="translate(543,345)"/>
<path d="M0 0 C2.475 0.495 2.475 0.495 5 1 C4.34 4.96 3.68 8.92 3 13 C2.01 13 1.02 13 0 13 C0 8.71 0 4.42 0 0 Z " fill="#69C6DA" transform="translate(201,345)"/>
<path d="M0 0 C5.66153846 1.47692308 5.66153846 1.47692308 7.375 4.125 C7.684375 5.053125 7.684375 5.053125 8 6 C8.5775 5.7525 9.155 5.505 9.75 5.25 C10.4925 5.1675 11.235 5.085 12 5 C14.25 6.9375 14.25 6.9375 16 9 C15.67 9.66 15.34 10.32 15 11 C3.84110309 5.71306632 3.84110309 5.71306632 0 2 C0 1.34 0 0.68 0 0 Z " fill="#5CBBD2" transform="translate(119,184)"/>
<path d="M0 0 C0.66 0 1.32 0 2 0 C4.17364926 2.81769349 5.08677021 4.2190681 4.6875 7.8125 C4.460625 8.534375 4.23375 9.25625 4 10 C3.34 9.67 2.68 9.34 2 9 C2 8.34 2 7.68 2 7 C0.35 7 -1.3 7 -3 7 C-1.125 1.125 -1.125 1.125 0 0 Z " fill="#D0E0E0" transform="translate(264,172)"/>
<path d="M0 0 C0.99 0 1.98 0 3 0 C3 4.29 3 8.58 3 13 C2.01 13 1.02 13 0 13 C0 8.71 0 4.42 0 0 Z " fill="#6AC6DA" transform="translate(606,345)"/>
<path d="M0 0 C0.99 0 1.98 0 3 0 C3 4.29 3 8.58 3 13 C2.01 13 1.02 13 0 13 C0 8.71 0 4.42 0 0 Z " fill="#69C6DA" transform="translate(194,345)"/>
<path d="M0 0 C1.67542976 0.28604898 3.34385343 0.61781233 5 1 C5 2.65 5 4.3 5 6 C3.34385343 6.38218767 1.67542976 6.71395102 0 7 C-1 6 -1 6 -1.125 3.5 C-1 1 -1 1 0 0 Z " fill="#E8F1EE" transform="translate(408,348)"/>
<path d="M0 0 C1.67542976 0.28604898 3.34385343 0.61781233 5 1 C5 2.65 5 4.3 5 6 C3.34385343 6.38218767 1.67542976 6.71395102 0 7 C-1 6 -1 6 -1.125 3.5 C-1 1 -1 1 0 0 Z " fill="#ECF2EF" transform="translate(352,348)"/>
<path d="M0 0 C1.67542976 0.28604898 3.34385343 0.61781233 5 1 C5 2.65 5 4.3 5 6 C3.34385343 6.38218767 1.67542976 6.71395102 0 7 C-1 6 -1 6 -1.125 3.5 C-1 1 -1 1 0 0 Z " fill="#E0ECEB" transform="translate(258,348)"/>
<path d="M0 0 C1.67542976 0.28604898 3.34385343 0.61781233 5 1 C5 2.65 5 4.3 5 6 C3.34385343 6.38218767 1.67542976 6.71395102 0 7 C-1 6 -1 6 -1.125 3.5 C-1 1 -1 1 0 0 Z " fill="#DEECEB" transform="translate(182,348)"/>
<path d="M0 0 C0.66 1.32 1.32 2.64 2 4 C9.92 4 17.84 4 26 4 C26.33 3.01 26.66 2.02 27 1 C27 2.32 27 3.64 27 5 C17.76 5 8.52 5 -1 5 C-0.67 3.35 -0.34 1.7 0 0 Z " fill="#D0D1CE" transform="translate(613,137)"/>
<path d="M0 0 C0.66 0 1.32 0 2 0 C1.67 7.59 1.34 15.18 1 23 C0.67 23 0.34 23 0 23 C-0.22786458 21.01432292 -0.45572917 19.02864583 -0.68359375 17.04296875 C-0.97170735 14.80603607 -0.97170735 14.80603607 -2 12 C-1.75867872 9.9279656 -1.43760371 7.86453794 -1.0625 5.8125 C-0.86785156 4.72582031 -0.67320312 3.63914062 -0.47265625 2.51953125 C-0.31667969 1.68808594 -0.16070312 0.85664063 0 0 Z " fill="#D8E6E5" transform="translate(153,23)"/>
<path d="M0 0 C2.80045623 3.14591933 3.35261589 5.067064 3.1875 9.25 C3.16042969 10.14203125 3.13335937 11.0340625 3.10546875 11.953125 C3.07066406 12.62859375 3.03585938 13.3040625 3 14 C1.5 12.6875 1.5 12.6875 0 11 C0 10.01 0 9.02 0 8 C-0.66 8 -1.32 8 -2 8 C-1.33333333 5.33333333 -0.66666667 2.66666667 0 0 Z " fill="#C9DCDD" transform="translate(186,47)"/>
<path d="M0 0 C0.99 0.33 1.98 0.66 3 1 C3.6953125 2.9609375 3.6953125 2.9609375 4.125 5.375 C4.61930837 8.03732753 5.13999007 10.4199702 6 13 C3 14 3 14 0 13 C0 11 0 11 2 9 C1.80109544 6.76655935 1.80109544 6.76655935 1.125 4.375 C0.92132812 3.55773437 0.71765625 2.74046875 0.5078125 1.8984375 C0.34023438 1.27195312 0.17265625 0.64546875 0 0 Z " fill="#D6E5E4" transform="translate(735,404)"/>
<path d="M0 0 C0.33 0 0.66 0 1 0 C1 4.62 1 9.24 1 14 C0.01 14.495 0.01 14.495 -1 15 C-1.99 14.34 -2.98 13.68 -4 13 C-3 11 -3 11 -2 10 C-1.95907063 7.66702567 -1.95758277 5.33294775 -2 3 C-1.34 3 -0.68 3 0 3 C0 2.01 0 1.02 0 0 Z " fill="#D0E1E1" transform="translate(707,334)"/>
<path d="M0 0 C0.66 0.66 1.32 1.32 2 2 C-3.93181818 19.46590909 -3.93181818 19.46590909 -9 22 C-7.14519293 17.28681874 -5.13717068 12.64258559 -3.12304688 7.99609375 C-1.98200645 5.34979053 -0.91191514 2.73574541 0 0 Z " fill="#D4BCB9" transform="translate(224,151)"/>
<path d="M0 0 C1.98 0 3.96 0 6 0 C6.5625 1.9375 6.5625 1.9375 7 4 C6 5 6 5 2.9375 5.0625 C1.4834375 5.0315625 1.4834375 5.0315625 0 5 C0 3.35 0 1.7 0 0 Z " fill="#E4F1EF" transform="translate(136,350)"/>
<path d="M0 0 C1.32 0 2.64 0 4 0 C4 2.31 4 4.62 4 7 C2.35 6.67 0.7 6.34 -1 6 C-1.042721 4.33388095 -1.04063832 2.66617115 -1 1 C-0.67 0.67 -0.34 0.34 0 0 Z " fill="#EFF2EE" transform="translate(494,348)"/>
<path d="M0 0 C2.475 0.495 2.475 0.495 5 1 C5 2.65 5 4.3 5 6 C3.35 6.33 1.7 6.66 0 7 C0 4.69 0 2.38 0 0 Z " fill="#EFF3EE" transform="translate(290,348)"/>
<path d="M0 0 C0.33 0.99 0.66 1.98 1 3 C1.66 3 2.32 3 3 3 C6.25601751 10.0547046 6.25601751 10.0547046 5.1875 14 C4.795625 14.66 4.40375 15.32 4 16 C3.67 16 3.34 16 3 16 C2.86722656 15.26394531 2.73445313 14.52789062 2.59765625 13.76953125 C2.42105469 12.79371094 2.24445313 11.81789062 2.0625 10.8125 C1.80146484 9.36810547 1.80146484 9.36810547 1.53515625 7.89453125 C1.0476265 5.25760028 0.53328895 2.6280095 0 0 Z " fill="#D5E4E4" transform="translate(279,217)"/>
<path d="M0 0 C1.32 0 2.64 0 4 0 C4 5.94 4 11.88 4 18 C3.67 18 3.34 18 3 18 C3 13.71 3 9.42 3 5 C2.01 4.67 1.02 4.34 0 4 C0 2.68 0 1.36 0 0 Z " fill="#9DD5E0" transform="translate(164,340)"/>
<path d="M0 0 C2.25245881 2.68841859 3.88213958 4.64641875 5 8 C5.99 8.33 6.98 8.66 8 9 C8 9.99 8 10.98 8 12 C5.11538849 10.70689829 2.87147927 9.58442376 1 7 C0.3125 3.3125 0.3125 3.3125 0 0 Z " fill="#D9E6E6" transform="translate(695,343)"/>
<path d="M0 0 C0.6875 1.6875 0.6875 1.6875 1 4 C-0.4375 6.75 -0.4375 6.75 -2 9 C-1.01 9 -0.02 9 1 9 C1.33 9.99 1.66 10.98 2 12 C-1.77545388 10.90931332 -4.47043472 10.0916909 -7 7 C-6.01 6.67 -5.02 6.34 -4 6 C-1.63493157 3.99878825 -1.0106678 3.03200339 0 0 Z " fill="#BED7DA" transform="translate(752,382)"/>
<path d="M0 0 C2.0625 0.4375 2.0625 0.4375 4 1 C3.67 1.99 3.34 2.98 3 4 C3.99 4.33 4.98 4.66 6 5 C6 5.66 6 6.32 6 7 C4.02 7 2.04 7 0 7 C-0.38133299 5.0085944 -0.71325582 3.00720923 -1 1 C-0.67 0.67 -0.34 0.34 0 0 Z " fill="#6FC8DB" transform="translate(434,351)"/>
<path d="M0 0 C2.0625 0.4375 2.0625 0.4375 4 1 C3.67 1.99 3.34 2.98 3 4 C3.99 4.33 4.98 4.66 6 5 C6 5.66 6 6.32 6 7 C4.02 7 2.04 7 0 7 C-0.38133299 5.0085944 -0.71325582 3.00720923 -1 1 C-0.67 0.67 -0.34 0.34 0 0 Z " fill="#6FC8DB" transform="translate(391,351)"/>
<path d="M0 0 C4.70588235 0.70588235 4.70588235 0.70588235 6 2 C6.04063832 3.66617115 6.042721 5.33388095 6 7 C3.69 7 1.38 7 -1 7 C0.32 6.67 1.64 6.34 3 6 C2.24849977 2.72226496 2.24849977 2.72226496 -1 1 C-0.67 0.67 -0.34 0.34 0 0 Z " fill="#69C6DA" transform="translate(534,345)"/>
<path d="M0 0 C4.70588235 0.70588235 4.70588235 0.70588235 6 2 C6.04063832 3.66617115 6.042721 5.33388095 6 7 C3.69 7 1.38 7 -1 7 C0.32 6.67 1.64 6.34 3 6 C2.24849977 2.72226496 2.24849977 2.72226496 -1 1 C-0.67 0.67 -0.34 0.34 0 0 Z " fill="#69C6DA" transform="translate(481,345)"/>
<path d="M0 0 C1.1446875 1.175625 1.1446875 1.175625 2.3125 2.375 C4.90891805 5.07257717 4.90891805 5.07257717 8 7 C8 7.99 8 8.98 8 10 C7.01 10 6.02 10 5 10 C3.39453125 8.03125 3.39453125 8.03125 1.8125 5.5 C1.28269531 4.6646875 0.75289062 3.829375 0.20703125 2.96875 C-0.19128906 2.3190625 -0.58960938 1.669375 -1 1 C-0.67 0.67 -0.34 0.34 0 0 Z " fill="#256D7A" transform="translate(133,155)"/>
<path d="M0 0 C1.98 0 3.96 0 6 0 C6 0.66 6 1.32 6 2 C5.01 2 4.02 2 3 2 C2.87625 2.78375 2.7525 3.5675 2.625 4.375 C2 7 2 7 0 9 C0 6.03 0 3.06 0 0 Z " fill="#D4E4E3" transform="translate(204,0)"/>
<path d="M0 0 C4.70588235 0.70588235 4.70588235 0.70588235 6 2 C6.04063832 3.66617115 6.042721 5.33388095 6 7 C4.68 6.67 3.36 6.34 2 6 C2 5.01 2 4.02 2 3 C1.01 2.34 0.02 1.68 -1 1 C-0.67 0.67 -0.34 0.34 0 0 Z " fill="#69C6DA" transform="translate(632,345)"/>
<path d="M0 0 C0.99 0.33 1.98 0.66 3 1 C1.25877451 2.03572896 -0.49336595 3.0531252 -2.25 4.0625 C-3.71179688 4.91521484 -3.71179688 4.91521484 -5.203125 5.78515625 C-8 7 -8 7 -10.359375 6.68359375 C-10.90078125 6.45800781 -11.4421875 6.23242188 -12 6 C-8.43603465 3.69390477 -5.03626477 2.28426606 -1 1 C-0.67 0.67 -0.34 0.34 0 0 Z " fill="#BBAEA3" transform="translate(206,186)"/>
<path d="M0 0 C0.99 0 1.98 0 3 0 C1.8905928 3.48670834 0.73662334 6.77484237 -1 10 C-1.66 10 -2.32 10 -3 10 C-2.67 7.69 -2.34 5.38 -2 3 C-1.34 3 -0.68 3 0 3 C0 2.01 0 1.02 0 0 Z " fill="#AE739C" transform="translate(265,126)"/>
<path d="M0 0 C0.66 0.33 1.32 0.66 2 1 C-1.3 4.3 -4.6 7.6 -8 11 C-8.66 10.67 -9.32 10.34 -10 10 C-3.84965831 2.51708428 -3.84965831 2.51708428 0 0 Z " fill="#67C1D7" transform="translate(120,89)"/>
<path d="M0 0 C1.43060128 2.86120256 1.38692581 4.84010585 1 8 C-1.5 9.875 -1.5 9.875 -4 11 C-3.71890887 9.35232753 -3.42481474 7.70686855 -3.125 6.0625 C-2.96257812 5.14597656 -2.80015625 4.22945313 -2.6328125 3.28515625 C-2.42398438 2.53105469 -2.21515625 1.77695312 -2 1 C-1.34 0.67 -0.68 0.34 0 0 Z " fill="#DEEBEA" transform="translate(253,347)"/>
<path d="M0 0 C0.66 0.33 1.32 0.66 2 1 C1.979375 1.78375 1.95875 2.5675 1.9375 3.375 C1.81315937 5.98114961 1.81315937 5.98114961 3 8 C1.68 8.33 0.36 8.66 -1 9 C-1.625 5.625 -1.625 5.625 -2 2 C-1.34 1.34 -0.68 0.68 0 0 Z " fill="#6DC7DB" transform="translate(218,345)"/>
<path d="M0 0 C0.33 0 0.66 0 1 0 C0.85831863 1.43791516 0.71148957 2.8753237 0.5625 4.3125 C0.48128906 5.11300781 0.40007812 5.91351563 0.31640625 6.73828125 C0 9 0 9 -1 12 C-1.99 11.67 -2.98 11.34 -4 11 C-3.69255859 10.18595703 -3.69255859 10.18595703 -3.37890625 9.35546875 C-3.10949219 8.64003906 -2.84007812 7.92460938 -2.5625 7.1875 C-2.29566406 6.47980469 -2.02882813 5.77210937 -1.75390625 5.04296875 C-1.13774814 3.37327604 -0.56280765 1.68842296 0 0 Z " fill="#9F87A8" transform="translate(270,114)"/>
<path d="M0 0 C0.33 0 0.66 0 1 0 C1 3.3 1 6.6 1 10 C-0.98 10.99 -0.98 10.99 -3 12 C-3.125 9.125 -3.125 9.125 -3 6 C-2.34 5.34 -1.68 4.68 -1 4 C-0.3574765 1.93125966 -0.3574765 1.93125966 0 0 Z " fill="#D1E2E1" transform="translate(243,252)"/>
<path d="M0 0 C-1.2748209 2.84383123 -2.45137078 5.13754018 -5 7 C-7.1015625 6.57421875 -7.1015625 6.57421875 -9 6 C-7.8803014 4.99406757 -6.7540588 3.9954151 -5.625 3 C-4.68527344 2.1646875 -4.68527344 2.1646875 -3.7265625 1.3125 C-2 0 -2 0 0 0 Z " fill="#3B7382" transform="translate(187,159)"/>
<path d="M0 0 C4.94151304 2.40016348 7.04331244 5.52273027 10 10 C4.98343041 8.5666944 2.98547118 6.09436048 0 2 C0 1.34 0 0.68 0 0 Z " fill="#D7E5E5" transform="translate(685,388)"/>
<path d="M0 0 C-1 2 -1 2 -3.06640625 2.8515625 C-4.30197266 3.23441406 -4.30197266 3.23441406 -5.5625 3.625 C-6.80193359 4.01558594 -6.80193359 4.01558594 -8.06640625 4.4140625 C-8.70449219 4.60742188 -9.34257812 4.80078125 -10 5 C-10.33 4.34 -10.66 3.68 -11 3 C-7.16674383 0.29417212 -4.67461851 -0.32613618 0 0 Z " fill="#4B868B" transform="translate(194,192)"/>
<path d="M0 0 C3.34373475 0.55728913 6.03312999 1.35173889 9 3 C8.67 3.99 8.34 4.98 8 6 C7.01 5.67 6.02 5.34 5 5 C5 4.34 5 3.68 5 3 C3.35 2.67 1.7 2.34 0 2 C0 1.34 0 0.68 0 0 Z " fill="#2A7481" transform="translate(142,165)"/>
<path d="M0 0 C0.96066886 2.88200659 1.07718954 4.14505991 0.75 7.0625 C0.68296875 7.75472656 0.6159375 8.44695312 0.546875 9.16015625 C0 11 0 11 -3 13 C-2.52060632 8.28596212 -2.03165952 4.33420699 0 0 Z " fill="#5DB9D3" transform="translate(101,116)"/>
<path d="M0 0 C2.64 0 5.28 0 8 0 C7.67 0.99 7.34 1.98 7 3 C5.02 3 3.04 3 1 3 C0.67 2.01 0.34 1.02 0 0 Z " fill="#D1E6E7" transform="translate(630,352)"/>
<path d="M0 0 C0.99 0 1.98 0 3 0 C3 2.31 3 4.62 3 7 C2.01 7 1.02 7 0 7 C0 4.69 0 2.38 0 0 Z " fill="#70C8DB" transform="translate(302,341)"/>
<path d="M0 0 C-3.66539668 2.37706418 -6.49056835 2.05094317 -10.75 1.625 C-11.92046875 1.51414063 -13.0909375 1.40328125 -14.296875 1.2890625 C-15.18890625 1.19367188 -16.0809375 1.09828125 -17 1 C-17 0.67 -17 0.34 -17 0 C-14.9174133 -0.19561869 -12.83388144 -0.38119313 -10.75 -0.5625 C-9.58984375 -0.66691406 -8.4296875 -0.77132812 -7.234375 -0.87890625 C-4.48128523 -0.98198087 -2.580018 -0.86213473 0 0 Z " fill="#65939C" transform="translate(174,169)"/>
<path d="M0 0 C3.95820859 0.56545837 6.6659053 1.80902348 10 4 C9.34 4.66 8.68 5.32 8 6 C8 5.34 8 4.68 8 4 C6.35 4 4.7 4 3 4 C3 3.34 3 2.68 3 2 C2.01 2 1.02 2 0 2 C0 1.34 0 0.68 0 0 Z " fill="#57B9D3" transform="translate(184,80)"/>
<path d="M0 0 C0.66 0 1.32 0 2 0 C2 0.66 2 1.32 2 2 C2.66 2 3.32 2 4 2 C3.4140625 8.15234375 3.4140625 8.15234375 3 10 C2.01 10.495 2.01 10.495 1 11 C0.67 7.37 0.34 3.74 0 0 Z " fill="#CBDEDE" transform="translate(234,35)"/>
<path d="M0 0 C1.32 0 2.64 0 4 0 C4 1.65 4 3.3 4 5 C2.68 5 1.36 5 0 5 C0 3.35 0 1.7 0 0 Z " fill="#70C8DB" transform="translate(241,345)"/>
<path d="M0 0 C1.65 0 3.3 0 5 0 C5 1.32 5 2.64 5 4 C3.35 4 1.7 4 0 4 C0 2.68 0 1.36 0 0 Z " fill="#E4F0EE" transform="translate(136,344)"/>
<path d="M0 0 C2.25 -0.25 2.25 -0.25 5 0 C7.3125 2 7.3125 2 9 4 C5.625 3.6875 5.625 3.6875 2 3 C1.34 2.01 0.68 1.02 0 0 Z " fill="#2D6086" transform="translate(175,108)"/>
<path d="M0 0 C0.6875 1.625 0.6875 1.625 1 4 C-0.4375 7.25 -0.4375 7.25 -2 10 C-3.26066301 6.21801096 -2.42292658 4.63636792 -1 1 C-0.67 0.67 -0.34 0.34 0 0 Z " fill="#DCE8E7" transform="translate(178,12)"/>
<path d="M0 0 C0.66 0 1.32 0 2 0 C2.33 1.98 2.66 3.96 3 6 C1.68 6 0.36 6 -1 6 C-0.67 4.02 -0.34 2.04 0 0 Z " fill="#D0E7E8" transform="translate(652,345)"/>
<path d="M0 0 C5.75 1.625 5.75 1.625 8 5 C7.01 5.33 6.02 5.66 5 6 C3.35 4.02 1.7 2.04 0 0 Z " fill="#1F4C74" transform="translate(180,111)"/>
<path d="M0 0 C1.32 0 2.64 0 4 0 C3.67 1.32 3.34 2.64 3 4 C1.68 4 0.36 4 -1 4 C-0.67 2.68 -0.34 1.36 0 0 Z " fill="#ADCCD2" transform="translate(775,374)"/>
<path d="M0 0 C1.98 0 3.96 0 6 0 C5.67 0.99 5.34 1.98 5 3 C3.35 3 1.7 3 0 3 C0 2.01 0 1.02 0 0 Z " fill="#D4E8E9" transform="translate(218,358)"/>
<path d="M0 0 C2.5 1.375 2.5 1.375 5 3 C5 3.66 5 4.32 5 5 C3.35 5 1.7 5 0 5 C-0.5625 3.0625 -0.5625 3.0625 -1 1 C-0.67 0.67 -0.34 0.34 0 0 Z " fill="#68C6DA" transform="translate(583,353)"/>
<path d="M0 0 C0.66 0.33 1.32 0.66 2 1 C0.02 2.98 -1.96 4.96 -4 7 C-4.99 6.67 -5.98 6.34 -7 6 C-4.69 4.02 -2.38 2.04 0 0 Z " fill="#438BB0" transform="translate(172,97)"/>
<path d="M0 0 C0.99 0 1.98 0 3 0 C4.75 2.375 4.75 2.375 6 5 C5.67 5.66 5.34 6.32 5 7 C4.67 6.01 4.34 5.02 4 4 C1.98491642 3.26676204 1.98491642 3.26676204 0 3 C0 2.01 0 1.02 0 0 Z " fill="#DFE9E8" transform="translate(156,0)"/>
</svg>
